0 BrickForgerAI Refined - bunny
0 Name: BrickForgerAI Refined - bunny.ldr
0 Author: BrickForgerAI
0 !LDRAW_ORG Unofficial_Model
0 BFC CERTIFY CCW
0 // Generated by BrickForgerAI (core/brickforge). Do not hand-edit.

1 72 50 -144 150 1 0 0 0 1 0 0 0 1 3005.dat
1 72 50 -168 150 1 0 0 0 1 0 0 0 1 3005.dat
1 72 30 -248 170 1 0 0 0 1 0 0 0 1 3005.dat
1 72 100 -8 160 1 0 0 0 1 0 0 0 1 3020.dat
1 72 120 -8 190 1 0 0 0 1 0 0 0 1 3666.dat
1 72 90 -8 210 1 0 0 0 1 0 0 0 1 3623.dat
1 72 120 -8 240 1 0 0 0 1 0 0 0 1 3020.dat
1 72 120 -8 270 1 0 0 0 1 0 0 0 1 3710.dat
1 72 130 -8 130 1 0 0 0 1 0 0 0 1 3623.dat
1 72 110 -8 290 1 0 0 0 1 0 0 0 1 3024.dat
1 72 200 -8 110 1 0 0 0 1 0 0 0 1 3460.dat
1 72 170 -8 90 1 0 0 0 1 0 0 0 1 3623.dat
1 72 150 -8 160 0 0 1 0 1 0 -1 0 0 3023.dat
1 72 160 -8 210 1 0 0 0 1 0 0 0 1 3023.dat
1 72 170 -8 250 0 0 1 0 1 0 -1 0 0 3623.dat
1 72 240 -8 130 1 0 0 0 1 0 0 0 1 3710.dat
1 72 260 -8 190 0 0 1 0 1 0 -1 0 0 3021.dat
1 72 280 -8 150 1 0 0 0 1 0 0 0 1 3023.dat
1 72 280 -8 230 1 0 0 0 1 0 0 0 1 3023.dat
1 72 270 -8 270 1 0 0 0 1 0 0 0 1 3024.dat
1 72 290 -8 130 1 0 0 0 1 0 0 0 1 3024.dat
1 72 300 -8 170 1 0 0 0 1 0 0 0 1 3023.dat
1 72 310 -8 190 1 0 0 0 1 0 0 0 1 3024.dat
1 72 80 -16 260 1 0 0 0 1 0 0 0 1 3022.dat
1 72 160 -16 290 1 0 0 0 1 0 0 0 1 3460.dat
1 72 220 -16 130 1 0 0 0 1 0 0 0 1 3666.dat
1 72 190 -16 310 1 0 0 0 1 0 0 0 1 3623.dat
1 72 210 -16 100 0 0 1 0 1 0 -1 0 0 3023.dat
1 72 260 -16 270 1 0 0 0 1 0 0 0 1 3666.dat
1 72 280 -16 230 1 0 0 0 1 0 0 0 1 3710.dat
1 72 270 -16 290 1 0 0 0 1 0 0 0 1 3623.dat
1 72 290 -16 250 1 0 0 0 1 0 0 0 1 3623.dat
1 72 290 -16 160 0 0 1 0 1 0 -1 0 0 3666.dat
1 72 310 -16 180 0 0 1 0 1 0 -1 0 0 3710.dat
1 72 340 -16 190 0 0 1 0 1 0 -1 0 0 3021.dat
1 72 330 -16 230 1 0 0 0 1 0 0 0 1 3024.dat
1 72 70 -16 180 0 0 1 0 1 0 -1 0 0 3710.dat
1 72 100 -16 150 1 0 0 0 1 0 0 0 1 3023.dat
1 72 90 -16 220 0 0 1 0 1 0 -1 0 0 3023.dat
1 72 120 -16 130 1 0 0 0 1 0 0 0 1 3023.dat
1 72 130 -16 190 1 0 0 0 1 0 0 0 1 63864.dat
1 72 140 -16 270 1 0 0 0 1 0 0 0 1 3710.dat
1 72 160 -16 110 1 0 0 0 1 0 0 0 1 3710.dat
1 72 150 -16 250 1 0 0 0 1 0 0 0 1 3623.dat
1 72 160 -16 90 1 0 0 0 1 0 0 0 1 3023.dat
1 72 150 -16 140 0 0 1 0 1 0 -1 0 0 3023.dat
1 72 160 -16 220 1 0 0 0 1 0 0 0 1 3022.dat
1 72 190 -16 90 1 0 0 0 1 0 0 0 1 3024.dat
1 72 250 -16 110 1 0 0 0 1 0 0 0 1 3623.dat
1 72 260 -16 180 1 0 0 0 1 0 0 0 1 3022.dat
1 72 260 -16 210 1 0 0 0 1 0 0 0 1 3023.dat
1 72 270 -16 150 1 0 0 0 1 0 0 0 1 3024.dat
1 72 140 -24 150 1 0 0 0 1 0 0 0 1 3460.dat
1 72 70 -24 190 0 0 1 0 1 0 -1 0 0 3623.dat
1 72 80 -24 250 1 0 0 0 1 0 0 0 1 3023.dat
1 72 80 -24 270 1 0 0 0 1 0 0 0 1 3023.dat
1 72 90 -24 210 1 0 0 0 1 0 0 0 1 3024.dat
1 72 90 -24 230 1 0 0 0 1 0 0 0 1 3024.dat
1 72 120 -24 290 1 0 0 0 1 0 0 0 1 3710.dat
1 72 180 -24 130 1 0 0 0 1 0 0 0 1 3460.dat
1 72 140 -24 110 1 0 0 0 1 0 0 0 1 3023.dat
1 72 180 -24 90 1 0 0 0 1 0 0 0 1 3710.dat
1 72 200 -24 170 1 0 0 0 1 0 0 0 1 6636.dat
1 72 200 -24 270 1 0 0 0 1 0 0 0 1 3666.dat
1 72 200 -24 220 1 0 0 0 1 0 0 0 1 1751.dat
1 72 170 -24 300 0 0 1 0 1 0 -1 0 0 3023.dat
1 72 200 -24 310 1 0 0 0 1 0 0 0 1 3023.dat
1 72 240 -24 110 1 0 0 0 1 0 0 0 1 3710.dat
1 72 240 -24 290 1 0 0 0 1 0 0 0 1 3710.dat
1 72 250 -24 150 1 0 0 0 1 0 0 0 1 63864.dat
1 72 250 -24 220 0 0 1 0 1 0 -1 0 0 2431.dat
1 72 290 -24 130 1 0 0 0 1 0 0 0 1 3623.dat
1 72 270 -24 170 1 0 0 0 1 0 0 0 1 3070b.dat
1 72 270 -24 240 0 0 1 0 1 0 -1 0 0 3069b.dat
1 72 290 -24 110 1 0 0 0 1 0 0 0 1 3024.dat
1 72 300 -24 270 1 0 0 0 1 0 0 0 1 3023.dat
1 72 290 -24 290 1 0 0 0 1 0 0 0 1 3024.dat
1 72 320 -24 160 1 0 0 0 1 0 0 0 1 3022.dat
1 72 320 -24 250 1 0 0 0 1 0 0 0 1 3023.dat
1 72 340 -24 230 1 0 0 0 1 0 0 0 1 3023.dat
1 72 350 -24 190 0 0 1 0 1 0 -1 0 0 3623.dat
1 72 370 -24 200 0 0 1 0 1 0 -1 0 0 3023.dat
1 72 80 -32 190 0 0 1 0 1 0 -1 0 0 3021.dat
1 72 110 -32 150 1 0 0 0 1 0 0 0 1 3623.dat
1 72 90 -32 260 0 0 1 0 1 0 -1 0 0 3710.dat
1 72 110 -32 220 0 0 1 0 1 0 -1 0 0 3023.dat
1 72 140 -32 290 1 0 0 0 1 0 0 0 1 3710.dat
1 72 130 -32 120 0 0 1 0 1 0 -1 0 0 3023.dat
1 72 140 -32 270 1 0 0 0 1 0 0 0 1 3023.dat
1 72 170 -32 90 1 0 0 0 1 0 0 0 1 3623.dat
1 72 150 -32 110 1 0 0 0 1 0 0 0 1 3024.dat
1 72 190 -32 310 1 0 0 0 1 0 0 0 1 3623.dat
1 72 210 -32 100 0 0 1 0 1 0 -1 0 0 3023.dat
1 72 230 -32 290 1 0 0 0 1 0 0 0 1 3623.dat
1 72 260 -32 110 1 0 0 0 1 0 0 0 1 3710.dat
1 72 280 -32 290 1 0 0 0 1 0 0 0 1 3023.dat
1 72 310 -32 130 0 0 1 0 1 0 -1 0 0 3623.dat
1 72 330 -32 250 1 0 0 0 1 0 0 0 1 3623.dat
1 72 310 -32 270 1 0 0 0 1 0 0 0 1 3024.dat
1 72 340 -32 160 1 0 0 0 1 0 0 0 1 3022.dat
1 72 350 -32 230 1 0 0 0 1 0 0 0 1 3623.dat
1 72 370 -32 190 0 0 1 0 1 0 -1 0 0 3623.dat
1 72 80 -40 180 1 0 0 0 1 0 0 0 1 3022.dat
1 72 100 -40 150 1 0 0 0 1 0 0 0 1 3023.dat
1 72 100 -40 240 0 0 1 0 1 0 -1 0 0 3020.dat
1 72 160 -40 290 1 0 0 0 1 0 0 0 1 3460.dat
1 72 110 -40 170 1 0 0 0 1 0 0 0 1 3024.dat
1 72 140 -40 130 1 0 0 0 1 0 0 0 1 3023.dat
1 72 130 -40 150 1 0 0 0 1 0 0 0 1 3024.dat
1 72 130 -40 270 1 0 0 0 1 0 0 0 1 3024.dat
1 72 200 -40 100 1 0 0 0 1 0 0 0 1 3795.dat
1 72 150 -40 270 1 0 0 0 1 0 0 0 1 3024.dat
1 72 180 -40 310 1 0 0 0 1 0 0 0 1 3023.dat
1 72 210 -40 310 1 0 0 0 1 0 0 0 1 3070b.dat
1 72 270 -40 290 1 0 0 0 1 0 0 0 1 3623.dat
1 72 270 -40 100 0 0 1 0 1 0 -1 0 0 3023.dat
1 72 300 -40 110 1 0 0 0 1 0 0 0 1 3023.dat
1 72 310 -40 270 1 0 0 0 1 0 0 0 1 3623.dat
1 72 320 -40 140 1 0 0 0 1 0 0 0 1 3022.dat
1 72 350 -40 250 1 0 0 0 1 0 0 0 1 3623.dat
1 72 360 -40 160 1 0 0 0 1 0 0 0 1 3022.dat
1 72 380 -40 210 0 0 1 0 1 0 -1 0 0 3021.dat
1 72 390 -40 170 1 0 0 0 1 0 0 0 1 3024.dat
1 72 100 -48 180 1 0 0 0 1 0 0 0 1 3022.dat
1 72 100 -48 260 1 0 0 0 1 0 0 0 1 3022.dat
1 72 130 -48 150 1 0 0 0 1 0 0 0 1 3623.dat
1 72 120 -48 210 1 0 0 0 1 0 0 0 1 3023.dat
1 72 110 -48 230 1 0 0 0 1 0 0 0 1 3024.dat
1 72 150 -48 270 1 0 0 0 1 0 0 0 1 3623.dat
1 72 160 -48 120 1 0 0 0 1 0 0 0 1 3022.dat
1 72 240 -48 290 1 0 0 0 1 0 0 0 1 3460.dat
1 72 240 -48 90 1 0 0 0 1 0 0 0 1 3666.dat
1 72 190 -48 110 1 0 0 0 1 0 0 0 1 3024.dat
1 72 190 -48 310 1 0 0 0 1 0 0 0 1 3070b.dat
1 72 250 -48 310 1 0 0 0 1 0 0 0 1 3623.dat
1 72 290 -48 110 1 0 0 0 1 0 0 0 1 3623.dat
1 72 300 -48 270 1 0 0 0 1 0 0 0 1 3023.dat
1 72 320 -48 130 1 0 0 0 1 0 0 0 1 3023.dat
1 72 350 -48 150 1 0 0 0 1 0 0 0 1 3623.dat
1 72 340 -48 250 1 0 0 0 1 0 0 0 1 3023.dat
1 72 330 -48 270 1 0 0 0 1 0 0 0 1 3024.dat
1 72 380 -48 170 1 0 0 0 1 0 0 0 1 3023.dat
1 72 380 -48 230 1 0 0 0 1 0 0 0 1 3023.dat
1 72 370 -48 250 1 0 0 0 1 0 0 0 1 3024.dat
1 72 390 -48 200 0 0 1 0 1 0 -1 0 0 3023.dat
1 72 110 -56 200 0 0 1 0 1 0 -1 0 0 3666.dat
1 72 150 -56 150 1 0 0 0 1 0 0 0 1 3623.dat
1 72 130 -56 210 1 0 0 0 1 0 0 0 1 3024.dat
1 72 130 -56 260 0 0 1 0 1 0 -1 0 0 3023.dat
1 72 170 -56 270 1 0 0 0 1 0 0 0 1 3623.dat
1 72 180 -56 110 1 0 0 0 1 0 0 0 1 3023.dat
1 72 170 -56 130 1 0 0 0 1 0 0 0 1 3024.dat
1 72 200 -56 290 1 0 0 0 1 0 0 0 1 3710.dat
1 72 220 -56 90 1 0 0 0 1 0 0 0 1 3710.dat
1 72 240 -56 310 1 0 0 0 1 0 0 0 1 3710.dat
1 72 280 -56 90 1 0 0 0 1 0 0 0 1 3023.dat
1 72 290 -56 290 1 0 0 0 1 0 0 0 1 3623.dat
1 72 310 -56 110 1 0 0 0 1 0 0 0 1 3623.dat
1 72 320 -56 270 1 0 0 0 1 0 0 0 1 3023.dat
1 72 330 -56 140 0 0 1 0 1 0 -1 0 0 3023.dat
1 72 360 -56 250 1 0 0 0 1 0 0 0 1 3710.dat
1 72 360 -56 150 1 0 0 0 1 0 0 0 1 3023.dat
1 72 370 -56 170 1 0 0 0 1 0 0 0 1 3070b.dat
1 72 390 -56 200 0 0 1 0 1 0 -1 0 0 3710.dat
1 72 310 -64 290 1 0 0 0 1 0 0 0 1 3024.dat
1 72 330 -64 130 1 0 0 0 1 0 0 0 1 3024.dat
1 72 230 -64 310 1 0 0 0 1 0 0 0 1 3623.dat
1 72 260 -64 90 1 0 0 0 1 0 0 0 1 3710.dat
1 72 190 -64 110 1 0 0 0 1 0 0 0 1 3070b.dat
1 72 110 -64 230 0 0 1 0 1 0 -1 0 0 3623.dat
1 72 190 -64 280 0 0 1 0 1 0 -1 0 0 3023.dat
1 72 400 -64 230 1 0 0 0 1 0 0 0 1 3023.dat
1 72 350 -64 250 1 0 0 0 1 0 0 0 1 3623.dat
1 72 210 -64 290 1 0 0 0 1 0 0 0 1 3024.dat
1 72 140 -64 150 1 0 0 0 1 0 0 0 1 3710.dat
1 72 130 -64 250 1 0 0 0 1 0 0 0 1 3024.dat
1 72 170 -64 130 1 0 0 0 1 0 0 0 1 3024.dat
1 72 350 -64 150 1 0 0 0 1 0 0 0 1 3024.dat
1 72 110 -64 180 0 0 1 0 1 0 -1 0 0 3023.dat
1 72 170 -64 270 1 0 0 0 1 0 0 0 1 3024.dat
1 72 370 -64 150 1 0 0 0 1 0 0 0 1 3024.dat
1 72 290 -64 300 0 0 1 0 1 0 -1 0 0 3023.dat
1 72 130 -64 210 1 0 0 0 1 0 0 0 1 3070b.dat
1 72 400 -64 200 1 0 0 0 1 0 0 0 1 3022.dat
1 72 330 -64 150 1 0 0 0 1 0 0 0 1 3024.dat
1 72 320 -64 110 1 0 0 0 1 0 0 0 1 3023.dat
1 72 330 -64 270 1 0 0 0 1 0 0 0 1 3024.dat
1 72 270 -64 310 1 0 0 0 1 0 0 0 1 3024.dat
1 72 140 -64 270 1 0 0 0 1 0 0 0 1 3023.dat
1 72 310 -64 270 1 0 0 0 1 0 0 0 1 3024.dat
1 72 390 -64 170 1 0 0 0 1 0 0 0 1 3024.dat
1 72 210 -64 90 1 0 0 0 1 0 0 0 1 3024.dat
1 72 390 -64 250 1 0 0 0 1 0 0 0 1 3024.dat
1 72 170 -64 110 1 0 0 0 1 0 0 0 1 3024.dat
1 72 190 -64 90 1 0 0 0 1 0 0 0 1 3024.dat
1 72 100 -72 200 0 0 1 0 1 0 -1 0 0 3020.dat
1 72 130 -72 150 1 0 0 0 1 0 0 0 1 3623.dat
1 72 120 -72 250 1 0 0 0 1 0 0 0 1 3023.dat
1 72 150 -72 130 1 0 0 0 1 0 0 0 1 3623.dat
1 72 160 -72 270 1 0 0 0 1 0 0 0 1 3710.dat
1 72 220 -72 90 1 0 0 0 1 0 0 0 1 3666.dat
1 72 170 -72 110 1 0 0 0 1 0 0 0 1 3024.dat
1 72 170 -72 150 1 0 0 0 1 0 0 0 1 3070b.dat
1 72 200 -72 290 1 0 0 0 1 0 0 0 1 3023.dat
1 72 210 -72 70 1 0 0 0 1 0 0 0 1 3024.dat
1 72 240 -72 310 1 0 0 0 1 0 0 0 1 3710.dat
1 72 290 -72 100 0 0 1 0 1 0 -1 0 0 3023.dat
1 72 310 -72 290 1 0 0 0 1 0 0 0 1 3623.dat
1 72 290 -72 310 1 0 0 0 1 0 0 0 1 3024.dat
1 72 310 -72 110 1 0 0 0 1 0 0 0 1 3024.dat
1 72 330 -72 270 1 0 0 0 1 0 0 0 1 3623.dat
1 72 330 -72 130 0 0 1 0 1 0 -1 0 0 3623.dat
1 72 350 -72 140 0 0 1 0 1 0 -1 0 0 3023.dat
1 72 370 -72 250 1 0 0 0 1 0 0 0 1 3623.dat
1 72 380 -72 150 1 0 0 0 1 0 0 0 1 3023.dat
1 72 390 -72 180 0 0 1 0 1 0 -1 0 0 3023.dat
1 72 390 -72 230 1 0 0 0 1 0 0 0 1 3024.dat
1 72 410 -72 210 0 0 1 0 1 0 -1 0 0 3623.dat
1 72 80 -80 200 0 0 1 0 1 0 -1 0 0 3020.dat
1 72 110 -80 150 1 0 0 0 1 0 0 0 1 3623.dat
1 72 110 -80 170 1 0 0 0 1 0 0 0 1 3070b.dat
1 72 110 -80 240 0 0 1 0 1 0 -1 0 0 3023.dat
1 72 140 -80 130 1 0 0 0 1 0 0 0 1 3023.dat
1 72 130 -80 260 0 0 1 0 1 0 -1 0 0 3023.dat
1 72 170 -80 270 1 0 0 0 1 0 0 0 1 3623.dat
1 72 170 -80 110 0 0 1 0 1 0 -1 0 0 3623.dat
1 72 210 -80 70 1 0 0 0 1 0 0 0 1 3623.dat
1 72 190 -80 90 1 0 0 0 1 0 0 0 1 3024.dat
1 72 190 -80 290 1 0 0 0 1 0 0 0 1 3024.dat
1 72 210 -80 300 0 0 1 0 1 0 -1 0 0 3023.dat
1 72 260 -80 90 1 0 0 0 1 0 0 0 1 3710.dat
1 72 260 -80 310 1 0 0 0 1 0 0 0 1 3710.dat
1 72 310 -80 110 1 0 0 0 1 0 0 0 1 3623.dat
1 72 300 -80 290 1 0 0 0 1 0 0 0 1 3023.dat
1 72 340 -80 130 1 0 0 0 1 0 0 0 1 3023.dat
1 72 340 -80 270 1 0 0 0 1 0 0 0 1 3023.dat
1 72 330 -80 290 1 0 0 0 1 0 0 0 1 3024.dat
1 72 370 -80 160 1 0 0 0 1 0 0 0 1 3021.dat
1 72 360 -80 250 1 0 0 0 1 0 0 0 1 3023.dat
1 72 400 -80 230 1 0 0 0 1 0 0 0 1 3023.dat
1 72 390 -80 250 1 0 0 0 1 0 0 0 1 3024.dat
1 72 410 -80 200 0 0 1 0 1 0 -1 0 0 3023.dat
1 72 60 -88 200 1 0 0 0 1 0 0 0 1 3022.dat
1 72 80 -88 160 1 0 0 0 1 0 0 0 1 3022.dat
1 72 80 -88 240 1 0 0 0 1 0 0 0 1 3022.dat
1 72 140 -88 130 1 0 0 0 1 0 0 0 1 3710.dat
1 72 110 -88 150 1 0 0 0 1 0 0 0 1 3024.dat
1 72 120 -88 260 1 0 0 0 1 0 0 0 1 3022.dat
1 72 160 -88 270 1 0 0 0 1 0 0 0 1 3023.dat
1 72 180 -88 90 1 0 0 0 1 0 0 0 1 3023.dat
1 72 170 -88 110 1 0 0 0 1 0 0 0 1 3024.dat
1 72 220 -88 70 1 0 0 0 1 0 0 0 1 3710.dat
1 72 190 -88 290 0 0 1 0 1 0 -1 0 0 3623.dat
1 72 210 -88 290 1 0 0 0 1 0 0 0 1 3070b.dat
1 72 240 -88 310 1 0 0 0 1 0 0 0 1 3710.dat
1 72 250 -88 90 1 0 0 0 1 0 0 0 1 3623.dat
1 72 300 -88 90 1 0 0 0 1 0 0 0 1 3023.dat
1 72 310 -88 290 1 0 0 0 1 0 0 0 1 3623.dat
1 72 290 -88 310 1 0 0 0 1 0 0 0 1 3024.dat
1 72 320 -88 110 1 0 0 0 1 0 0 0 1 3023.dat
1 72 330 -88 130 1 0 0 0 1 0 0 0 1 3024.dat
1 72 330 -88 270 1 0 0 0 1 0 0 0 1 3024.dat
1 72 350 -88 150 0 0 1 0 1 0 -1 0 0 3623.dat
1 72 370 -88 250 1 0 0 0 1 0 0 0 1 3623.dat
1 72 350 -88 270 1 0 0 0 1 0 0 0 1 3024.dat
1 72 380 -88 170 1 0 0 0 1 0 0 0 1 3023.dat
1 72 390 -88 230 1 0 0 0 1 0 0 0 1 3024.dat
1 72 410 -88 210 0 0 1 0 1 0 -1 0 0 3623.dat
1 72 50 -96 200 0 0 1 0 1 0 -1 0 0 3710.dat
1 72 90 -96 150 1 0 0 0 1 0 0 0 1 3623.dat
1 72 70 -96 180 0 0 1 0 1 0 -1 0 0 3023.dat
1 72 70 -96 240 0 0 1 0 1 0 -1 0 0 3023.dat
1 72 120 -96 130 1 0 0 0 1 0 0 0 1 3710.dat
1 72 100 -96 260 1 0 0 0 1 0 0 0 1 3022.dat
1 72 160 -96 270 1 0 0 0 1 0 0 0 1 3710.dat
1 72 170 -96 110 0 0 1 0 1 0 -1 0 0 3623.dat
1 72 210 -96 70 1 0 0 0 1 0 0 0 1 3623.dat
1 72 190 -96 90 1 0 0 0 1 0 0 0 1 3024.dat
1 72 190 -96 300 0 0 1 0 1 0 -1 0 0 3023.dat
1 72 230 -96 310 1 0 0 0 1 0 0 0 1 3623.dat
1 72 260 -96 90 1 0 0 0 1 0 0 0 1 3710.dat
1 72 250 -96 70 1 0 0 0 1 0 0 0 1 3024.dat
1 72 280 -96 310 1 0 0 0 1 0 0 0 1 3023.dat
1 72 300 -96 290 1 0 0 0 1 0 0 0 1 3023.dat
1 72 310 -96 100 0 0 1 0 1 0 -1 0 0 3023.dat
1 72 330 -96 120 0 0 1 0 1 0 -1 0 0 3023.dat
1 72 340 -96 270 1 0 0 0 1 0 0 0 1 3023.dat
1 72 330 -96 290 1 0 0 0 1 0 0 0 1 3024.dat
1 72 350 -96 140 0 0 1 0 1 0 -1 0 0 3023.dat
1 72 370 -96 170 1 0 0 0 1 0 0 0 1 3623.dat
1 72 370 -96 240 1 0 0 0 1 0 0 0 1 3021.dat
1 72 400 -96 190 1 0 0 0 1 0 0 0 1 3023.dat
1 72 410 -96 220 0 0 1 0 1 0 -1 0 0 3023.dat
1 72 50 -104 200 0 0 1 0 1 0 -1 0 0 3666.dat
1 72 120 -104 130 1 0 0 0 1 0 0 0 1 3666.dat
1 72 80 -104 150 1 0 0 0 1 0 0 0 1 3023.dat
1 72 70 -104 170 1 0 0 0 1 0 0 0 1 3070b.dat
1 72 70 -104 250 0 0 1 0 1 0 -1 0 0 3623.dat
1 72 90 -104 260 0 0 1 0 1 0 -1 0 0 3023.dat
1 72 140 -104 270 1 0 0 0 1 0 0 0 1 3710.dat
1 72 180 -104 90 1 0 0 0 1 0 0 0 1 3023.dat
1 72 170 -104 110 1 0 0 0 1 0 0 0 1 3024.dat
1 72 220 -104 70 1 0 0 0 1 0 0 0 1 3710.dat
1 72 190 -104 290 0 0 1 0 1 0 -1 0 0 3623.dat
1 72 240 -104 310 1 0 0 0 1 0 0 0 1 3710.dat
1 72 280 -104 90 1 0 0 0 1 0 0 0 1 3710.dat
1 72 310 -104 290 1 0 0 0 1 0 0 0 1 3623.dat
1 72 290 -104 310 1 0 0 0 1 0 0 0 1 3024.dat
1 72 320 -104 110 1 0 0 0 1 0 0 0 1 3023.dat
1 72 340 -104 130 1 0 0 0 1 0 0 0 1 3023.dat
1 72 330 -104 270 1 0 0 0 1 0 0 0 1 3024.dat
1 72 350 -104 160 0 0 1 0 1 0 -1 0 0 3023.dat
1 72 350 -104 260 0 0 1 0 1 0 -1 0 0 3023.dat
1 72 380 -104 180 1 0 0 0 1 0 0 0 1 3022.dat
1 72 390 -104 230 1 0 0 0 1 0 0 0 1 3623.dat
1 72 400 -104 210 1 0 0 0 1 0 0 0 1 3023.dat
1 72 410 -104 190 1 0 0 0 1 0 0 0 1 3070b.dat
1 72 40 -112 190 0 0 1 0 1 0 -1 0 0 3021.dat
1 72 60 -112 150 1 0 0 0 1 0 0 0 1 3023.dat
1 72 50 -112 240 0 0 1 0 1 0 -1 0 0 3023.dat
1 72 100 -112 130 1 0 0 0 1 0 0 0 1 3710.dat
1 72 70 -112 260 0 0 1 0 1 0 -1 0 0 3023.dat
1 72 140 -112 270 1 0 0 0 1 0 0 0 1 3666.dat
1 72 160 -112 120 1 0 0 0 1 0 0 0 1 3022.dat
1 72 200 -112 70 1 0 0 0 1 0 0 0 1 3710.dat
1 72 170 -112 90 1 0 0 0 1 0 0 0 1 3024.dat
1 72 180 -112 290 1 0 0 0 1 0 0 0 1 3023.dat
1 72 240 -112 310 1 0 0 0 1 0 0 0 1 3666.dat
1 72 250 -112 80 0 0 1 0 1 0 -1 0 0 3023.dat
1 72 290 -112 90 1 0 0 0 1 0 0 0 1 3623.dat
1 72 310 -112 110 1 0 0 0 1 0 0 0 1 3024.dat
1 72 320 -112 290 1 0 0 0 1 0 0 0 1 3023.dat
1 72 310 -112 310 1 0 0 0 1 0 0 0 1 3024.dat
1 72 330 -112 120 0 0 1 0 1 0 -1 0 0 3023.dat
1 72 340 -112 270 1 0 0 0 1 0 0 0 1 3023.dat
1 72 350 -112 140 0 0 1 0 1 0 -1 0 0 3023.dat
1 72 350 -112 250 1 0 0 0 1 0 0 0 1 3024.dat
1 72 370 -112 200 0 0 1 0 1 0 -1 0 0 3710.dat
1 72 390 -112 210 0 0 1 0 1 0 -1 0 0 63864.dat
1 72 30 -120 200 0 0 1 0 1 0 -1 0 0 3710.dat
1 72 50 -120 160 0 0 1 0 1 0 -1 0 0 3023.dat
1 72 50 -120 250 0 0 1 0 1 0 -1 0 0 3623.dat
1 72 90 -120 130 1 0 0 0 1 0 0 0 1 3623.dat
1 72 70 -120 150 1 0 0 0 1 0 0 0 1 3070b.dat
1 72 120 -120 270 1 0 0 0 1 0 0 0 1 3666.dat
1 72 140 -120 290 1 0 0 0 1 0 0 0 1 3666.dat
1 72 140 -120 130 1 0 0 0 1 0 0 0 1 3023.dat
1 72 160 -120 110 1 0 0 0 1 0 0 0 1 3023.dat
1 72 190 -120 70 1 0 0 0 1 0 0 0 1 3623.dat
1 72 170 -120 90 1 0 0 0 1 0 0 0 1 3024.dat
1 72 220 -120 310 1 0 0 0 1 0 0 0 1 3710.dat
1 72 240 -120 70 1 0 0 0 1 0 0 0 1 3023.dat
1 72 280 -120 90 1 0 0 0 1 0 0 0 1 3023.dat
1 72 290 -120 310 1 0 0 0 1 0 0 0 1 3623.dat
1 72 320 -120 110 1 0 0 0 1 0 0 0 1 3023.dat
1 72 310 -120 290 1 0 0 0 1 0 0 0 1 3024.dat
1 72 340 -120 130 1 0 0 0 1 0 0 0 1 3023.dat
1 72 330 -120 280 0 0 1 0 1 0 -1 0 0 3023.dat
1 72 360 -120 150 1 0 0 0 1 0 0 0 1 3023.dat
1 72 360 -120 250 1 0 0 0 1 0 0 0 1 3023.dat
1 72 350 -120 270 1 0 0 0 1 0 0 0 1 3024.dat
1 72 370 -120 190 0 0 1 0 1 0 -1 0 0 3623.dat
1 72 370 -120 230 1 0 0 0 1 0 0 0 1 3024.dat
1 72 40 -128 250 1 0 0 0 1 0 0 0 1 3023.dat
1 72 100 -128 130 1 0 0 0 1 0 0 0 1 3666.dat
1 72 120 -128 110 1 0 0 0 1 0 0 0 1 3710.dat
1 72 270 -128 90 1 0 0 0 1 0 0 0 1 3623.dat
1 72 30 -128 190 0 0 1 0 1 0 -1 0 0 3623.dat
1 72 30 -128 230 1 0 0 0 1 0 0 0 1 3024.dat
1 72 50 -128 170 1 0 0 0 1 0 0 0 1 3070b.dat
1 72 70 -128 270 1 0 0 0 1 0 0 0 1 3623.dat
1 72 120 -128 290 1 0 0 0 1 0 0 0 1 3710.dat
1 72 150 -128 270 1 0 0 0 1 0 0 0 1 3623.dat
1 72 200 -128 70 1 0 0 0 1 0 0 0 1 3710.dat
1 72 170 -128 100 0 0 1 0 1 0 -1 0 0 3023.dat
1 72 180 -128 290 1 0 0 0 1 0 0 0 1 3023.dat
1 72 240 -128 310 1 0 0 0 1 0 0 0 1 3666.dat
1 72 250 -128 70 1 0 0 0 1 0 0 0 1 3024.dat
1 72 310 -128 110 1 0 0 0 1 0 0 0 1 3024.dat
1 72 320 -128 290 1 0 0 0 1 0 0 0 1 3023.dat
1 72 310 -128 310 1 0 0 0 1 0 0 0 1 3024.dat
1 72 330 -128 120 0 0 1 0 1 0 -1 0 0 3023.dat
1 72 340 -128 270 1 0 0 0 1 0 0 0 1 3023.dat
1 72 350 -128 140 0 0 1 0 1 0 -1 0 0 3023.dat
1 72 350 -128 250 1 0 0 0 1 0 0 0 1 3024.dat
1 72 370 -128 200 0 0 1 0 1 0 -1 0 0 3666.dat
1 72 30 -136 200 0 0 1 0 1 0 -1 0 0 3666.dat
1 72 70 -136 130 1 0 0 0 1 0 0 0 1 3623.dat
1 72 50 -136 260 0 0 1 0 1 0 -1 0 0 3023.dat
1 72 70 -136 280 0 0 1 0 1 0 -1 0 0 3023.dat
1 72 110 -136 110 1 0 0 0 1 0 0 0 1 3623.dat
1 72 140 -136 290 1 0 0 0 1 0 0 0 1 3666.dat
1 72 140 -136 270 1 0 0 0 1 0 0 0 1 3023.dat
1 72 160 -136 110 1 0 0 0 1 0 0 0 1 3023.dat
1 72 190 -136 70 1 0 0 0 1 0 0 0 1 3623.dat
1 72 170 -136 90 1 0 0 0 1 0 0 0 1 3024.dat
1 72 170 -136 270 1 0 0 0 1 0 0 0 1 3024.dat
1 72 220 -136 310 1 0 0 0 1 0 0 0 1 3710.dat
1 72 240 -136 70 1 0 0 0 1 0 0 0 1 3023.dat
1 72 260 -136 90 1 0 0 0 1 0 0 0 1 3023.dat
1 72 290 -136 310 1 0 0 0 1 0 0 0 1 3623.dat
1 72 290 -136 90 1 0 0 0 1 0 0 0 1 3024.dat
1 72 310 -136 290 1 0 0 0 1 0 0 0 1 3623.dat
1 72 320 -136 110 1 0 0 0 1 0 0 0 1 3023.dat
1 72 340 -136 130 1 0 0 0 1 0 0 0 1 3023.dat
1 72 330 -136 270 1 0 0 0 1 0 0 0 1 3024.dat
1 72 360 -136 150 1 0 0 0 1 0 0 0 1 3023.dat
1 72 360 -136 250 1 0 0 0 1 0 0 0 1 3023.dat
1 72 350 -136 270 1 0 0 0 1 0 0 0 1 3024.dat
1 72 370 -136 200 0 0 1 0 1 0 -1 0 0 3710.dat
1 72 30 -144 180 0 0 1 0 1 0 -1 0 0 3710.dat
1 72 30 -144 240 0 0 1 0 1 0 -1 0 0 3023.dat
1 72 60 -144 130 1 0 0 0 1 0 0 0 1 3023.dat
1 72 50 -144 250 1 0 0 0 1 0 0 0 1 3024.dat
1 72 60 -144 270 1 0 0 0 1 0 0 0 1 3023.dat
1 72 120 -144 290 1 0 0 0 1 0 0 0 1 3666.dat
1 72 120 -144 110 1 0 0 0 1 0 0 0 1 3710.dat
1 72 90 -144 130 1 0 0 0 1 0 0 0 1 3024.dat
1 72 160 -144 270 1 0 0 0 1 0 0 0 1 3023.dat
1 72 200 -144 70 1 0 0 0 1 0 0 0 1 3710.dat
1 72 170 -144 100 0 0 1 0 1 0 -1 0 0 3023.dat
1 72 190 -144 300 0 0 1 0 1 0 -1 0 0 3023.dat
1 72 240 -144 310 1 0 0 0 1 0 0 0 1 3710.dat
1 72 250 -144 80 0 0 1 0 1 0 -1 0 0 3023.dat
1 72 280 -144 90 1 0 0 0 1 0 0 0 1 3023.dat
1 72 300 -144 290 1 0 0 0 1 0 0 0 1 3023.dat
1 72 290 -144 310 1 0 0 0 1 0 0 0 1 3024.dat
1 72 310 -144 110 1 0 0 0 1 0 0 0 1 3024.dat
1 72 330 -144 120 0 0 1 0 1 0 -1 0 0 3023.dat
1 72 340 -144 270 1 0 0 0 1 0 0 0 1 3023.dat
1 72 330 -144 290 1 0 0 0 1 0 0 0 1 3024.dat
1 72 350 -144 140 0 0 1 0 1 0 -1 0 0 3023.dat
1 72 350 -144 250 1 0 0 0 1 0 0 0 1 3024.dat
1 72 370 -144 200 0 0 1 0 1 0 -1 0 0 3666.dat
1 72 20 -152 210 1 0 0 0 1 0 0 0 1 3023.dat
1 72 30 -152 170 0 0 1 0 1 0 -1 0 0 3623.dat
1 72 30 -152 230 1 0 0 0 1 0 0 0 1 3024.dat
1 72 40 -152 250 1 0 0 0 1 0 0 0 1 3023.dat
1 72 70 -152 130 1 0 0 0 1 0 0 0 1 3623.dat
1 72 50 -152 270 1 0 0 0 1 0 0 0 1 3024.dat
1 72 70 -152 280 0 0 1 0 1 0 -1 0 0 3023.dat
1 72 110 -152 110 1 0 0 0 1 0 0 0 1 3623.dat
1 72 140 -152 290 1 0 0 0 1 0 0 0 1 3666.dat
1 72 140 -152 270 1 0 0 0 1 0 0 0 1 3023.dat
1 72 160 -152 110 1 0 0 0 1 0 0 0 1 3023.dat
1 72 180 -152 90 1 0 0 0 1 0 0 0 1 3023.dat
1 72 220 -152 70 1 0 0 0 1 0 0 0 1 3710.dat
1 72 240 -152 310 1 0 0 0 1 0 0 0 1 3666.dat
1 72 270 -152 90 1 0 0 0 1 0 0 0 1 3623.dat
1 72 310 -152 110 1 0 0 0 1 0 0 0 1 3623.dat
1 72 310 -152 290 1 0 0 0 1 0 0 0 1 3623.dat
1 72 340 -152 130 1 0 0 0 1 0 0 0 1 3023.dat
1 72 330 -152 270 1 0 0 0 1 0 0 0 1 3024.dat
1 72 360 -152 150 1 0 0 0 1 0 0 0 1 3023.dat
1 72 350 -152 250 0 0 1 0 1 0 -1 0 0 3623.dat
1 72 370 -152 200 0 0 1 0 1 0 -1 0 0 3710.dat
1 72 10 -160 210 1 0 0 0 1 0 0 0 1 3070b.dat
1 72 30 -160 200 0 0 1 0 1 0 -1 0 0 3666.dat
1 72 60 -160 130 1 0 0 0 1 0 0 0 1 3023.dat
1 72 50 -160 260 0 0 1 0 1 0 -1 0 0 3023.dat
1 72 70 -160 270 1 0 0 0 1 0 0 0 1 3024.dat
1 72 120 -160 290 1 0 0 0 1 0 0 0 1 3666.dat
1 72 120 -160 110 1 0 0 0 1 0 0 0 1 3710.dat
1 72 90 -160 130 1 0 0 0 1 0 0 0 1 3024.dat
1 72 130 -160 270 1 0 0 0 1 0 0 0 1 3024.dat
1 72 150 -160 270 1 0 0 0 1 0 0 0 1 3024.dat
1 72 220 -160 90 1 0 0 0 1 0 0 0 1 3666.dat
1 72 170 -160 110 1 0 0 0 1 0 0 0 1 3024.dat
1 72 210 -160 70 1 0 0 0 1 0 0 0 1 63864.dat
1 72 190 -160 300 0 0 1 0 1 0 -1 0 0 3023.dat
1 72 240 -160 310 1 0 0 0 1 0 0 0 1 3710.dat
1 72 250 -160 70 1 0 0 0 1 0 0 0 1 3070b.dat
1 72 290 -160 100 0 0 1 0 1 0 -1 0 0 3023.dat
1 72 300 -160 290 1 0 0 0 1 0 0 0 1 3023.dat
1 72 290 -160 310 1 0 0 0 1 0 0 0 1 3070b.dat
1 72 320 -160 110 1 0 0 0 1 0 0 0 1 3023.dat
1 72 330 -160 130 1 0 0 0 1 0 0 0 1 3024.dat
1 72 340 -160 270 1 0 0 0 1 0 0 0 1 3023.dat
1 72 330 -160 290 1 0 0 0 1 0 0 0 1 3024.dat
1 72 350 -160 150 0 0 1 0 1 0 -1 0 0 3623.dat
1 72 360 -160 230 1 0 0 0 1 0 0 0 1 3023.dat
1 72 350 -160 250 1 0 0 0 1 0 0 0 1 3024.dat
1 72 370 -160 190 0 0 1 0 1 0 -1 0 0 3623.dat
1 72 30 -168 180 0 0 1 0 1 0 -1 0 0 3710.dat
1 72 30 -168 240 0 0 1 0 1 0 -1 0 0 3023.dat
1 72 70 -168 130 1 0 0 0 1 0 0 0 1 3623.dat
1 72 50 -168 250 1 0 0 0 1 0 0 0 1 3024.dat
1 72 70 -168 270 1 0 0 0 1 0 0 0 1 3623.dat
1 72 140 -168 110 1 0 0 0 1 0 0 0 1 3666.dat
1 72 140 -168 290 1 0 0 0 1 0 0 0 1 3666.dat
1 72 140 -168 270 1 0 0 0 1 0 0 0 1 3023.dat
1 72 240 -168 90 1 0 0 0 1 0 0 0 1 3666.dat
1 72 220 -168 310 1 0 0 0 1 0 0 0 1 3710.dat
1 72 210 -168 290 1 0 0 0 1 0 0 0 1 3024.dat
1 72 300 -168 110 1 0 0 0 1 0 0 0 1 3710.dat
1 72 300 -168 290 1 0 0 0 1 0 0 0 1 3710.dat
1 72 270 -168 310 1 0 0 0 1 0 0 0 1 3024.dat
1 72 340 -168 130 1 0 0 0 1 0 0 0 1 3023.dat
1 72 330 -168 270 1 0 0 0 1 0 0 0 1 3024.dat
1 72 350 -168 160 0 0 1 0 1 0 -1 0 0 3023.dat
1 72 350 -168 250 0 0 1 0 1 0 -1 0 0 3623.dat
1 72 370 -168 200 0 0 1 0 1 0 -1 0 0 3710.dat
1 72 20 -176 210 1 0 0 0 1 0 0 0 1 3023.dat
1 72 30 -176 170 0 0 1 0 1 0 -1 0 0 3623.dat
1 72 30 -176 230 1 0 0 0 1 0 0 0 1 3024.dat
1 72 40 -176 250 1 0 0 0 1 0 0 0 1 3023.dat
1 72 80 -176 130 1 0 0 0 1 0 0 0 1 3710.dat
1 72 50 -176 150 1 0 0 0 1 0 0 0 1 3024.dat
1 72 100 -176 270 1 0 0 0 1 0 0 0 1 3666.dat
1 72 160 -176 110 1 0 0 0 1 0 0 0 1 3460.dat
1 72 160 -176 290 1 0 0 0 1 0 0 0 1 3460.dat
1 72 230 -176 90 1 0 0 0 1 0 0 0 1 63864.dat
1 72 240 -176 310 1 0 0 0 1 0 0 0 1 2431.dat
1 72 280 -176 110 1 0 0 0 1 0 0 0 1 3710.dat
1 72 280 -176 290 1 0 0 0 1 0 0 0 1 3710.dat
1 72 330 -176 130 1 0 0 0 1 0 0 0 1 3623.dat
1 72 330 -176 270 1 0 0 0 1 0 0 0 1 3623.dat
1 72 350 -176 150 1 0 0 0 1 0 0 0 1 3024.dat
1 72 360 -176 170 1 0 0 0 1 0 0 0 1 3023.dat
1 72 360 -176 230 1 0 0 0 1 0 0 0 1 3023.dat
1 72 350 -176 250 1 0 0 0 1 0 0 0 1 3024.dat
1 72 370 -176 200 0 0 1 0 1 0 -1 0 0 3023.dat
1 72 180 -184 280 1 0 0 0 1 0 0 0 1 3022.dat
1 72 340 -184 250 1 0 0 0 1 0 0 0 1 3023.dat
1 72 360 -184 200 1 0 0 0 1 0 0 0 1 3022.dat
1 72 30 -184 200 0 0 1 0 1 0 -1 0 0 3666.dat
1 72 70 -184 130 1 0 0 0 1 0 0 0 1 3623.dat
1 72 50 -184 150 1 0 0 0 1 0 0 0 1 3024.dat
1 72 50 -184 260 0 0 1 0 1 0 -1 0 0 3023.dat
1 72 100 -184 270 1 0 0 0 1 0 0 0 1 3710.dat
1 72 110 -184 290 1 0 0 0 1 0 0 0 1 63864.dat
1 72 180 -184 110 1 0 0 0 1 0 0 0 1 3460.dat
1 72 110 -184 130 1 0 0 0 1 0 0 0 1 3024.dat
1 72 150 -184 270 1 0 0 0 1 0 0 0 1 3024.dat
1 72 260 -184 290 1 0 0 0 1 0 0 0 1 3666.dat
1 72 290 -184 110 1 0 0 0 1 0 0 0 1 3623.dat
1 72 320 -184 130 1 0 0 0 1 0 0 0 1 3023.dat
1 72 320 -184 270 1 0 0 0 1 0 0 0 1 3023.dat
1 72 350 -184 150 0 0 1 0 1 0 -1 0 0 3623.dat
1 72 350 -184 230 1 0 0 0 1 0 0 0 1 3024.dat
1 72 30 -192 180 0 0 1 0 1 0 -1 0 0 3710.dat
1 72 30 -192 240 0 0 1 0 1 0 -1 0 0 3023.dat
1 72 60 -192 150 1 0 0 0 1 0 0 0 1 3023.dat
1 72 50 -192 170 1 0 0 0 1 0 0 0 1 3024.dat
1 72 50 -192 250 1 0 0 0 1 0 0 0 1 3024.dat
1 72 120 -192 270 1 0 0 0 1 0 0 0 1 3460.dat
1 72 90 -192 130 1 0 0 0 1 0 0 0 1 3623.dat
1 72 160 -192 110 1 0 0 0 1 0 0 0 1 3666.dat
1 72 240 -192 290 1 0 0 0 1 0 0 0 1 3666.dat
1 72 210 -192 270 1 0 0 0 1 0 0 0 1 3024.dat
1 72 260 -192 110 1 0 0 0 1 0 0 0 1 3710.dat
1 72 280 -192 270 1 0 0 0 1 0 0 0 1 3710.dat
1 72 310 -192 130 1 0 0 0 1 0 0 0 1 3623.dat
1 72 310 -192 110 1 0 0 0 1 0 0 0 1 3070b.dat
1 72 310 -192 290 1 0 0 0 1 0 0 0 1 3070b.dat
1 72 340 -192 150 1 0 0 0 1 0 0 0 1 3023.dat
1 72 330 -192 260 0 0 1 0 1 0 -1 0 0 3023.dat
1 72 350 -192 200 0 0 1 0 1 0 -1 0 0 3710.dat
1 72 350 -192 250 1 0 0 0 1 0 0 0 1 3024.dat
1 72 30 -200 200 0 0 1 0 1 0 -1 0 0 3710.dat
1 72 40 -200 250 1 0 0 0 1 0 0 0 1 3023.dat
1 72 50 -200 160 0 0 1 0 1 0 -1 0 0 3023.dat
1 72 100 -200 270 1 0 0 0 1 0 0 0 1 3666.dat
1 72 120 -200 130 1 0 0 0 1 0 0 0 1 3666.dat
1 72 70 -200 150 1 0 0 0 1 0 0 0 1 3024.dat
1 72 200 -200 110 1 0 0 0 1 0 0 0 1 3460.dat
1 72 190 -200 270 1 0 0 0 1 0 0 0 1 3623.dat
1 72 240 -200 290 1 0 0 0 1 0 0 0 1 3710.dat
1 72 270 -200 270 1 0 0 0 1 0 0 0 1 3623.dat
1 72 300 -200 130 1 0 0 0 1 0 0 0 1 3710.dat
1 72 320 -200 270 1 0 0 0 1 0 0 0 1 3023.dat
1 72 330 -200 150 1 0 0 0 1 0 0 0 1 3024.dat
1 72 340 -200 250 1 0 0 0 1 0 0 0 1 3023.dat
1 72 350 -200 180 0 0 1 0 1 0 -1 0 0 3710.dat
1 72 350 -200 230 1 0 0 0 1 0 0 0 1 3024.dat
1 72 310 -208 270 1 0 0 0 1 0 0 0 1 3024.dat
1 72 210 -208 130 1 0 0 0 1 0 0 0 1 3623.dat
1 72 20 -208 210 1 0 0 0 1 0 0 0 1 3023.dat
1 72 220 -208 110 1 0 0 0 1 0 0 0 1 3710.dat
1 72 330 -208 250 0 0 1 0 1 0 -1 0 0 3623.dat
1 72 60 -208 150 1 0 0 0 1 0 0 0 1 3023.dat
1 72 240 -208 290 1 0 0 0 1 0 0 0 1 3069b.dat
1 72 350 -208 170 0 0 1 0 1 0 -1 0 0 3623.dat
1 72 180 -208 270 1 0 0 0 1 0 0 0 1 3460.dat
1 72 330 -208 150 0 0 1 0 1 0 -1 0 0 3623.dat
1 72 310 -208 140 0 0 1 0 1 0 -1 0 0 3023.dat
1 72 140 -208 130 1 0 0 0 1 0 0 0 1 3710.dat
1 72 30 -208 260 0 0 1 0 1 0 -1 0 0 3710.dat
1 72 60 -208 280 1 0 0 0 1 0 0 0 1 3022.dat
1 72 90 -208 130 1 0 0 0 1 0 0 0 1 3024.dat
1 72 70 -208 130 1 0 0 0 1 0 0 0 1 3070b.dat
1 72 50 -208 170 1 0 0 0 1 0 0 0 1 3024.dat
1 72 270 -208 120 0 0 1 0 1 0 -1 0 0 3023.dat
1 72 290 -208 270 1 0 0 0 1 0 0 0 1 3024.dat
1 72 30 -208 190 1 0 0 0 1 0 0 0 1 3024.dat
1 72 30 -208 170 1 0 0 0 1 0 0 0 1 3024.dat
1 72 170 -208 110 1 0 0 0 1 0 0 0 1 3070b.dat
1 72 350 -208 230 1 0 0 0 1 0 0 0 1 3024.dat
1 72 50 -208 250 1 0 0 0 1 0 0 0 1 3070b.dat
1 72 270 -208 270 1 0 0 0 1 0 0 0 1 3024.dat
1 72 350 -208 210 1 0 0 0 1 0 0 0 1 3024.dat
1 72 290 -208 130 1 0 0 0 1 0 0 0 1 3024.dat
1 72 90 -208 270 1 0 0 0 1 0 0 0 1 3024.dat
1 72 10 -216 240 0 0 1 0 1 0 -1 0 0 3666.dat
1 72 40 -216 170 1 0 0 0 1 0 0 0 1 3023.dat
1 72 30 -216 190 1 0 0 0 1 0 0 0 1 3024.dat
1 72 30 -216 250 0 0 1 0 1 0 -1 0 0 63864.dat
1 72 60 -216 290 1 0 0 0 1 0 0 0 1 3710.dat
1 72 70 -216 150 1 0 0 0 1 0 0 0 1 3623.dat
1 72 60 -216 310 1 0 0 0 1 0 0 0 1 3023.dat
1 72 140 -216 270 1 0 0 0 1 0 0 0 1 3460.dat
1 72 160 -216 130 1 0 0 0 1 0 0 0 1 3460.dat
1 72 140 -216 250 1 0 0 0 1 0 0 0 1 3710.dat
1 72 190 -216 250 1 0 0 0 1 0 0 0 1 3024.dat
1 72 250 -216 110 1 0 0 0 1 0 0 0 1 63864.dat
1 72 260 -216 270 1 0 0 0 1 0 0 0 1 3710.dat
1 72 280 -216 130 1 0 0 0 1 0 0 0 1 3710.dat
1 72 320 -216 150 1 0 0 0 1 0 0 0 1 3023.dat
1 72 320 -216 250 1 0 0 0 1 0 0 0 1 3023.dat
1 72 310 -216 270 1 0 0 0 1 0 0 0 1 3024.dat
1 72 340 -216 200 0 0 1 0 1 0 -1 0 0 3020.dat
1 72 10 -224 220 0 0 1 0 1 0 -1 0 0 3710.dat
1 72 10 -224 280 0 0 1 0 1 0 -1 0 0 3023.dat
1 72 30 -224 180 0 0 1 0 1 0 -1 0 0 3023.dat
1 72 50 -224 290 1 0 0 0 1 0 0 0 1 3623.dat
1 72 60 -224 150 1 0 0 0 1 0 0 0 1 3023.dat
1 72 50 -224 170 1 0 0 0 1 0 0 0 1 3070b.dat
1 72 50 -224 310 1 0 0 0 1 0 0 0 1 3024.dat
1 72 70 -224 310 1 0 0 0 1 0 0 0 1 3024.dat
1 72 140 -224 130 1 0 0 0 1 0 0 0 1 3666.dat
1 72 90 -224 150 1 0 0 0 1 0 0 0 1 3024.dat
1 72 100 -224 270 1 0 0 0 1 0 0 0 1 3023.dat
1 72 90 -224 290 1 0 0 0 1 0 0 0 1 3024.dat
1 72 130 -224 250 1 0 0 0 1 0 0 0 1 3623.dat
1 72 180 -224 250 1 0 0 0 1 0 0 0 1 3023.dat
1 72 240 -224 270 1 0 0 0 1 0 0 0 1 3666.dat
1 72 260 -224 130 1 0 0 0 1 0 0 0 1 3666.dat
1 72 310 -224 150 1 0 0 0 1 0 0 0 1 3623.dat
1 72 310 -224 260 0 0 1 0 1 0 -1 0 0 3023.dat
1 72 330 -224 200 0 0 1 0 1 0 -1 0 0 3710.dat
1 72 330 -224 250 1 0 0 0 1 0 0 0 1 3070b.dat
1 72 10 -232 220 0 0 1 0 1 0 -1 0 0 3666.dat
1 72 60 -232 150 1 0 0 0 1 0 0 0 1 3710.dat
1 72 110 -232 150 1 0 0 0 1 0 0 0 1 3024.dat
1 72 130 -232 240 0 0 1 0 1 0 -1 0 0 3023.dat
1 72 180 -232 150 1 0 0 0 1 0 0 0 1 3710.dat
1 72 180 -232 240 1 0 0 0 1 0 0 0 1 3022.dat
1 72 210 -232 260 0 0 1 0 1 0 -1 0 0 3023.dat
1 72 230 -232 150 1 0 0 0 1 0 0 0 1 3024.dat
1 72 300 -232 250 1 0 0 0 1 0 0 0 1 3023.dat
1 72 320 -232 170 1 0 0 0 1 0 0 0 1 3023.dat
1 72 320 -232 230 1 0 0 0 1 0 0 0 1 3023.dat
1 72 30 -232 290 1 0 0 0 1 0 0 0 1 3623.dat
1 72 60 -232 310 1 0 0 0 1 0 0 0 1 3023.dat
1 72 90 -232 280 0 0 1 0 1 0 -1 0 0 3023.dat
1 72 180 -232 130 1 0 0 0 1 0 0 0 1 4162.dat
1 72 110 -232 260 0 0 1 0 1 0 -1 0 0 3023.dat
1 72 150 -232 250 1 0 0 0 1 0 0 0 1 3024.dat
1 72 260 -232 270 1 0 0 0 1 0 0 0 1 3710.dat
1 72 280 -232 130 1 0 0 0 1 0 0 0 1 3023.dat
1 72 300 -232 150 1 0 0 0 1 0 0 0 1 3023.dat
1 72 330 -232 200 0 0 1 0 1 0 -1 0 0 3023.dat
1 72 50 -240 310 1 0 0 0 1 0 0 0 1 3623.dat
1 72 200 -240 150 1 0 0 0 1 0 0 0 1 3460.dat
1 72 180 -240 230 1 0 0 0 1 0 0 0 1 3710.dat
1 72 190 -240 170 1 0 0 0 1 0 0 0 1 3623.dat
1 72 180 -240 210 1 0 0 0 1 0 0 0 1 3023.dat
1 72 250 -240 260 1 0 0 0 1 0 0 0 1 3021.dat
1 72 300 -240 170 1 0 0 0 1 0 0 0 1 3023.dat
1 72 300 -240 240 1 0 0 0 1 0 0 0 1 3022.dat
1 72 320 -240 200 1 0 0 0 1 0 0 0 1 3022.dat
1 72 10 -240 240 0 0 1 0 1 0 -1 0 0 3666.dat
1 72 50 -240 150 1 0 0 0 1 0 0 0 1 3623.dat
1 72 40 -240 290 1 0 0 0 1 0 0 0 1 3023.dat
1 72 100 -240 150 1 0 0 0 1 0 0 0 1 3023.dat
1 72 100 -240 270 1 0 0 0 1 0 0 0 1 3023.dat
1 72 90 -240 290 1 0 0 0 1 0 0 0 1 3024.dat
1 72 130 -240 250 1 0 0 0 1 0 0 0 1 3623.dat
1 72 130 -240 230 1 0 0 0 1 0 0 0 1 3024.dat
1 72 200 -240 250 1 0 0 0 1 0 0 0 1 3023.dat
1 72 270 -240 130 1 0 0 0 1 0 0 0 1 3070b.dat
1 72 290 -240 150 1 0 0 0 1 0 0 0 1 3024.dat
1 72 310 -240 150 1 0 0 0 1 0 0 0 1 3070b.dat
1 72 10 -248 220 0 0 1 0 1 0 -1 0 0 3710.dat
1 72 10 -248 280 0 0 1 0 1 0 -1 0 0 3023.dat
1 72 80 -248 150 1 0 0 0 1 0 0 0 1 3666.dat
1 72 30 -248 300 0 0 1 0 1 0 -1 0 0 3023.dat
1 72 60 -248 310 1 0 0 0 1 0 0 0 1 3023.dat
1 72 80 -248 290 1 0 0 0 1 0 0 0 1 3023.dat
1 72 90 -248 270 1 0 0 0 1 0 0 0 1 3024.dat
1 72 120 -248 250 1 0 0 0 1 0 0 0 1 3023.dat
1 72 110 -248 270 1 0 0 0 1 0 0 0 1 3024.dat
1 72 200 -248 170 1 0 0 0 1 0 0 0 1 3460.dat
1 72 160 -248 220 1 0 0 0 1 0 0 0 1 3020.dat
1 72 150 -248 150 1 0 0 0 1 0 0 0 1 3070b.dat
1 72 180 -248 190 1 0 0 0 1 0 0 0 1 3710.dat
1 72 240 -248 150 1 0 0 0 1 0 0 0 1 3710.dat
1 72 210 -248 230 0 0 1 0 1 0 -1 0 0 3623.dat
1 72 230 -248 240 0 0 1 0 1 0 -1 0 0 3023.dat
1 72 270 -248 250 1 0 0 0 1 0 0 0 1 3623.dat
1 72 290 -248 180 0 0 1 0 1 0 -1 0 0 3710.dat
1 72 300 -248 230 1 0 0 0 1 0 0 0 1 3023.dat
1 72 310 -248 190 0 0 1 0 1 0 -1 0 0 63864.dat
1 72 10 -256 240 0 0 1 0 1 0 -1 0 0 3666.dat
1 72 60 -256 150 1 0 0 0 1 0 0 0 1 3710.dat
1 72 30 -256 180 0 0 1 0 1 0 -1 0 0 3023.dat
1 72 30 -256 290 0 0 1 0 1 0 -1 0 0 3623.dat
1 72 50 -256 310 1 0 0 0 1 0 0 0 1 3024.dat
1 72 70 -256 300 0 0 1 0 1 0 -1 0 0 3023.dat
1 72 100 -256 270 1 0 0 0 1 0 0 0 1 3023.dat
1 72 90 -256 290 1 0 0 0 1 0 0 0 1 3024.dat
1 72 110 -256 160 0 0 1 0 1 0 -1 0 0 3023.dat
1 72 110 -256 250 1 0 0 0 1 0 0 0 1 3024.dat
1 72 140 -256 190 0 0 1 0 1 0 -1 0 0 3021.dat
1 72 130 -256 240 0 0 1 0 1 0 -1 0 0 3023.dat
1 72 240 -256 200 1 0 0 0 1 0 0 0 1 3031.dat
1 72 250 -256 250 1 0 0 0 1 0 0 0 1 63864.dat
1 72 260 -256 150 1 0 0 0 1 0 0 0 1 3069b.dat
1 72 290 -256 200 0 0 1 0 1 0 -1 0 0 2431.dat
1 72 10 -264 220 0 0 1 0 1 0 -1 0 0 3710.dat
1 72 20 -264 270 1 0 0 0 1 0 0 0 1 3023.dat
1 72 40 -264 170 1 0 0 0 1 0 0 0 1 3023.dat
1 72 30 -264 190 1 0 0 0 1 0 0 0 1 3024.dat
1 72 30 -264 300 0 0 1 0 1 0 -1 0 0 3023.dat
1 72 80 -264 150 1 0 0 0 1 0 0 0 1 3710.dat
1 72 60 -264 310 1 0 0 0 1 0 0 0 1 3023.dat
1 72 80 -264 290 1 0 0 0 1 0 0 0 1 3023.dat
1 72 90 -264 270 1 0 0 0 1 0 0 0 1 3024.dat
1 72 120 -264 170 1 0 0 0 1 0 0 0 1 3023.dat
1 72 120 -264 250 1 0 0 0 1 0 0 0 1 3023.dat
1 72 110 -264 270 1 0 0 0 1 0 0 0 1 3024.dat
1 72 130 -264 210 0 0 1 0 1 0 -1 0 0 3623.dat
1 72 250 -264 200 1 0 0 0 1 0 0 0 1 26603.dat
1 72 260 -264 230 1 0 0 0 1 0 0 0 1 3069b.dat
1 72 30 -272 260 0 0 1 0 1 0 -1 0 0 3710.dat
1 72 60 -272 300 1 0 0 0 1 0 0 0 1 3022.dat
1 72 100 -272 260 1 0 0 0 1 0 0 0 1 3022.dat
1 72 120 -272 230 1 0 0 0 1 0 0 0 1 3023.dat
1 72 10 -272 210 0 0 1 0 1 0 -1 0 0 3623.dat
1 72 10 -272 260 0 0 1 0 1 0 -1 0 0 3023.dat
1 72 30 -272 180 0 0 1 0 1 0 -1 0 0 3023.dat
1 72 70 -272 150 1 0 0 0 1 0 0 0 1 3623.dat
1 72 50 -272 170 1 0 0 0 1 0 0 0 1 3024.dat
1 72 90 -272 290 1 0 0 0 1 0 0 0 1 3070b.dat
1 72 110 -272 160 0 0 1 0 1 0 -1 0 0 3023.dat
1 72 130 -272 190 0 0 1 0 1 0 -1 0 0 3623.dat
1 72 20 -280 240 0 0 1 0 1 0 -1 0 0 3020.dat
1 72 40 -280 170 1 0 0 0 1 0 0 0 1 3023.dat
1 72 30 -280 190 1 0 0 0 1 0 0 0 1 3024.dat
1 72 50 -280 290 1 0 0 0 1 0 0 0 1 3623.dat
1 72 80 -280 150 1 0 0 0 1 0 0 0 1 3710.dat
1 72 80 -280 270 1 0 0 0 1 0 0 0 1 3023.dat
1 72 100 -280 250 1 0 0 0 1 0 0 0 1 3023.dat
1 72 120 -280 170 1 0 0 0 1 0 0 0 1 3023.dat
1 72 120 -280 220 1 0 0 0 1 0 0 0 1 3022.dat
1 72 130 -280 190 1 0 0 0 1 0 0 0 1 3024.dat
1 72 80 -288 140 1 0 0 0 1 0 0 0 1 3022.dat
1 72 110 -288 170 1 0 0 0 1 0 0 0 1 3623.dat
1 72 10 -288 230 0 0 1 0 1 0 -1 0 0 3623.dat
1 72 30 -288 190 0 0 1 0 1 0 -1 0 0 3623.dat
1 72 30 -288 270 0 0 1 0 1 0 -1 0 0 3623.dat
1 72 50 -288 160 0 0 1 0 1 0 -1 0 0 3023.dat
1 72 60 -288 290 1 0 0 0 1 0 0 0 1 3023.dat
1 72 70 -288 270 1 0 0 0 1 0 0 0 1 3024.dat
1 72 90 -288 260 0 0 1 0 1 0 -1 0 0 3023.dat
1 72 110 -288 230 0 0 1 0 1 0 -1 0 0 3623.dat
1 72 130 -288 200 0 0 1 0 1 0 -1 0 0 3023.dat
1 72 10 -296 220 0 0 1 0 1 0 -1 0 0 3710.dat
1 72 40 -296 170 1 0 0 0 1 0 0 0 1 3023.dat
1 72 30 -296 190 1 0 0 0 1 0 0 0 1 3024.dat
1 72 30 -296 260 0 0 1 0 1 0 -1 0 0 3023.dat
1 72 70 -296 140 1 0 0 0 1 0 0 0 1 3021.dat
1 72 60 -296 280 1 0 0 0 1 0 0 0 1 3022.dat
1 72 80 -296 110 1 0 0 0 1 0 0 0 1 3023.dat
1 72 100 -296 170 1 0 0 0 1 0 0 0 1 3023.dat
1 72 100 -296 250 1 0 0 0 1 0 0 0 1 3023.dat
1 72 90 -296 270 1 0 0 0 1 0 0 0 1 3024.dat
1 72 120 -296 210 1 0 0 0 1 0 0 0 1 3023.dat
1 72 110 -296 230 1 0 0 0 1 0 0 0 1 3024.dat
1 72 130 -296 180 0 0 1 0 1 0 -1 0 0 3023.dat
1 72 30 -304 250 0 0 1 0 1 0 -1 0 0 3623.dat
1 72 70 -304 100 1 0 0 0 1 0 0 0 1 3021.dat
1 72 70 -304 70 1 0 0 0 1 0 0 0 1 3024.dat
1 72 140 -304 170 0 0 1 0 1 0 -1 0 0 3021.dat
1 72 10 -304 210 0 0 1 0 1 0 -1 0 0 3623.dat
1 72 30 -304 180 0 0 1 0 1 0 -1 0 0 3023.dat
1 72 70 -304 130 1 0 0 0 1 0 0 0 1 3623.dat
1 72 50 -304 160 0 0 1 0 1 0 -1 0 0 3023.dat
1 72 70 -304 270 1 0 0 0 1 0 0 0 1 3623.dat
1 72 90 -304 160 0 0 1 0 1 0 -1 0 0 3023.dat
1 72 90 -304 250 1 0 0 0 1 0 0 0 1 3024.dat
1 72 110 -304 170 1 0 0 0 1 0 0 0 1 3024.dat
1 72 110 -304 230 0 0 1 0 1 0 -1 0 0 3623.dat
1 72 130 -304 210 1 0 0 0 1 0 0 0 1 3024.dat
1 72 20 -312 220 1 0 0 0 1 0 0 0 1 3022.dat
1 72 40 -312 180 1 0 0 0 1 0 0 0 1 3022.dat
1 72 60 -312 250 1 0 0 0 1 0 0 0 1 3710.dat
1 72 50 -312 120 0 0 1 0 1 0 -1 0 0 3710.dat
1 72 60 -312 270 1 0 0 0 1 0 0 0 1 3069b.dat
1 72 70 -312 70 0 0 1 0 1 0 -1 0 0 3623.dat
1 72 90 -312 120 0 0 1 0 1 0 -1 0 0 3666.dat
1 72 90 -312 270 1 0 0 0 1 0 0 0 1 3070b.dat
1 72 140 -312 160 1 0 0 0 1 0 0 0 1 3020.dat
1 72 120 -312 210 1 0 0 0 1 0 0 0 1 3023.dat
1 72 110 -312 240 0 0 1 0 1 0 -1 0 0 3023.dat
1 72 140 -312 190 1 0 0 0 1 0 0 0 1 3023.dat
1 72 80 -320 190 1 0 0 0 1 0 0 0 1 3666.dat
1 72 40 -320 220 1 0 0 0 1 0 0 0 1 3022.dat
1 72 50 -320 140 0 0 1 0 1 0 -1 0 0 3710.dat
1 72 80 -320 250 1 0 0 0 1 0 0 0 1 2431.dat
1 72 80 -320 60 0 0 1 0 1 0 -1 0 0 3020.dat
1 72 80 -320 110 1 0 0 0 1 0 0 0 1 3023.dat
1 72 120 -320 160 1 0 0 0 1 0 0 0 1 3795.dat
1 72 90 -320 230 1 0 0 0 1 0 0 0 1 3623.dat
1 72 90 -320 130 1 0 0 0 1 0 0 0 1 3024.dat
1 72 100 -320 210 1 0 0 0 1 0 0 0 1 3023.dat
1 72 150 -320 190 1 0 0 0 1 0 0 0 1 3024.dat
1 72 190 -320 160 0 0 1 0 1 0 -1 0 0 3023.dat
1 72 70 -328 100 1 0 0 0 1 0 0 0 1 3021.dat
1 72 50 -328 150 0 0 1 0 1 0 -1 0 0 3623.dat
1 72 70 -328 220 1 0 0 0 1 0 0 0 1 26603.dat
1 72 80 -328 50 0 0 1 0 1 0 -1 0 0 3021.dat
1 72 140 -328 150 1 0 0 0 1 0 0 0 1 3460.dat
1 72 100 -328 180 1 0 0 0 1 0 0 0 1 3020.dat
1 72 90 -328 130 1 0 0 0 1 0 0 0 1 3024.dat
1 72 170 -328 130 1 0 0 0 1 0 0 0 1 3623.dat
1 72 170 -328 170 1 0 0 0 1 0 0 0 1 3623.dat
1 72 150 -328 190 1 0 0 0 1 0 0 0 1 3024.dat
1 72 60 -336 120 0 0 1 0 1 0 -1 0 0 3020.dat
1 72 80 -336 40 1 0 0 0 1 0 0 0 1 3022.dat
1 72 80 -336 70 1 0 0 0 1 0 0 0 1 3023.dat
1 72 90 -336 110 0 0 1 0 1 0 -1 0 0 3623.dat
1 72 140 -336 160 1 0 0 0 1 0 0 0 1 3020.dat
1 72 130 -336 190 1 0 0 0 1 0 0 0 1 3623.dat
1 72 180 -336 130 1 0 0 0 1 0 0 0 1 3710.dat
1 72 200 -336 150 1 0 0 0 1 0 0 0 1 3023.dat
1 72 190 -336 170 1 0 0 0 1 0 0 0 1 3070b.dat
1 72 60 -344 100 0 0 1 0 1 0 -1 0 0 3020.dat
1 72 80 -344 30 0 0 1 0 1 0 -1 0 0 3021.dat
1 72 90 -344 100 0 0 1 0 1 0 -1 0 0 3710.dat
1 72 130 -344 180 1 0 0 0 1 0 0 0 1 3021.dat
1 72 160 -344 150 1 0 0 0 1 0 0 0 1 3710.dat
1 72 170 -344 130 1 0 0 0 1 0 0 0 1 3623.dat
1 72 170 -344 170 1 0 0 0 1 0 0 0 1 3024.dat
1 72 210 -344 130 0 0 1 0 1 0 -1 0 0 3623.dat
1 72 230 -344 130 1 0 0 0 1 0 0 0 1 3024.dat
1 72 60 -352 80 0 0 1 0 1 0 -1 0 0 3020.dat
1 72 210 -352 120 1 0 0 0 1 0 0 0 1 3021.dat
1 72 60 -352 130 1 0 0 0 1 0 0 0 1 3069b.dat
1 72 80 -352 20 1 0 0 0 1 0 0 0 1 3022.dat
1 72 90 -352 80 0 0 1 0 1 0 -1 0 0 3710.dat
1 72 150 -352 160 1 0 0 0 1 0 0 0 1 3021.dat
1 72 130 -352 190 1 0 0 0 1 0 0 0 1 3070b.dat
1 72 160 -352 130 1 0 0 0 1 0 0 0 1 3023.dat
1 72 200 -352 150 1 0 0 0 1 0 0 0 1 3023.dat
1 72 70 -360 60 1 0 0 0 1 0 0 0 1 3021.dat
1 72 60 -360 100 1 0 0 0 1 0 0 0 1 3022.dat
1 72 80 -360 10 1 0 0 0 1 0 0 0 1 3023.dat
1 72 80 -360 30 1 0 0 0 1 0 0 0 1 3023.dat
1 72 90 -360 90 1 0 0 0 1 0 0 0 1 3070b.dat
1 72 160 -360 150 1 0 0 0 1 0 0 0 1 3710.dat
1 72 150 -360 170 1 0 0 0 1 0 0 0 1 3623.dat
1 72 180 -360 130 1 0 0 0 1 0 0 0 1 3710.dat
1 72 210 -360 110 1 0 0 0 1 0 0 0 1 3623.dat
1 72 230 -360 130 1 0 0 0 1 0 0 0 1 3070b.dat
1 72 220 -368 100 1 0 0 0 1 0 0 0 1 3022.dat
1 72 60 -368 70 0 0 1 0 1 0 -1 0 0 3021.dat
1 72 80 -368 20 1 0 0 0 1 0 0 0 1 3022.dat
1 72 90 -368 50 1 0 0 0 1 0 0 0 1 3024.dat
1 72 170 -368 140 1 0 0 0 1 0 0 0 1 3021.dat
1 72 160 -368 170 1 0 0 0 1 0 0 0 1 3023.dat
1 72 190 -368 110 1 0 0 0 1 0 0 0 1 3024.dat
1 72 210 -368 130 1 0 0 0 1 0 0 0 1 3024.dat
1 72 70 -376 40 1 0 0 0 1 0 0 0 1 3021.dat
1 72 60 -376 70 1 0 0 0 1 0 0 0 1 3069b.dat
1 72 80 -376 10 1 0 0 0 1 0 0 0 1 3023.dat
1 72 160 -376 150 0 0 1 0 1 0 -1 0 0 3021.dat
1 72 200 -376 120 1 0 0 0 1 0 0 0 1 3022.dat
1 72 190 -376 150 1 0 0 0 1 0 0 0 1 3024.dat
1 72 220 -376 90 1 0 0 0 1 0 0 0 1 3023.dat
1 72 230 -376 110 1 0 0 0 1 0 0 0 1 3024.dat
1 72 60 -384 40 1 0 0 0 1 0 0 0 1 3022.dat
1 72 70 -384 10 1 0 0 0 1 0 0 0 1 3070b.dat
1 72 90 -384 20 0 0 1 0 1 0 -1 0 0 3069b.dat
1 72 180 -384 140 1 0 0 0 1 0 0 0 1 3022.dat
1 72 210 -384 110 1 0 0 0 1 0 0 0 1 3623.dat
1 72 210 -384 90 1 0 0 0 1 0 0 0 1 3024.dat
1 72 210 -384 130 1 0 0 0 1 0 0 0 1 3024.dat
1 72 230 -384 90 1 0 0 0 1 0 0 0 1 3024.dat
1 72 70 -392 30 1 0 0 0 1 0 0 0 1 3070b.dat
1 72 190 -392 130 1 0 0 0 1 0 0 0 1 3623.dat
1 72 180 -392 150 1 0 0 0 1 0 0 0 1 3069b.dat
1 72 200 -392 110 1 0 0 0 1 0 0 0 1 3023.dat
1 72 220 -392 90 1 0 0 0 1 0 0 0 1 3069b.dat
1 72 230 -392 110 1 0 0 0 1 0 0 0 1 3070b.dat
1 72 200 -400 120 1 0 0 0 1 0 0 0 1 3022.dat
1 72 210 -408 120 0 0 1 0 1 0 -1 0 0 3069b.dat
