0 BrickForgerAI Stability Heatmap - bunny
0 Name: BrickForgerAI Stability Heatmap - bunny.ldr
0 Author: BrickForgerAI
0 !LDRAW_ORG Unofficial_Model
0 BFC CERTIFY CCW
0 // Generated by BrickForgerAI (core/brickforge). Do not hand-edit.

1 14 240 -72 310 1 0 0 0 1 0 0 0 1 3010.dat
1 2 400 -80 230 1 0 0 0 1 0 0 0 1 3004.dat
1 2 170 -80 110 1 0 0 0 1 0 0 0 1 3005.dat
1 2 310 -88 290 1 0 0 0 1 0 0 0 1 3622.dat
1 2 370 -88 250 1 0 0 0 1 0 0 0 1 3622.dat
1 2 410 -88 200 0 0 1 0 1 0 -1 0 0 3004.dat
1 2 260 -96 90 1 0 0 0 1 0 0 0 1 3010.dat
1 2 340 -96 270 1 0 0 0 1 0 0 0 1 3004.dat
1 14 220 -104 70 1 0 0 0 1 0 0 0 1 3010.dat
1 2 320 -120 110 1 0 0 0 1 0 0 0 1 3004.dat
1 2 340 -120 130 1 0 0 0 1 0 0 0 1 3004.dat
1 2 200 -128 70 1 0 0 0 1 0 0 0 1 3010.dat
1 14 240 -128 310 1 0 0 0 1 0 0 0 1 3009.dat
1 2 370 -128 200 0 0 1 0 1 0 -1 0 0 3010.dat
1 2 140 -136 290 1 0 0 0 1 0 0 0 1 3009.dat
1 2 170 -136 100 0 0 1 0 1 0 -1 0 0 3004.dat
1 2 280 -136 90 1 0 0 0 1 0 0 0 1 3004.dat
1 2 360 -136 150 1 0 0 0 1 0 0 0 1 3004.dat
1 2 360 -136 250 1 0 0 0 1 0 0 0 1 3004.dat
1 2 120 -144 110 1 0 0 0 1 0 0 0 1 3010.dat
1 2 250 -144 80 0 0 1 0 1 0 -1 0 0 3004.dat
1 2 320 -144 110 1 0 0 0 1 0 0 0 1 3004.dat
1 2 340 -144 130 1 0 0 0 1 0 0 0 1 3004.dat
1 2 340 -144 270 1 0 0 0 1 0 0 0 1 3004.dat
1 2 70 -152 130 1 0 0 0 1 0 0 0 1 3622.dat
1 2 50 -152 150 1 0 0 0 1 0 0 0 1 3005.dat
1 2 50 -152 260 0 0 1 0 1 0 -1 0 0 3004.dat
1 2 70 -152 280 0 0 1 0 1 0 -1 0 0 3004.dat
1 14 240 -152 310 1 0 0 0 1 0 0 0 1 3009.dat
1 2 310 -152 290 1 0 0 0 1 0 0 0 1 3622.dat
1 2 140 -160 290 1 0 0 0 1 0 0 0 1 3009.dat
1 2 140 -168 270 1 0 0 0 1 0 0 0 1 3004.dat
1 2 340 -168 130 1 0 0 0 1 0 0 0 1 3004.dat
1 2 340 -168 270 1 0 0 0 1 0 0 0 1 3004.dat
1 2 50 -176 150 1 0 0 0 1 0 0 0 1 3005.dat
1 2 50 -176 260 0 0 1 0 1 0 -1 0 0 3004.dat
1 2 350 -176 160 0 0 1 0 1 0 -1 0 0 3004.dat
1 2 30 -248 170 1 0 0 0 1 0 0 0 1 3005.dat
1 2 10 -256 240 0 0 1 0 1 0 -1 0 0 3009.dat
1 2 100 -256 270 1 0 0 0 1 0 0 0 1 3004.dat
1 2 60 -264 310 1 0 0 0 1 0 0 0 1 3004.dat
1 14 80 -264 290 1 0 0 0 1 0 0 0 1 3004.dat
1 2 120 -264 250 1 0 0 0 1 0 0 0 1 3004.dat
1 2 80 -280 150 1 0 0 0 1 0 0 0 1 3010.dat
1 2 120 -280 170 1 0 0 0 1 0 0 0 1 3004.dat
1 14 80 -368 20 1 0 0 0 1 0 0 0 1 3003.dat
1 14 220 -392 90 1 0 0 0 1 0 0 0 1 3004.dat
1 2 100 -8 160 1 0 0 0 1 0 0 0 1 3020.dat
1 14 120 -8 190 1 0 0 0 1 0 0 0 1 3666.dat
1 2 90 -8 210 1 0 0 0 1 0 0 0 1 3623.dat
1 2 120 -8 240 1 0 0 0 1 0 0 0 1 3020.dat
1 2 120 -8 270 1 0 0 0 1 0 0 0 1 3710.dat
1 2 130 -8 130 1 0 0 0 1 0 0 0 1 3623.dat
1 2 110 -8 290 1 0 0 0 1 0 0 0 1 3024.dat
1 2 200 -8 110 1 0 0 0 1 0 0 0 1 3460.dat
1 2 170 -8 90 1 0 0 0 1 0 0 0 1 3623.dat
1 2 150 -8 160 0 0 1 0 1 0 -1 0 0 3023.dat
1 2 160 -8 210 1 0 0 0 1 0 0 0 1 3023.dat
1 2 170 -8 250 0 0 1 0 1 0 -1 0 0 3623.dat
1 2 240 -8 130 1 0 0 0 1 0 0 0 1 3710.dat
1 2 260 -8 190 0 0 1 0 1 0 -1 0 0 3021.dat
1 14 280 -8 150 1 0 0 0 1 0 0 0 1 3023.dat
1 2 280 -8 230 1 0 0 0 1 0 0 0 1 3023.dat
1 2 270 -8 270 1 0 0 0 1 0 0 0 1 3024.dat
1 2 290 -8 130 1 0 0 0 1 0 0 0 1 3024.dat
1 2 300 -8 170 1 0 0 0 1 0 0 0 1 3023.dat
1 2 310 -8 190 1 0 0 0 1 0 0 0 1 3024.dat
1 2 80 -16 260 1 0 0 0 1 0 0 0 1 3022.dat
1 2 160 -16 290 1 0 0 0 1 0 0 0 1 3460.dat
1 2 220 -16 130 1 0 0 0 1 0 0 0 1 3666.dat
1 2 190 -16 310 1 0 0 0 1 0 0 0 1 3623.dat
1 2 210 -16 100 0 0 1 0 1 0 -1 0 0 3023.dat
1 2 260 -16 270 1 0 0 0 1 0 0 0 1 3666.dat
1 2 280 -16 230 1 0 0 0 1 0 0 0 1 3710.dat
1 2 270 -16 290 1 0 0 0 1 0 0 0 1 3623.dat
1 2 290 -16 250 1 0 0 0 1 0 0 0 1 3623.dat
1 2 290 -16 160 0 0 1 0 1 0 -1 0 0 3666.dat
1 2 310 -16 180 0 0 1 0 1 0 -1 0 0 3710.dat
1 2 340 -16 190 0 0 1 0 1 0 -1 0 0 3021.dat
1 14 330 -16 230 1 0 0 0 1 0 0 0 1 3024.dat
1 2 70 -16 180 0 0 1 0 1 0 -1 0 0 3710.dat
1 2 100 -16 150 1 0 0 0 1 0 0 0 1 3023.dat
1 2 90 -16 220 0 0 1 0 1 0 -1 0 0 3023.dat
1 2 130 -16 130 1 0 0 0 1 0 0 0 1 3623.dat
1 14 130 -16 190 1 0 0 0 1 0 0 0 1 3623.dat
1 2 140 -16 270 1 0 0 0 1 0 0 0 1 3710.dat
1 2 160 -16 110 1 0 0 0 1 0 0 0 1 3710.dat
1 2 150 -16 250 1 0 0 0 1 0 0 0 1 3623.dat
1 2 170 -16 90 1 0 0 0 1 0 0 0 1 3623.dat
1 2 150 -16 150 1 0 0 0 1 0 0 0 1 3024.dat
1 2 160 -16 220 1 0 0 0 1 0 0 0 1 3022.dat
1 2 250 -16 110 1 0 0 0 1 0 0 0 1 3623.dat
1 14 260 -16 190 0 0 1 0 1 0 -1 0 0 3021.dat
1 14 270 -16 150 1 0 0 0 1 0 0 0 1 3024.dat
1 2 140 -24 150 1 0 0 0 1 0 0 0 1 3460.dat
1 2 70 -24 190 0 0 1 0 1 0 -1 0 0 3623.dat
1 2 80 -24 260 1 0 0 0 1 0 0 0 1 3022.dat
1 2 90 -24 220 0 0 1 0 1 0 -1 0 0 3023.dat
1 2 120 -24 290 1 0 0 0 1 0 0 0 1 3710.dat
1 2 180 -24 130 1 0 0 0 1 0 0 0 1 3460.dat
1 2 140 -24 110 1 0 0 0 1 0 0 0 1 3023.dat
1 2 180 -24 90 1 0 0 0 1 0 0 0 1 3710.dat
1 14 200 -24 170 1 0 0 0 1 0 0 0 1 3666.dat
1 2 200 -24 270 1 0 0 0 1 0 0 0 1 3666.dat
1 2 200 -24 220 1 0 0 0 1 0 0 0 1 3031.dat
1 14 170 -24 300 0 0 1 0 1 0 -1 0 0 3023.dat
1 2 200 -24 310 1 0 0 0 1 0 0 0 1 3023.dat
1 2 240 -24 110 1 0 0 0 1 0 0 0 1 3710.dat
1 2 240 -24 290 1 0 0 0 1 0 0 0 1 3710.dat
1 14 250 -24 150 1 0 0 0 1 0 0 0 1 3623.dat
1 2 250 -24 220 0 0 1 0 1 0 -1 0 0 3710.dat
1 2 290 -24 130 1 0 0 0 1 0 0 0 1 3623.dat
1 14 270 -24 170 1 0 0 0 1 0 0 0 1 3024.dat
1 2 270 -24 240 0 0 1 0 1 0 -1 0 0 3023.dat
1 2 290 -24 110 1 0 0 0 1 0 0 0 1 3024.dat
1 2 300 -24 270 1 0 0 0 1 0 0 0 1 3023.dat
1 2 290 -24 290 1 0 0 0 1 0 0 0 1 3024.dat
1 2 320 -24 160 1 0 0 0 1 0 0 0 1 3022.dat
1 2 320 -24 250 1 0 0 0 1 0 0 0 1 3023.dat
1 14 340 -24 230 1 0 0 0 1 0 0 0 1 3023.dat
1 2 350 -24 190 0 0 1 0 1 0 -1 0 0 3623.dat
1 14 370 -24 200 0 0 1 0 1 0 -1 0 0 3023.dat
1 2 80 -32 190 0 0 1 0 1 0 -1 0 0 3021.dat
1 2 110 -32 150 1 0 0 0 1 0 0 0 1 3623.dat
1 2 90 -32 260 0 0 1 0 1 0 -1 0 0 3710.dat
1 14 110 -32 220 0 0 1 0 1 0 -1 0 0 3023.dat
1 2 140 -32 290 1 0 0 0 1 0 0 0 1 3710.dat
1 2 130 -32 120 0 0 1 0 1 0 -1 0 0 3023.dat
1 2 140 -32 270 1 0 0 0 1 0 0 0 1 3023.dat
1 2 180 -32 90 1 0 0 0 1 0 0 0 1 3710.dat
1 2 150 -32 110 1 0 0 0 1 0 0 0 1 3024.dat
1 14 190 -32 310 1 0 0 0 1 0 0 0 1 3623.dat
1 2 260 -32 110 1 0 0 0 1 0 0 0 1 3666.dat
1 2 240 -32 290 1 0 0 0 1 0 0 0 1 3710.dat
1 2 290 -32 290 1 0 0 0 1 0 0 0 1 3024.dat
1 2 310 -32 140 0 0 1 0 1 0 -1 0 0 3023.dat
1 2 330 -32 250 1 0 0 0 1 0 0 0 1 3623.dat
1 2 310 -32 270 1 0 0 0 1 0 0 0 1 3024.dat
1 2 340 -32 160 1 0 0 0 1 0 0 0 1 3022.dat
1 14 350 -32 230 1 0 0 0 1 0 0 0 1 3623.dat
1 14 370 -32 190 0 0 1 0 1 0 -1 0 0 3623.dat
1 2 80 -40 180 1 0 0 0 1 0 0 0 1 3022.dat
1 2 110 -40 150 1 0 0 0 1 0 0 0 1 3623.dat
1 14 100 -40 240 0 0 1 0 1 0 -1 0 0 3020.dat
1 2 160 -40 290 1 0 0 0 1 0 0 0 1 3460.dat
1 14 110 -40 170 1 0 0 0 1 0 0 0 1 3024.dat
1 2 140 -40 130 1 0 0 0 1 0 0 0 1 3023.dat
1 2 140 -40 270 1 0 0 0 1 0 0 0 1 3023.dat
1 2 200 -40 100 1 0 0 0 1 0 0 0 1 3795.dat
1 14 190 -40 310 1 0 0 0 1 0 0 0 1 3623.dat
1 2 270 -40 290 1 0 0 0 1 0 0 0 1 3623.dat
1 2 270 -40 100 0 0 1 0 1 0 -1 0 0 3023.dat
1 2 300 -40 110 1 0 0 0 1 0 0 0 1 3023.dat
1 2 310 -40 270 1 0 0 0 1 0 0 0 1 3623.dat
1 2 320 -40 140 1 0 0 0 1 0 0 0 1 3022.dat
1 2 350 -40 250 1 0 0 0 1 0 0 0 1 3623.dat
1 2 360 -40 160 1 0 0 0 1 0 0 0 1 3022.dat
1 14 380 -40 210 0 0 1 0 1 0 -1 0 0 3021.dat
1 14 390 -40 170 1 0 0 0 1 0 0 0 1 3024.dat
1 14 100 -48 180 1 0 0 0 1 0 0 0 1 3022.dat
1 2 100 -48 260 1 0 0 0 1 0 0 0 1 3022.dat
1 2 130 -48 150 1 0 0 0 1 0 0 0 1 3623.dat
1 14 120 -48 210 1 0 0 0 1 0 0 0 1 3023.dat
1 2 110 -48 230 1 0 0 0 1 0 0 0 1 3024.dat
1 2 150 -48 270 1 0 0 0 1 0 0 0 1 3623.dat
1 2 160 -48 120 1 0 0 0 1 0 0 0 1 3022.dat
1 2 240 -48 290 1 0 0 0 1 0 0 0 1 3460.dat
1 2 240 -48 90 1 0 0 0 1 0 0 0 1 3666.dat
1 2 190 -48 110 1 0 0 0 1 0 0 0 1 3024.dat
1 14 190 -48 310 1 0 0 0 1 0 0 0 1 3024.dat
1 14 250 -48 310 1 0 0 0 1 0 0 0 1 3623.dat
1 2 290 -48 110 1 0 0 0 1 0 0 0 1 3623.dat
1 2 310 -48 270 1 0 0 0 1 0 0 0 1 3623.dat
1 2 320 -48 130 1 0 0 0 1 0 0 0 1 3023.dat
1 2 350 -48 150 1 0 0 0 1 0 0 0 1 3623.dat
1 2 350 -48 250 1 0 0 0 1 0 0 0 1 3623.dat
1 14 380 -48 170 1 0 0 0 1 0 0 0 1 3023.dat
1 2 380 -48 230 1 0 0 0 1 0 0 0 1 3023.dat
1 2 390 -48 200 0 0 1 0 1 0 -1 0 0 3023.dat
1 2 110 -56 200 0 0 1 0 1 0 -1 0 0 3666.dat
1 2 150 -56 150 1 0 0 0 1 0 0 0 1 3623.dat
1 14 130 -56 210 1 0 0 0 1 0 0 0 1 3024.dat
1 2 130 -56 260 0 0 1 0 1 0 -1 0 0 3023.dat
1 2 170 -56 270 1 0 0 0 1 0 0 0 1 3623.dat
1 14 180 -56 110 1 0 0 0 1 0 0 0 1 3023.dat
1 2 170 -56 130 1 0 0 0 1 0 0 0 1 3024.dat
1 2 200 -56 290 1 0 0 0 1 0 0 0 1 3710.dat
1 2 240 -56 90 1 0 0 0 1 0 0 0 1 3666.dat
1 2 290 -56 290 1 0 0 0 1 0 0 0 1 3623.dat
1 2 310 -56 110 1 0 0 0 1 0 0 0 1 3623.dat
1 2 320 -56 270 1 0 0 0 1 0 0 0 1 3023.dat
1 2 330 -56 140 0 0 1 0 1 0 -1 0 0 3023.dat
1 2 360 -56 250 1 0 0 0 1 0 0 0 1 3710.dat
1 2 360 -56 150 1 0 0 0 1 0 0 0 1 3023.dat
1 2 380 -56 170 1 0 0 0 1 0 0 0 1 3023.dat
1 2 390 -56 210 0 0 1 0 1 0 -1 0 0 3623.dat
1 2 310 -64 290 1 0 0 0 1 0 0 0 1 3024.dat
1 2 330 -64 140 0 0 1 0 1 0 -1 0 0 3023.dat
1 2 260 -64 90 1 0 0 0 1 0 0 0 1 3710.dat
1 14 190 -64 110 1 0 0 0 1 0 0 0 1 3024.dat
1 2 110 -64 230 0 0 1 0 1 0 -1 0 0 3623.dat
1 2 190 -64 280 0 0 1 0 1 0 -1 0 0 3023.dat
1 2 360 -64 250 1 0 0 0 1 0 0 0 1 3710.dat
1 2 210 -64 290 1 0 0 0 1 0 0 0 1 3024.dat
1 2 140 -64 150 1 0 0 0 1 0 0 0 1 3710.dat
1 2 130 -64 260 0 0 1 0 1 0 -1 0 0 3023.dat
1 2 170 -64 130 1 0 0 0 1 0 0 0 1 3024.dat
1 2 360 -64 150 1 0 0 0 1 0 0 0 1 3023.dat
1 2 110 -64 180 0 0 1 0 1 0 -1 0 0 3023.dat
1 2 170 -64 270 1 0 0 0 1 0 0 0 1 3024.dat
1 2 290 -64 300 0 0 1 0 1 0 -1 0 0 3023.dat
1 14 130 -64 210 1 0 0 0 1 0 0 0 1 3024.dat
1 2 400 -64 200 1 0 0 0 1 0 0 0 1 3022.dat
1 2 320 -64 110 1 0 0 0 1 0 0 0 1 3023.dat
1 2 330 -64 270 1 0 0 0 1 0 0 0 1 3024.dat
1 2 310 -64 270 1 0 0 0 1 0 0 0 1 3024.dat
1 2 390 -64 170 1 0 0 0 1 0 0 0 1 3024.dat
1 2 210 -64 90 1 0 0 0 1 0 0 0 1 3024.dat
1 2 190 -64 90 1 0 0 0 1 0 0 0 1 3024.dat
1 2 150 -64 270 1 0 0 0 1 0 0 0 1 3024.dat
1 14 100 -72 200 0 0 1 0 1 0 -1 0 0 3020.dat
1 2 140 -72 150 1 0 0 0 1 0 0 0 1 3710.dat
1 2 120 -72 250 1 0 0 0 1 0 0 0 1 3023.dat
1 2 150 -72 130 1 0 0 0 1 0 0 0 1 3623.dat
1 2 160 -72 270 1 0 0 0 1 0 0 0 1 3710.dat
1 2 220 -72 90 1 0 0 0 1 0 0 0 1 3666.dat
1 2 200 -72 290 1 0 0 0 1 0 0 0 1 3023.dat
1 14 210 -72 70 1 0 0 0 1 0 0 0 1 3024.dat
1 2 290 -72 100 0 0 1 0 1 0 -1 0 0 3023.dat
1 2 290 -72 310 1 0 0 0 1 0 0 0 1 3024.dat
1 2 320 -72 110 1 0 0 0 1 0 0 0 1 3023.dat
1 2 330 -72 270 1 0 0 0 1 0 0 0 1 3623.dat
1 2 340 -72 140 1 0 0 0 1 0 0 0 1 3022.dat
1 2 380 -72 150 1 0 0 0 1 0 0 0 1 3023.dat
1 2 390 -72 180 0 0 1 0 1 0 -1 0 0 3023.dat
1 2 80 -80 200 0 0 1 0 1 0 -1 0 0 3020.dat
1 2 110 -80 150 1 0 0 0 1 0 0 0 1 3623.dat
1 14 110 -80 170 1 0 0 0 1 0 0 0 1 3024.dat
1 2 110 -80 240 0 0 1 0 1 0 -1 0 0 3023.dat
1 2 150 -80 130 1 0 0 0 1 0 0 0 1 3623.dat
1 2 130 -80 260 0 0 1 0 1 0 -1 0 0 3023.dat
1 2 170 -80 270 1 0 0 0 1 0 0 0 1 3623.dat
1 2 180 -80 90 1 0 0 0 1 0 0 0 1 3023.dat
1 14 210 -80 70 1 0 0 0 1 0 0 0 1 3623.dat
1 2 200 -80 290 1 0 0 0 1 0 0 0 1 3023.dat
1 14 240 -80 310 1 0 0 0 1 0 0 0 1 3710.dat
1 2 310 -80 110 1 0 0 0 1 0 0 0 1 3623.dat
1 2 290 -80 310 1 0 0 0 1 0 0 0 1 3024.dat
1 2 340 -80 130 1 0 0 0 1 0 0 0 1 3023.dat
1 2 370 -80 160 1 0 0 0 1 0 0 0 1 3021.dat
1 2 60 -88 200 1 0 0 0 1 0 0 0 1 3022.dat
1 2 80 -88 160 1 0 0 0 1 0 0 0 1 3022.dat
1 2 80 -88 240 1 0 0 0 1 0 0 0 1 3022.dat
1 2 140 -88 130 1 0 0 0 1 0 0 0 1 3710.dat
1 2 110 -88 150 1 0 0 0 1 0 0 0 1 3024.dat
1 2 120 -88 260 1 0 0 0 1 0 0 0 1 3022.dat
1 2 170 -88 270 1 0 0 0 1 0 0 0 1 3623.dat
1 2 170 -88 100 0 0 1 0 1 0 -1 0 0 3023.dat
1 2 190 -88 90 1 0 0 0 1 0 0 0 1 3024.dat
1 2 200 -88 300 1 0 0 0 1 0 0 0 1 3022.dat
1 2 260 -88 310 1 0 0 0 1 0 0 0 1 3710.dat
1 2 310 -88 100 0 0 1 0 1 0 -1 0 0 3023.dat
1 2 330 -88 120 0 0 1 0 1 0 -1 0 0 3023.dat
1 2 350 -88 150 0 0 1 0 1 0 -1 0 0 3623.dat
1 2 380 -88 170 1 0 0 0 1 0 0 0 1 3023.dat
1 2 400 -88 230 1 0 0 0 1 0 0 0 1 3023.dat
1 2 50 -96 200 0 0 1 0 1 0 -1 0 0 3710.dat
1 2 90 -96 150 1 0 0 0 1 0 0 0 1 3623.dat
1 14 70 -96 180 0 0 1 0 1 0 -1 0 0 3023.dat
1 2 70 -96 240 0 0 1 0 1 0 -1 0 0 3023.dat
1 2 120 -96 130 1 0 0 0 1 0 0 0 1 3710.dat
1 2 100 -96 260 1 0 0 0 1 0 0 0 1 3022.dat
1 2 160 -96 270 1 0 0 0 1 0 0 0 1 3710.dat
1 2 170 -96 110 0 0 1 0 1 0 -1 0 0 3623.dat
1 2 190 -96 90 1 0 0 0 1 0 0 0 1 3024.dat
1 2 190 -96 300 0 0 1 0 1 0 -1 0 0 3023.dat
1 2 240 -96 310 1 0 0 0 1 0 0 0 1 3710.dat
1 2 310 -96 290 1 0 0 0 1 0 0 0 1 3623.dat
1 2 290 -96 310 1 0 0 0 1 0 0 0 1 3024.dat
1 2 310 -96 100 0 0 1 0 1 0 -1 0 0 3023.dat
1 2 330 -96 120 0 0 1 0 1 0 -1 0 0 3023.dat
1 2 350 -96 150 0 0 1 0 1 0 -1 0 0 3623.dat
1 2 370 -96 240 1 0 0 0 1 0 0 0 1 3021.dat
1 2 380 -96 170 1 0 0 0 1 0 0 0 1 3023.dat
1 14 400 -96 190 1 0 0 0 1 0 0 0 1 3023.dat
1 2 410 -96 220 0 0 1 0 1 0 -1 0 0 3023.dat
1 2 50 -104 200 0 0 1 0 1 0 -1 0 0 3666.dat
1 2 120 -104 130 1 0 0 0 1 0 0 0 1 3666.dat
1 2 80 -104 150 1 0 0 0 1 0 0 0 1 3023.dat
1 14 70 -104 170 1 0 0 0 1 0 0 0 1 3024.dat
1 2 70 -104 250 0 0 1 0 1 0 -1 0 0 3623.dat
1 2 90 -104 260 0 0 1 0 1 0 -1 0 0 3023.dat
1 2 140 -104 270 1 0 0 0 1 0 0 0 1 3710.dat
1 2 180 -104 90 1 0 0 0 1 0 0 0 1 3023.dat
1 2 170 -104 110 1 0 0 0 1 0 0 0 1 3024.dat
1 2 190 -104 290 0 0 1 0 1 0 -1 0 0 3623.dat
1 2 240 -104 310 1 0 0 0 1 0 0 0 1 3710.dat
1 2 280 -104 90 1 0 0 0 1 0 0 0 1 3710.dat
1 2 310 -104 290 1 0 0 0 1 0 0 0 1 3623.dat
1 2 290 -104 310 1 0 0 0 1 0 0 0 1 3024.dat
1 2 340 -104 270 1 0 0 0 1 0 0 0 1 3023.dat
1 2 350 -104 160 0 0 1 0 1 0 -1 0 0 3023.dat
1 2 350 -104 250 1 0 0 0 1 0 0 0 1 3024.dat
1 2 380 -104 180 1 0 0 0 1 0 0 0 1 3022.dat
1 2 390 -104 230 1 0 0 0 1 0 0 0 1 3623.dat
1 2 400 -104 210 1 0 0 0 1 0 0 0 1 3023.dat
1 14 410 -104 190 1 0 0 0 1 0 0 0 1 3024.dat
1 2 40 -112 190 0 0 1 0 1 0 -1 0 0 3021.dat
1 14 60 -112 150 1 0 0 0 1 0 0 0 1 3023.dat
1 2 50 -112 240 0 0 1 0 1 0 -1 0 0 3023.dat
1 2 120 -112 130 1 0 0 0 1 0 0 0 1 3666.dat
1 2 70 -112 260 0 0 1 0 1 0 -1 0 0 3023.dat
1 2 140 -112 270 1 0 0 0 1 0 0 0 1 3666.dat
1 2 160 -112 110 1 0 0 0 1 0 0 0 1 3023.dat
1 2 170 -112 90 1 0 0 0 1 0 0 0 1 3024.dat
1 2 180 -112 290 1 0 0 0 1 0 0 0 1 3023.dat
1 4 240 -112 330 1 0 0 0 1 0 0 0 1 3023.dat
1 2 250 -112 80 0 0 1 0 1 0 -1 0 0 3023.dat
1 2 290 -112 90 1 0 0 0 1 0 0 0 1 3623.dat
1 2 320 -112 290 1 0 0 0 1 0 0 0 1 3023.dat
1 14 310 -112 310 1 0 0 0 1 0 0 0 1 3024.dat
1 2 340 -112 270 1 0 0 0 1 0 0 0 1 3023.dat
1 2 350 -112 150 1 0 0 0 1 0 0 0 1 3024.dat
1 2 350 -112 250 1 0 0 0 1 0 0 0 1 3024.dat
1 2 390 -112 210 0 0 1 0 1 0 -1 0 0 3623.dat
1 2 30 -120 200 0 0 1 0 1 0 -1 0 0 3710.dat
1 2 50 -120 160 0 0 1 0 1 0 -1 0 0 3023.dat
1 2 50 -120 250 0 0 1 0 1 0 -1 0 0 3623.dat
1 2 100 -120 130 1 0 0 0 1 0 0 0 1 3710.dat
1 14 70 -120 150 1 0 0 0 1 0 0 0 1 3024.dat
1 2 120 -120 270 1 0 0 0 1 0 0 0 1 3666.dat
1 2 150 -120 120 0 0 1 0 1 0 -1 0 0 3023.dat
1 4 240 -120 330 1 0 0 0 1 0 0 0 1 3023.dat
1 2 250 -120 70 1 0 0 0 1 0 0 0 1 3024.dat
1 14 310 -120 300 0 0 1 0 1 0 -1 0 0 3023.dat
1 2 330 -120 280 0 0 1 0 1 0 -1 0 0 3023.dat
1 2 350 -120 270 1 0 0 0 1 0 0 0 1 3024.dat
1 2 30 -128 200 0 0 1 0 1 0 -1 0 0 3710.dat
1 2 40 -128 250 1 0 0 0 1 0 0 0 1 3023.dat
1 2 100 -128 130 1 0 0 0 1 0 0 0 1 3666.dat
1 2 50 -128 160 0 0 1 0 1 0 -1 0 0 3023.dat
1 2 70 -128 270 1 0 0 0 1 0 0 0 1 3623.dat
1 2 150 -128 270 1 0 0 0 1 0 0 0 1 3623.dat
1 2 320 -128 290 1 0 0 0 1 0 0 0 1 3023.dat
1 14 310 -128 310 1 0 0 0 1 0 0 0 1 3024.dat
1 2 30 -136 200 0 0 1 0 1 0 -1 0 0 3666.dat
1 2 150 -136 270 1 0 0 0 1 0 0 0 1 3623.dat
1 2 200 -136 70 1 0 0 0 1 0 0 0 1 3710.dat
1 14 310 -136 310 1 0 0 0 1 0 0 0 1 3024.dat
1 2 370 -136 200 0 0 1 0 1 0 -1 0 0 3710.dat
1 2 30 -144 200 0 0 1 0 1 0 -1 0 0 3666.dat
1 2 160 -144 270 1 0 0 0 1 0 0 0 1 3023.dat
1 2 200 -144 70 1 0 0 0 1 0 0 0 1 3710.dat
1 2 170 -144 100 0 0 1 0 1 0 -1 0 0 3023.dat
1 2 280 -144 90 1 0 0 0 1 0 0 0 1 3023.dat
1 2 360 -144 150 1 0 0 0 1 0 0 0 1 3023.dat
1 2 360 -144 250 1 0 0 0 1 0 0 0 1 3023.dat
1 2 370 -144 200 0 0 1 0 1 0 -1 0 0 3710.dat
1 2 20 -152 210 1 0 0 0 1 0 0 0 1 3023.dat
1 2 30 -152 170 0 0 1 0 1 0 -1 0 0 3623.dat
1 2 30 -152 240 0 0 1 0 1 0 -1 0 0 3023.dat
1 2 120 -152 110 1 0 0 0 1 0 0 0 1 3710.dat
1 2 180 -152 90 1 0 0 0 1 0 0 0 1 3023.dat
1 2 170 -152 110 1 0 0 0 1 0 0 0 1 3024.dat
1 14 220 -152 70 1 0 0 0 1 0 0 0 1 3710.dat
1 2 270 -152 90 1 0 0 0 1 0 0 0 1 3623.dat
1 2 310 -152 110 1 0 0 0 1 0 0 0 1 3623.dat
1 2 360 -152 150 1 0 0 0 1 0 0 0 1 3023.dat
1 2 360 -152 230 1 0 0 0 1 0 0 0 1 3023.dat
1 2 350 -152 250 1 0 0 0 1 0 0 0 1 3024.dat
1 2 370 -152 190 0 0 1 0 1 0 -1 0 0 3623.dat
1 2 20 -160 210 1 0 0 0 1 0 0 0 1 3023.dat
1 2 30 -160 170 0 0 1 0 1 0 -1 0 0 3623.dat
1 2 30 -160 240 0 0 1 0 1 0 -1 0 0 3023.dat
1 2 70 -160 130 1 0 0 0 1 0 0 0 1 3623.dat
1 2 70 -160 280 0 0 1 0 1 0 -1 0 0 3023.dat
1 2 120 -160 110 1 0 0 0 1 0 0 0 1 3710.dat
1 2 220 -160 90 1 0 0 0 1 0 0 0 1 3666.dat
1 2 170 -160 110 1 0 0 0 1 0 0 0 1 3024.dat
1 14 220 -160 70 1 0 0 0 1 0 0 0 1 3710.dat
1 14 240 -160 310 1 0 0 0 1 0 0 0 1 3666.dat
1 2 290 -160 100 0 0 1 0 1 0 -1 0 0 3023.dat
1 2 310 -160 290 1 0 0 0 1 0 0 0 1 3623.dat
1 2 320 -160 110 1 0 0 0 1 0 0 0 1 3023.dat
1 2 350 -160 240 0 0 1 0 1 0 -1 0 0 3023.dat
1 2 370 -160 200 0 0 1 0 1 0 -1 0 0 3710.dat
1 2 30 -168 200 0 0 1 0 1 0 -1 0 0 3666.dat
1 2 70 -168 130 1 0 0 0 1 0 0 0 1 3623.dat
1 2 80 -168 270 1 0 0 0 1 0 0 0 1 3023.dat
1 2 140 -168 110 1 0 0 0 1 0 0 0 1 3666.dat
1 2 140 -168 290 1 0 0 0 1 0 0 0 1 3666.dat
1 14 240 -168 90 1 0 0 0 1 0 0 0 1 3666.dat
1 2 220 -168 310 1 0 0 0 1 0 0 0 1 3710.dat
1 14 210 -168 290 1 0 0 0 1 0 0 0 1 3024.dat
1 2 300 -168 110 1 0 0 0 1 0 0 0 1 3710.dat
1 2 300 -168 290 1 0 0 0 1 0 0 0 1 3710.dat
1 2 270 -168 310 1 0 0 0 1 0 0 0 1 3024.dat
1 2 360 -168 230 1 0 0 0 1 0 0 0 1 3023.dat
1 2 350 -168 250 1 0 0 0 1 0 0 0 1 3024.dat
1 2 370 -168 190 0 0 1 0 1 0 -1 0 0 3623.dat
1 2 20 -176 210 1 0 0 0 1 0 0 0 1 3023.dat
1 2 30 -176 170 0 0 1 0 1 0 -1 0 0 3623.dat
1 2 30 -176 240 0 0 1 0 1 0 -1 0 0 3023.dat
1 2 80 -176 130 1 0 0 0 1 0 0 0 1 3710.dat
1 2 100 -176 270 1 0 0 0 1 0 0 0 1 3710.dat
1 2 160 -176 110 1 0 0 0 1 0 0 0 1 3460.dat
1 14 160 -176 290 1 0 0 0 1 0 0 0 1 3460.dat
1 2 150 -176 270 1 0 0 0 1 0 0 0 1 3024.dat
1 14 230 -176 90 1 0 0 0 1 0 0 0 1 3623.dat
1 2 240 -176 310 1 0 0 0 1 0 0 0 1 3710.dat
1 2 280 -176 110 1 0 0 0 1 0 0 0 1 3710.dat
1 2 280 -176 290 1 0 0 0 1 0 0 0 1 3710.dat
1 2 330 -176 130 1 0 0 0 1 0 0 0 1 3623.dat
1 2 330 -176 270 1 0 0 0 1 0 0 0 1 3623.dat
1 2 350 -176 240 0 0 1 0 1 0 -1 0 0 3023.dat
1 2 370 -176 200 0 0 1 0 1 0 -1 0 0 3710.dat
1 2 180 -184 280 1 0 0 0 1 0 0 0 1 3022.dat
1 2 340 -184 250 1 0 0 0 1 0 0 0 1 3023.dat
1 2 360 -184 200 1 0 0 0 1 0 0 0 1 3022.dat
1 2 30 -184 200 0 0 1 0 1 0 -1 0 0 3666.dat
1 2 80 -184 130 1 0 0 0 1 0 0 0 1 3710.dat
1 2 50 -184 150 1 0 0 0 1 0 0 0 1 3024.dat
1 2 50 -184 260 0 0 1 0 1 0 -1 0 0 3023.dat
1 2 100 -184 270 1 0 0 0 1 0 0 0 1 3710.dat
1 14 110 -184 290 1 0 0 0 1 0 0 0 1 3623.dat
1 2 180 -184 110 1 0 0 0 1 0 0 0 1 3460.dat
1 2 150 -184 270 1 0 0 0 1 0 0 0 1 3024.dat
1 14 260 -184 290 1 0 0 0 1 0 0 0 1 3666.dat
1 2 290 -184 110 1 0 0 0 1 0 0 0 1 3623.dat
1 2 330 -184 130 1 0 0 0 1 0 0 0 1 3623.dat
1 2 320 -184 270 1 0 0 0 1 0 0 0 1 3023.dat
1 2 350 -184 160 0 0 1 0 1 0 -1 0 0 3023.dat
1 2 350 -184 230 1 0 0 0 1 0 0 0 1 3024.dat
1 2 30 -192 200 0 0 1 0 1 0 -1 0 0 3666.dat
1 2 60 -192 150 1 0 0 0 1 0 0 0 1 3023.dat
1 14 50 -192 170 1 0 0 0 1 0 0 0 1 3024.dat
1 2 50 -192 260 0 0 1 0 1 0 -1 0 0 3023.dat
1 2 90 -192 130 1 0 0 0 1 0 0 0 1 3623.dat
1 2 140 -192 270 1 0 0 0 1 0 0 0 1 3460.dat
1 2 180 -192 110 1 0 0 0 1 0 0 0 1 3460.dat
1 14 240 -192 290 1 0 0 0 1 0 0 0 1 3666.dat
1 2 280 -192 270 1 0 0 0 1 0 0 0 1 3710.dat
1 2 290 -192 110 1 0 0 0 1 0 0 0 1 3623.dat
1 2 310 -192 130 1 0 0 0 1 0 0 0 1 3623.dat
1 14 310 -192 290 1 0 0 0 1 0 0 0 1 3024.dat
1 2 340 -192 150 1 0 0 0 1 0 0 0 1 3023.dat
1 2 330 -192 260 0 0 1 0 1 0 -1 0 0 3023.dat
1 2 350 -192 200 0 0 1 0 1 0 -1 0 0 3710.dat
1 2 350 -192 250 1 0 0 0 1 0 0 0 1 3024.dat
1 2 30 -200 200 0 0 1 0 1 0 -1 0 0 3710.dat
1 14 40 -200 250 1 0 0 0 1 0 0 0 1 3023.dat
1 14 50 -200 160 0 0 1 0 1 0 -1 0 0 3023.dat
1 2 120 -200 270 1 0 0 0 1 0 0 0 1 3460.dat
1 14 120 -200 130 1 0 0 0 1 0 0 0 1 3666.dat
1 2 70 -200 150 1 0 0 0 1 0 0 0 1 3024.dat
1 14 200 -200 110 1 0 0 0 1 0 0 0 1 3460.dat
1 2 210 -200 280 0 0 1 0 1 0 -1 0 0 3023.dat
1 14 250 -200 290 1 0 0 0 1 0 0 0 1 3623.dat
1 2 280 -200 270 1 0 0 0 1 0 0 0 1 3710.dat
1 2 300 -200 130 1 0 0 0 1 0 0 0 1 3710.dat
1 2 340 -200 150 1 0 0 0 1 0 0 0 1 3023.dat
1 2 340 -200 250 1 0 0 0 1 0 0 0 1 3023.dat
1 2 330 -200 270 1 0 0 0 1 0 0 0 1 3024.dat
1 2 350 -200 200 0 0 1 0 1 0 -1 0 0 3710.dat
1 2 320 -208 270 1 0 0 0 1 0 0 0 1 3023.dat
1 14 210 -208 130 1 0 0 0 1 0 0 0 1 3623.dat
1 2 20 -208 210 1 0 0 0 1 0 0 0 1 3023.dat
1 2 220 -208 110 1 0 0 0 1 0 0 0 1 3710.dat
1 2 340 -208 230 1 0 0 0 1 0 0 0 1 3023.dat
1 2 60 -208 150 1 0 0 0 1 0 0 0 1 3023.dat
1 14 240 -208 290 1 0 0 0 1 0 0 0 1 3023.dat
1 2 350 -208 180 0 0 1 0 1 0 -1 0 0 3710.dat
1 2 180 -208 270 1 0 0 0 1 0 0 0 1 3460.dat
1 2 330 -208 150 0 0 1 0 1 0 -1 0 0 3623.dat
1 2 310 -208 140 0 0 1 0 1 0 -1 0 0 3023.dat
1 2 140 -208 130 1 0 0 0 1 0 0 0 1 3710.dat
1 2 30 -208 260 0 0 1 0 1 0 -1 0 0 3710.dat
1 2 60 -208 280 1 0 0 0 1 0 0 0 1 3022.dat
1 2 90 -208 130 1 0 0 0 1 0 0 0 1 3024.dat
1 14 70 -208 130 1 0 0 0 1 0 0 0 1 3024.dat
1 2 50 -208 170 1 0 0 0 1 0 0 0 1 3024.dat
1 2 270 -208 120 0 0 1 0 1 0 -1 0 0 3023.dat
1 2 290 -208 270 1 0 0 0 1 0 0 0 1 3024.dat
1 2 30 -208 190 1 0 0 0 1 0 0 0 1 3024.dat
1 2 30 -208 170 1 0 0 0 1 0 0 0 1 3024.dat
1 14 170 -208 110 1 0 0 0 1 0 0 0 1 3024.dat
1 14 50 -208 250 1 0 0 0 1 0 0 0 1 3024.dat
1 2 270 -208 270 1 0 0 0 1 0 0 0 1 3024.dat
1 2 290 -208 130 1 0 0 0 1 0 0 0 1 3024.dat
1 2 90 -208 270 1 0 0 0 1 0 0 0 1 3024.dat
1 2 330 -208 250 1 0 0 0 1 0 0 0 1 3024.dat
1 2 10 -216 240 0 0 1 0 1 0 -1 0 0 3666.dat
1 14 40 -216 170 1 0 0 0 1 0 0 0 1 3023.dat
1 2 30 -216 190 1 0 0 0 1 0 0 0 1 3024.dat
1 2 30 -216 260 0 0 1 0 1 0 -1 0 0 3710.dat
1 2 70 -216 150 1 0 0 0 1 0 0 0 1 3623.dat
1 2 60 -216 300 1 0 0 0 1 0 0 0 1 3022.dat
1 2 140 -216 270 1 0 0 0 1 0 0 0 1 3460.dat
1 14 160 -216 130 1 0 0 0 1 0 0 0 1 3460.dat
1 14 90 -216 290 1 0 0 0 1 0 0 0 1 3024.dat
1 14 140 -216 250 1 0 0 0 1 0 0 0 1 3710.dat
1 14 190 -216 250 1 0 0 0 1 0 0 0 1 3024.dat
1 2 250 -216 110 1 0 0 0 1 0 0 0 1 3623.dat
1 2 260 -216 270 1 0 0 0 1 0 0 0 1 3710.dat
1 2 280 -216 130 1 0 0 0 1 0 0 0 1 3710.dat
1 2 320 -216 150 1 0 0 0 1 0 0 0 1 3023.dat
1 2 320 -216 250 1 0 0 0 1 0 0 0 1 3023.dat
1 2 310 -216 270 1 0 0 0 1 0 0 0 1 3024.dat
1 2 340 -216 200 0 0 1 0 1 0 -1 0 0 3020.dat
1 2 10 -224 240 0 0 1 0 1 0 -1 0 0 3666.dat
1 2 30 -224 180 0 0 1 0 1 0 -1 0 0 3023.dat
1 14 60 -224 290 1 0 0 0 1 0 0 0 1 3710.dat
1 2 70 -224 150 1 0 0 0 1 0 0 0 1 3623.dat
1 14 50 -224 170 1 0 0 0 1 0 0 0 1 3024.dat
1 2 60 -224 310 1 0 0 0 1 0 0 0 1 3023.dat
1 2 160 -224 130 1 0 0 0 1 0 0 0 1 3460.dat
1 2 100 -224 270 1 0 0 0 1 0 0 0 1 3023.dat
1 14 140 -224 250 1 0 0 0 1 0 0 0 1 3710.dat
1 14 190 -224 260 0 0 1 0 1 0 -1 0 0 3023.dat
1 2 260 -224 270 1 0 0 0 1 0 0 0 1 3666.dat
1 14 280 -224 130 1 0 0 0 1 0 0 0 1 3710.dat
1 2 310 -224 150 1 0 0 0 1 0 0 0 1 3623.dat
1 2 320 -224 250 1 0 0 0 1 0 0 0 1 3023.dat
1 2 330 -224 200 0 0 1 0 1 0 -1 0 0 3710.dat
1 2 10 -232 220 0 0 1 0 1 0 -1 0 0 3666.dat
1 2 60 -232 150 1 0 0 0 1 0 0 0 1 3710.dat
1 4 90 -232 310 1 0 0 0 1 0 0 0 1 3024.dat
1 14 110 -232 150 1 0 0 0 1 0 0 0 1 3024.dat
1 2 130 -232 240 0 0 1 0 1 0 -1 0 0 3023.dat
1 14 180 -232 150 1 0 0 0 1 0 0 0 1 3710.dat
1 2 180 -232 240 1 0 0 0 1 0 0 0 1 3022.dat
1 2 210 -232 260 0 0 1 0 1 0 -1 0 0 3023.dat
1 14 230 -232 150 1 0 0 0 1 0 0 0 1 3024.dat
1 2 300 -232 250 1 0 0 0 1 0 0 0 1 3023.dat
1 2 320 -232 170 1 0 0 0 1 0 0 0 1 3023.dat
1 2 320 -232 230 1 0 0 0 1 0 0 0 1 3023.dat
1 2 30 -232 290 1 0 0 0 1 0 0 0 1 3623.dat
1 2 60 -232 310 1 0 0 0 1 0 0 0 1 3023.dat
1 2 90 -232 280 0 0 1 0 1 0 -1 0 0 3023.dat
1 2 180 -232 130 1 0 0 0 1 0 0 0 1 3460.dat
1 2 110 -232 260 0 0 1 0 1 0 -1 0 0 3023.dat
1 2 150 -232 250 1 0 0 0 1 0 0 0 1 3024.dat
1 2 260 -232 270 1 0 0 0 1 0 0 0 1 3710.dat
1 14 280 -232 130 1 0 0 0 1 0 0 0 1 3023.dat
1 2 300 -232 150 1 0 0 0 1 0 0 0 1 3023.dat
1 2 330 -232 200 0 0 1 0 1 0 -1 0 0 3023.dat
1 2 50 -240 310 1 0 0 0 1 0 0 0 1 3623.dat
1 14 200 -240 150 1 0 0 0 1 0 0 0 1 3460.dat
1 2 180 -240 230 1 0 0 0 1 0 0 0 1 3710.dat
1 14 190 -240 170 1 0 0 0 1 0 0 0 1 3623.dat
1 14 180 -240 210 1 0 0 0 1 0 0 0 1 3023.dat
1 2 250 -240 260 1 0 0 0 1 0 0 0 1 3021.dat
1 2 300 -240 170 1 0 0 0 1 0 0 0 1 3023.dat
1 2 300 -240 240 1 0 0 0 1 0 0 0 1 3022.dat
1 2 320 -240 200 1 0 0 0 1 0 0 0 1 3022.dat
1 2 60 -240 150 1 0 0 0 1 0 0 0 1 3710.dat
1 2 40 -240 290 1 0 0 0 1 0 0 0 1 3023.dat
1 2 90 -240 290 1 0 0 0 1 0 0 0 1 3024.dat
1 14 110 -240 150 1 0 0 0 1 0 0 0 1 3024.dat
1 2 130 -240 250 1 0 0 0 1 0 0 0 1 3623.dat
1 2 130 -240 230 1 0 0 0 1 0 0 0 1 3024.dat
1 2 200 -240 250 1 0 0 0 1 0 0 0 1 3023.dat
1 14 270 -240 130 1 0 0 0 1 0 0 0 1 3024.dat
1 2 300 -240 150 1 0 0 0 1 0 0 0 1 3023.dat
1 14 80 -248 150 1 0 0 0 1 0 0 0 1 3666.dat
1 2 30 -248 300 0 0 1 0 1 0 -1 0 0 3023.dat
1 14 200 -248 170 1 0 0 0 1 0 0 0 1 3460.dat
1 14 160 -248 220 1 0 0 0 1 0 0 0 1 3020.dat
1 14 150 -248 150 1 0 0 0 1 0 0 0 1 3024.dat
1 2 180 -248 190 1 0 0 0 1 0 0 0 1 3710.dat
1 14 240 -248 150 1 0 0 0 1 0 0 0 1 3710.dat
1 2 210 -248 230 0 0 1 0 1 0 -1 0 0 3623.dat
1 2 230 -248 240 0 0 1 0 1 0 -1 0 0 3023.dat
1 2 270 -248 250 1 0 0 0 1 0 0 0 1 3623.dat
1 2 290 -248 180 0 0 1 0 1 0 -1 0 0 3710.dat
1 2 300 -248 230 1 0 0 0 1 0 0 0 1 3023.dat
1 2 310 -248 190 0 0 1 0 1 0 -1 0 0 3623.dat
1 2 60 -256 150 1 0 0 0 1 0 0 0 1 3710.dat
1 2 30 -256 180 0 0 1 0 1 0 -1 0 0 3023.dat
1 2 30 -256 290 0 0 1 0 1 0 -1 0 0 3623.dat
1 2 110 -256 160 0 0 1 0 1 0 -1 0 0 3023.dat
1 2 140 -256 190 0 0 1 0 1 0 -1 0 0 3021.dat
1 2 130 -256 230 1 0 0 0 1 0 0 0 1 3024.dat
1 14 240 -256 200 1 0 0 0 1 0 0 0 1 3031.dat
1 2 250 -256 250 1 0 0 0 1 0 0 0 1 3623.dat
1 14 260 -256 150 1 0 0 0 1 0 0 0 1 3023.dat
1 2 290 -256 200 0 0 1 0 1 0 -1 0 0 3710.dat
1 2 10 -264 220 0 0 1 0 1 0 -1 0 0 3710.dat
1 2 20 -264 270 1 0 0 0 1 0 0 0 1 3023.dat
1 2 40 -264 170 1 0 0 0 1 0 0 0 1 3023.dat
1 2 30 -264 190 1 0 0 0 1 0 0 0 1 3024.dat
1 2 30 -264 300 0 0 1 0 1 0 -1 0 0 3023.dat
1 2 100 -264 270 1 0 0 0 1 0 0 0 1 3023.dat
1 2 130 -264 210 0 0 1 0 1 0 -1 0 0 3623.dat
1 14 250 -264 200 1 0 0 0 1 0 0 0 1 3021.dat
1 14 260 -264 230 1 0 0 0 1 0 0 0 1 3023.dat
1 2 30 -272 260 0 0 1 0 1 0 -1 0 0 3710.dat
1 2 60 -272 300 1 0 0 0 1 0 0 0 1 3022.dat
1 2 100 -272 260 1 0 0 0 1 0 0 0 1 3022.dat
1 2 120 -272 230 1 0 0 0 1 0 0 0 1 3023.dat
1 2 10 -272 220 0 0 1 0 1 0 -1 0 0 3710.dat
1 2 10 -272 270 1 0 0 0 1 0 0 0 1 3024.dat
1 2 30 -272 180 0 0 1 0 1 0 -1 0 0 3023.dat
1 2 50 -272 170 1 0 0 0 1 0 0 0 1 3024.dat
1 14 90 -272 290 1 0 0 0 1 0 0 0 1 3024.dat
1 2 130 -272 200 0 0 1 0 1 0 -1 0 0 3023.dat
1 2 20 -280 240 0 0 1 0 1 0 -1 0 0 3020.dat
1 2 40 -280 170 1 0 0 0 1 0 0 0 1 3023.dat
1 2 30 -280 190 1 0 0 0 1 0 0 0 1 3024.dat
1 2 50 -280 290 1 0 0 0 1 0 0 0 1 3623.dat
1 2 80 -280 270 1 0 0 0 1 0 0 0 1 3023.dat
1 2 100 -280 250 1 0 0 0 1 0 0 0 1 3023.dat
1 2 120 -280 220 1 0 0 0 1 0 0 0 1 3022.dat
1 2 130 -280 190 1 0 0 0 1 0 0 0 1 3024.dat
1 2 80 -288 140 1 0 0 0 1 0 0 0 1 3022.dat
1 2 110 -288 170 1 0 0 0 1 0 0 0 1 3623.dat
1 2 10 -288 230 0 0 1 0 1 0 -1 0 0 3623.dat
1 2 30 -288 190 0 0 1 0 1 0 -1 0 0 3623.dat
1 2 30 -288 270 0 0 1 0 1 0 -1 0 0 3623.dat
1 2 50 -288 160 0 0 1 0 1 0 -1 0 0 3023.dat
1 2 60 -288 290 1 0 0 0 1 0 0 0 1 3023.dat
1 2 80 -288 270 1 0 0 0 1 0 0 0 1 3023.dat
1 2 100 -288 250 1 0 0 0 1 0 0 0 1 3023.dat
1 2 120 -288 210 1 0 0 0 1 0 0 0 1 3023.dat
1 2 110 -288 230 1 0 0 0 1 0 0 0 1 3024.dat
1 2 130 -288 190 1 0 0 0 1 0 0 0 1 3024.dat
1 2 10 -296 220 0 0 1 0 1 0 -1 0 0 3710.dat
1 2 40 -296 170 1 0 0 0 1 0 0 0 1 3023.dat
1 2 30 -296 190 1 0 0 0 1 0 0 0 1 3024.dat
1 2 30 -296 260 0 0 1 0 1 0 -1 0 0 3023.dat
1 2 70 -296 140 1 0 0 0 1 0 0 0 1 3021.dat
1 2 60 -296 280 1 0 0 0 1 0 0 0 1 3022.dat
1 14 80 -296 110 1 0 0 0 1 0 0 0 1 3023.dat
1 2 110 -296 170 1 0 0 0 1 0 0 0 1 3623.dat
1 2 90 -296 260 0 0 1 0 1 0 -1 0 0 3023.dat
1 2 110 -296 230 0 0 1 0 1 0 -1 0 0 3623.dat
1 2 130 -296 200 0 0 1 0 1 0 -1 0 0 3023.dat
1 2 30 -304 250 0 0 1 0 1 0 -1 0 0 3623.dat
1 14 70 -304 100 1 0 0 0 1 0 0 0 1 3021.dat
1 14 70 -304 70 1 0 0 0 1 0 0 0 1 3024.dat
1 2 140 -304 170 0 0 1 0 1 0 -1 0 0 3021.dat
1 2 10 -304 210 0 0 1 0 1 0 -1 0 0 3623.dat
1 2 30 -304 180 0 0 1 0 1 0 -1 0 0 3023.dat
1 2 70 -304 130 1 0 0 0 1 0 0 0 1 3623.dat
1 2 50 -304 160 0 0 1 0 1 0 -1 0 0 3023.dat
1 14 70 -304 270 1 0 0 0 1 0 0 0 1 3623.dat
1 2 90 -304 160 0 0 1 0 1 0 -1 0 0 3023.dat
1 2 100 -304 250 1 0 0 0 1 0 0 0 1 3023.dat
1 2 110 -304 170 1 0 0 0 1 0 0 0 1 3024.dat
1 14 120 -304 210 1 0 0 0 1 0 0 0 1 3023.dat
1 2 110 -304 230 1 0 0 0 1 0 0 0 1 3024.dat
1 2 20 -312 220 1 0 0 0 1 0 0 0 1 3022.dat
1 2 40 -312 180 1 0 0 0 1 0 0 0 1 3022.dat
1 2 60 -312 250 1 0 0 0 1 0 0 0 1 3710.dat
1 2 50 -312 120 0 0 1 0 1 0 -1 0 0 3710.dat
1 14 70 -312 270 1 0 0 0 1 0 0 0 1 3623.dat
1 14 70 -312 70 0 0 1 0 1 0 -1 0 0 3623.dat
1 2 90 -312 120 0 0 1 0 1 0 -1 0 0 3666.dat
1 2 140 -312 160 1 0 0 0 1 0 0 0 1 3020.dat
1 2 110 -312 230 0 0 1 0 1 0 -1 0 0 3623.dat
1 2 140 -312 190 1 0 0 0 1 0 0 0 1 3023.dat
1 14 130 -312 210 1 0 0 0 1 0 0 0 1 3024.dat
1 2 80 -320 190 1 0 0 0 1 0 0 0 1 3666.dat
1 2 40 -320 220 1 0 0 0 1 0 0 0 1 3022.dat
1 2 50 -320 140 0 0 1 0 1 0 -1 0 0 3710.dat
1 2 80 -320 250 1 0 0 0 1 0 0 0 1 3710.dat
1 2 80 -320 60 0 0 1 0 1 0 -1 0 0 3020.dat
1 2 80 -320 110 1 0 0 0 1 0 0 0 1 3023.dat
1 2 120 -320 160 1 0 0 0 1 0 0 0 1 3795.dat
1 2 90 -320 230 1 0 0 0 1 0 0 0 1 3623.dat
1 2 90 -320 130 1 0 0 0 1 0 0 0 1 3024.dat
1 2 100 -320 210 1 0 0 0 1 0 0 0 1 3023.dat
1 2 150 -320 190 1 0 0 0 1 0 0 0 1 3024.dat
1 2 190 -320 160 0 0 1 0 1 0 -1 0 0 3023.dat
1 2 70 -328 100 1 0 0 0 1 0 0 0 1 3021.dat
1 2 50 -328 150 0 0 1 0 1 0 -1 0 0 3623.dat
1 2 70 -328 220 1 0 0 0 1 0 0 0 1 3021.dat
1 2 80 -328 50 0 0 1 0 1 0 -1 0 0 3021.dat
1 2 120 -328 160 1 0 0 0 1 0 0 0 1 3795.dat
1 2 100 -328 190 1 0 0 0 1 0 0 0 1 3710.dat
1 2 90 -328 130 1 0 0 0 1 0 0 0 1 3024.dat
1 14 170 -328 130 1 0 0 0 1 0 0 0 1 3623.dat
1 2 150 -328 190 1 0 0 0 1 0 0 0 1 3024.dat
1 2 200 -328 150 1 0 0 0 1 0 0 0 1 3023.dat
1 2 190 -328 170 1 0 0 0 1 0 0 0 1 3024.dat
1 2 60 -336 120 0 0 1 0 1 0 -1 0 0 3020.dat
1 2 80 -336 50 0 0 1 0 1 0 -1 0 0 3021.dat
1 2 90 -336 110 0 0 1 0 1 0 -1 0 0 3623.dat
1 2 140 -336 160 1 0 0 0 1 0 0 0 1 3020.dat
1 2 130 -336 190 1 0 0 0 1 0 0 0 1 3623.dat
1 14 180 -336 130 1 0 0 0 1 0 0 0 1 3710.dat
1 2 190 -336 160 0 0 1 0 1 0 -1 0 0 3023.dat
1 2 210 -336 150 1 0 0 0 1 0 0 0 1 3024.dat
1 14 60 -344 100 0 0 1 0 1 0 -1 0 0 3020.dat
1 2 80 -344 30 0 0 1 0 1 0 -1 0 0 3021.dat
1 2 210 -344 130 0 0 1 0 1 0 -1 0 0 3623.dat
1 14 230 -344 130 1 0 0 0 1 0 0 0 1 3024.dat
1 2 90 -344 100 0 0 1 0 1 0 -1 0 0 3710.dat
1 14 130 -344 180 1 0 0 0 1 0 0 0 1 3021.dat
1 2 160 -344 150 1 0 0 0 1 0 0 0 1 3710.dat
1 2 170 -344 130 1 0 0 0 1 0 0 0 1 3623.dat
1 2 170 -344 170 1 0 0 0 1 0 0 0 1 3024.dat
1 2 60 -352 80 0 0 1 0 1 0 -1 0 0 3020.dat
1 14 210 -352 120 1 0 0 0 1 0 0 0 1 3021.dat
1 14 60 -352 130 1 0 0 0 1 0 0 0 1 3023.dat
1 2 90 -352 80 0 0 1 0 1 0 -1 0 0 3710.dat
1 2 150 -352 160 1 0 0 0 1 0 0 0 1 3021.dat
1 14 130 -352 190 1 0 0 0 1 0 0 0 1 3024.dat
1 2 160 -352 130 1 0 0 0 1 0 0 0 1 3023.dat
1 2 200 -352 150 1 0 0 0 1 0 0 0 1 3023.dat
1 2 60 -360 80 0 0 1 0 1 0 -1 0 0 3020.dat
1 2 90 -360 70 0 0 1 0 1 0 -1 0 0 3623.dat
1 2 150 -360 160 1 0 0 0 1 0 0 0 1 3021.dat
1 2 180 -360 130 1 0 0 0 1 0 0 0 1 3710.dat
1 2 210 -360 110 1 0 0 0 1 0 0 0 1 3623.dat
1 2 190 -360 150 1 0 0 0 1 0 0 0 1 3024.dat
1 14 230 -360 130 1 0 0 0 1 0 0 0 1 3024.dat
1 14 220 -368 100 1 0 0 0 1 0 0 0 1 3022.dat
1 14 60 -368 70 0 0 1 0 1 0 -1 0 0 3021.dat
1 2 90 -368 50 1 0 0 0 1 0 0 0 1 3024.dat
1 2 170 -368 140 1 0 0 0 1 0 0 0 1 3021.dat
1 2 160 -368 170 1 0 0 0 1 0 0 0 1 3023.dat
1 2 190 -368 110 1 0 0 0 1 0 0 0 1 3024.dat
1 2 210 -368 130 1 0 0 0 1 0 0 0 1 3024.dat
1 14 70 -376 40 1 0 0 0 1 0 0 0 1 3021.dat
1 14 60 -376 70 1 0 0 0 1 0 0 0 1 3023.dat
1 14 80 -376 10 1 0 0 0 1 0 0 0 1 3023.dat
1 2 160 -376 150 0 0 1 0 1 0 -1 0 0 3021.dat
1 2 200 -376 120 1 0 0 0 1 0 0 0 1 3022.dat
1 2 190 -376 150 1 0 0 0 1 0 0 0 1 3024.dat
1 2 230 -376 110 1 0 0 0 1 0 0 0 1 3024.dat
1 14 60 -384 40 1 0 0 0 1 0 0 0 1 3022.dat
1 14 80 -384 10 1 0 0 0 1 0 0 0 1 3023.dat
1 14 90 -384 30 1 0 0 0 1 0 0 0 1 3024.dat
1 2 180 -384 140 1 0 0 0 1 0 0 0 1 3022.dat
1 2 210 -384 110 1 0 0 0 1 0 0 0 1 3623.dat
1 2 210 -384 130 1 0 0 0 1 0 0 0 1 3024.dat
1 14 70 -392 30 1 0 0 0 1 0 0 0 1 3024.dat
1 2 180 -392 140 1 0 0 0 1 0 0 0 1 3022.dat
1 2 210 -392 110 1 0 0 0 1 0 0 0 1 3623.dat
1 2 210 -392 130 1 0 0 0 1 0 0 0 1 3024.dat
1 14 200 -400 120 1 0 0 0 1 0 0 0 1 3022.dat
1 14 210 -408 120 0 0 1 0 1 0 -1 0 0 3023.dat
