0 BrickForgerAI Refined - duck
0 Name: BrickForgerAI Refined - duck.ldr
0 Author: BrickForgerAI
0 !LDRAW_ORG Unofficial_Model
0 BFC CERTIFY CCW
0 // Generated by BrickForgerAI (core/brickforge). Do not hand-edit.

1 14 210 -40 160 0 0 1 0 1 0 -1 0 0 3010.dat
1 14 310 -40 90 1 0 0 0 1 0 0 0 1 3005.dat
1 14 310 -40 160 0 0 1 0 1 0 -1 0 0 3010.dat
1 14 160 -48 210 1 0 0 0 1 0 0 0 1 3008.dat
1 14 210 -48 80 0 0 1 0 1 0 -1 0 0 3004.dat
1 14 320 -48 210 1 0 0 0 1 0 0 0 1 3008.dat
1 14 110 -56 160 0 0 1 0 1 0 -1 0 0 3010.dat
1 14 210 -56 260 0 0 1 0 1 0 -1 0 0 3010.dat
1 14 310 -56 260 0 0 1 0 1 0 -1 0 0 3010.dat
1 14 160 -64 50 1 0 0 0 1 0 0 0 1 3008.dat
1 14 210 -64 160 0 0 1 0 1 0 -1 0 0 3010.dat
1 14 160 -72 310 1 0 0 0 1 0 0 0 1 3008.dat
1 14 110 -72 90 1 0 0 0 1 0 0 0 1 3005.dat
1 14 200 -72 30 1 0 0 0 1 0 0 0 1 3008.dat
1 14 320 -72 310 1 0 0 0 1 0 0 0 1 3008.dat
1 14 310 -72 80 0 0 1 0 1 0 -1 0 0 3004.dat
1 14 310 -72 160 0 0 1 0 1 0 -1 0 0 3010.dat
1 14 450 -72 160 0 0 1 0 1 0 -1 0 0 3010.dat
1 14 140 -80 210 1 0 0 0 1 0 0 0 1 3008.dat
1 14 110 -80 160 0 0 1 0 1 0 -1 0 0 3010.dat
1 14 110 -80 250 0 0 1 0 1 0 -1 0 0 3622.dat
1 14 210 -80 260 0 0 1 0 1 0 -1 0 0 3010.dat
1 14 300 -80 210 1 0 0 0 1 0 0 0 1 3008.dat
1 14 310 -80 260 0 0 1 0 1 0 -1 0 0 3010.dat
1 14 420 -80 210 1 0 0 0 1 0 0 0 1 3010.dat
1 14 140 -88 110 1 0 0 0 1 0 0 0 1 3008.dat
1 14 180 -88 330 1 0 0 0 1 0 0 0 1 3008.dat
1 14 210 -88 70 0 0 1 0 1 0 -1 0 0 3622.dat
1 14 210 -88 160 0 0 1 0 1 0 -1 0 0 3010.dat
1 14 300 -88 110 1 0 0 0 1 0 0 0 1 3008.dat
1 14 340 -88 50 1 0 0 0 1 0 0 0 1 3010.dat
1 14 420 -88 160 0 0 1 0 1 0 -1 0 0 3001.dat
1 14 150 -96 50 1 0 0 0 1 0 0 0 1 3005.dat
1 14 80 -120 70 1 0 0 0 1 0 0 0 1 3010.dat
1 14 80 -120 290 1 0 0 0 1 0 0 0 1 3010.dat
1 14 100 -120 50 1 0 0 0 1 0 0 0 1 3010.dat
1 14 110 -120 90 1 0 0 0 1 0 0 0 1 3005.dat
1 14 110 -120 160 0 0 1 0 1 0 -1 0 0 3010.dat
1 14 110 -120 250 0 0 1 0 1 0 -1 0 0 3622.dat
1 14 300 -120 110 1 0 0 0 1 0 0 0 1 3008.dat
1 14 360 -120 50 1 0 0 0 1 0 0 0 1 3009.dat
1 14 310 -120 80 0 0 1 0 1 0 -1 0 0 3004.dat
1 14 310 -120 160 0 0 1 0 1 0 -1 0 0 3010.dat
1 14 310 -120 260 0 0 1 0 1 0 -1 0 0 3010.dat
1 14 120 -128 210 1 0 0 0 1 0 0 0 1 3008.dat
1 14 100 -128 310 1 0 0 0 1 0 0 0 1 3010.dat
1 14 110 -128 330 1 0 0 0 1 0 0 0 1 3005.dat
1 14 410 -128 70 1 0 0 0 1 0 0 0 1 3622.dat
1 14 420 -128 110 1 0 0 0 1 0 0 0 1 3010.dat
1 14 420 -128 90 1 0 0 0 1 0 0 0 1 3004.dat
1 14 420 -128 160 0 0 1 0 1 0 -1 0 0 3001.dat
1 191 150 -128 310 1 0 0 0 1 0 0 0 1 3005.dat
1 14 120 -136 110 1 0 0 0 1 0 0 0 1 3008.dat
1 14 110 -136 30 1 0 0 0 1 0 0 0 1 3005.dat
1 14 210 -136 120 0 0 1 0 1 0 -1 0 0 3008.dat
1 14 280 -136 210 1 0 0 0 1 0 0 0 1 3008.dat
1 14 210 -136 260 0 0 1 0 1 0 -1 0 0 3010.dat
1 14 400 -136 210 1 0 0 0 1 0 0 0 1 3010.dat
1 14 20 -144 180 0 0 1 0 1 0 -1 0 0 3007.dat
1 14 40 -144 270 1 0 0 0 1 0 0 0 1 3004.dat
1 14 80 -144 290 1 0 0 0 1 0 0 0 1 3010.dat
1 14 110 -144 160 0 0 1 0 1 0 -1 0 0 3010.dat
1 14 110 -144 250 0 0 1 0 1 0 -1 0 0 3622.dat
1 14 300 -144 110 1 0 0 0 1 0 0 0 1 3008.dat
1 14 310 -144 80 0 0 1 0 1 0 -1 0 0 3004.dat
1 14 310 -144 160 0 0 1 0 1 0 -1 0 0 3010.dat
1 14 310 -144 260 0 0 1 0 1 0 -1 0 0 3010.dat
1 14 120 -152 210 1 0 0 0 1 0 0 0 1 3008.dat
1 14 390 -152 70 1 0 0 0 1 0 0 0 1 3622.dat
1 14 390 -152 50 1 0 0 0 1 0 0 0 1 3005.dat
1 14 420 -152 110 1 0 0 0 1 0 0 0 1 3010.dat
1 14 420 -152 90 1 0 0 0 1 0 0 0 1 3004.dat
1 14 420 -152 160 0 0 1 0 1 0 -1 0 0 3001.dat
1 14 420 -152 250 0 0 1 0 1 0 -1 0 0 3002.dat
1 14 120 -160 110 1 0 0 0 1 0 0 0 1 3008.dat
1 14 140 -160 50 1 0 0 0 1 0 0 0 1 3008.dat
1 14 210 -160 140 0 0 1 0 1 0 -1 0 0 3008.dat
1 14 210 -160 260 0 0 1 0 1 0 -1 0 0 3010.dat
1 14 300 -160 210 1 0 0 0 1 0 0 0 1 3008.dat
1 14 420 -160 210 1 0 0 0 1 0 0 0 1 3010.dat
1 14 450 -160 160 0 0 1 0 1 0 -1 0 0 3010.dat
1 14 450 -160 230 1 0 0 0 1 0 0 0 1 3005.dat
1 14 110 -168 160 0 0 1 0 1 0 -1 0 0 3010.dat
1 14 110 -168 250 0 0 1 0 1 0 -1 0 0 3622.dat
1 14 310 -168 80 0 0 1 0 1 0 -1 0 0 3004.dat
1 14 310 -168 160 0 0 1 0 1 0 -1 0 0 3010.dat
1 14 120 -176 210 1 0 0 0 1 0 0 0 1 3008.dat
1 14 420 -176 160 0 0 1 0 1 0 -1 0 0 3001.dat
1 14 110 -192 240 0 0 1 0 1 0 -1 0 0 3004.dat
1 14 310 -192 160 0 0 1 0 1 0 -1 0 0 3010.dat
1 14 310 -208 240 0 0 1 0 1 0 -1 0 0 3004.dat
1 14 310 -216 160 0 0 1 0 1 0 -1 0 0 3010.dat
1 14 300 -240 250 1 0 0 0 1 0 0 0 1 3009.dat
1 14 310 -240 170 0 0 1 0 1 0 -1 0 0 3622.dat
1 191 70 -248 130 1 0 0 0 1 0 0 0 1 3005.dat
1 14 310 -256 230 1 0 0 0 1 0 0 0 1 3005.dat
1 14 310 -264 160 0 0 1 0 1 0 -1 0 0 3010.dat
1 14 300 -272 210 1 0 0 0 1 0 0 0 1 3008.dat
1 14 310 -280 240 0 0 1 0 1 0 -1 0 0 3004.dat
1 14 310 -288 160 0 0 1 0 1 0 -1 0 0 3010.dat
1 14 310 -304 240 0 0 1 0 1 0 -1 0 0 3004.dat
1 14 300 -312 210 1 0 0 0 1 0 0 0 1 3008.dat
1 14 350 -320 110 1 0 0 0 1 0 0 0 1 3005.dat
1 191 370 -320 110 1 0 0 0 1 0 0 0 1 3005.dat
1 191 410 -328 150 1 0 0 0 1 0 0 0 1 3005.dat
1 14 180 -344 180 0 0 1 0 1 0 -1 0 0 3001.dat
1 14 190 -344 230 1 0 0 0 1 0 0 0 1 3622.dat
1 14 260 -344 110 1 0 0 0 1 0 0 0 1 3008.dat
1 14 200 -344 130 1 0 0 0 1 0 0 0 1 3004.dat
1 14 200 -344 250 1 0 0 0 1 0 0 0 1 3004.dat
1 14 210 -344 180 0 0 1 0 1 0 -1 0 0 3010.dat
1 14 240 -344 270 1 0 0 0 1 0 0 0 1 3010.dat
1 14 300 -344 70 1 0 0 0 1 0 0 0 1 3008.dat
1 14 300 -344 210 1 0 0 0 1 0 0 0 1 3008.dat
1 14 300 -344 290 1 0 0 0 1 0 0 0 1 3008.dat
1 14 300 -344 310 1 0 0 0 1 0 0 0 1 3004.dat
1 14 310 -344 90 1 0 0 0 1 0 0 0 1 3005.dat
1 14 310 -344 160 0 0 1 0 1 0 -1 0 0 3010.dat
1 14 310 -344 250 0 0 1 0 1 0 -1 0 0 3622.dat
1 14 360 -344 270 1 0 0 0 1 0 0 0 1 3010.dat
1 14 240 -360 90 1 0 0 0 1 0 0 0 1 3010.dat
1 14 280 -368 270 1 0 0 0 1 0 0 0 1 3008.dat
1 14 310 -368 160 0 0 1 0 1 0 -1 0 0 3010.dat
1 14 310 -368 240 0 0 1 0 1 0 -1 0 0 3004.dat
1 14 430 -368 210 1 0 0 0 1 0 0 0 1 3005.dat
1 14 300 -392 210 1 0 0 0 1 0 0 0 1 3008.dat
1 14 310 -392 240 0 0 1 0 1 0 -1 0 0 3004.dat
1 14 400 -392 210 1 0 0 0 1 0 0 0 1 3004.dat
1 14 400 -400 160 0 0 1 0 1 0 -1 0 0 3001.dat
1 14 310 -408 160 0 0 1 0 1 0 -1 0 0 3010.dat
1 14 180 -8 120 1 0 0 0 1 0 0 0 1 3034.dat
1 14 180 -8 160 1 0 0 0 1 0 0 0 1 3034.dat
1 14 180 -8 200 1 0 0 0 1 0 0 0 1 3034.dat
1 14 180 -8 240 1 0 0 0 1 0 0 0 1 3034.dat
1 14 200 -8 90 1 0 0 0 1 0 0 0 1 3460.dat
1 14 200 -8 270 1 0 0 0 1 0 0 0 1 3460.dat
1 14 220 -8 70 1 0 0 0 1 0 0 0 1 3460.dat
1 14 220 -8 290 1 0 0 0 1 0 0 0 1 3460.dat
1 14 280 -8 180 0 0 1 0 1 0 -1 0 0 3034.dat
1 14 320 -8 90 1 0 0 0 1 0 0 0 1 3710.dat
1 14 320 -8 270 1 0 0 0 1 0 0 0 1 3710.dat
1 14 320 -8 70 1 0 0 0 1 0 0 0 1 3023.dat
1 14 320 -8 180 0 0 1 0 1 0 -1 0 0 3034.dat
1 14 310 -8 290 1 0 0 0 1 0 0 0 1 3024.dat
1 14 360 -8 180 0 0 1 0 1 0 -1 0 0 3034.dat
1 14 370 -8 270 1 0 0 0 1 0 0 0 1 3024.dat
1 14 390 -8 180 0 0 1 0 1 0 -1 0 0 3666.dat
1 14 160 -16 120 1 0 0 0 1 0 0 0 1 3034.dat
1 14 160 -16 160 1 0 0 0 1 0 0 0 1 3034.dat
1 14 160 -16 200 1 0 0 0 1 0 0 0 1 3034.dat
1 14 160 -16 240 1 0 0 0 1 0 0 0 1 3034.dat
1 14 180 -16 90 1 0 0 0 1 0 0 0 1 3460.dat
1 14 180 -16 270 1 0 0 0 1 0 0 0 1 3460.dat
1 14 200 -16 70 1 0 0 0 1 0 0 0 1 3460.dat
1 14 200 -16 290 1 0 0 0 1 0 0 0 1 3460.dat
1 14 220 -16 50 1 0 0 0 1 0 0 0 1 3666.dat
1 14 220 -16 310 1 0 0 0 1 0 0 0 1 3666.dat
1 14 320 -16 120 1 0 0 0 1 0 0 0 1 3034.dat
1 14 320 -16 160 1 0 0 0 1 0 0 0 1 3034.dat
1 14 320 -16 200 1 0 0 0 1 0 0 0 1 3034.dat
1 14 320 -16 240 1 0 0 0 1 0 0 0 1 3034.dat
1 14 320 -16 90 1 0 0 0 1 0 0 0 1 3666.dat
1 14 320 -16 270 1 0 0 0 1 0 0 0 1 3666.dat
1 14 290 -16 60 0 0 1 0 1 0 -1 0 0 3023.dat
1 14 320 -16 290 1 0 0 0 1 0 0 0 1 3710.dat
1 14 290 -16 310 1 0 0 0 1 0 0 0 1 3024.dat
1 14 330 -16 70 1 0 0 0 1 0 0 0 1 3623.dat
1 14 390 -16 90 1 0 0 0 1 0 0 0 1 3024.dat
1 14 390 -16 270 1 0 0 0 1 0 0 0 1 3024.dat
1 14 410 -16 160 0 0 1 0 1 0 -1 0 0 3666.dat
1 14 410 -16 230 1 0 0 0 1 0 0 0 1 3024.dat
1 14 80 -24 160 0 0 1 0 1 0 -1 0 0 3795.dat
1 14 90 -24 230 1 0 0 0 1 0 0 0 1 3623.dat
1 14 100 -24 90 1 0 0 0 1 0 0 0 1 3023.dat
1 14 100 -24 260 1 0 0 0 1 0 0 0 1 3022.dat
1 14 180 -24 70 1 0 0 0 1 0 0 0 1 3460.dat
1 14 180 -24 110 1 0 0 0 1 0 0 0 1 3460.dat
1 14 110 -24 160 0 0 1 0 1 0 -1 0 0 3710.dat
1 14 180 -24 210 1 0 0 0 1 0 0 0 1 3460.dat
1 14 180 -24 290 1 0 0 0 1 0 0 0 1 3460.dat
1 14 200 -24 50 1 0 0 0 1 0 0 0 1 3460.dat
1 14 130 -24 270 1 0 0 0 1 0 0 0 1 3070b.dat
1 14 220 -24 310 1 0 0 0 1 0 0 0 1 3460.dat
1 14 210 -24 90 1 0 0 0 1 0 0 0 1 3024.dat
1 14 210 -24 250 0 0 1 0 1 0 -1 0 0 3623.dat
1 14 320 -24 70 1 0 0 0 1 0 0 0 1 3666.dat
1 14 340 -24 110 1 0 0 0 1 0 0 0 1 3460.dat
1 14 340 -24 210 1 0 0 0 1 0 0 0 1 3460.dat
1 14 320 -24 290 1 0 0 0 1 0 0 0 1 3666.dat
1 14 310 -24 50 1 0 0 0 1 0 0 0 1 3623.dat
1 14 310 -24 250 0 0 1 0 1 0 -1 0 0 3623.dat
1 14 320 -24 310 1 0 0 0 1 0 0 0 1 3023.dat
1 14 380 -24 90 1 0 0 0 1 0 0 0 1 3710.dat
1 14 370 -24 270 1 0 0 0 1 0 0 0 1 3623.dat
1 14 400 -24 130 1 0 0 0 1 0 0 0 1 3023.dat
1 14 400 -24 240 1 0 0 0 1 0 0 0 1 3022.dat
1 14 420 -24 170 0 0 1 0 1 0 -1 0 0 3021.dat
1 14 430 -24 210 1 0 0 0 1 0 0 0 1 3024.dat
1 14 60 -32 180 0 0 1 0 1 0 -1 0 0 3020.dat
1 14 90 -32 100 1 0 0 0 1 0 0 0 1 3021.dat
1 14 90 -32 130 1 0 0 0 1 0 0 0 1 3623.dat
1 14 90 -32 240 1 0 0 0 1 0 0 0 1 3021.dat
1 14 140 -32 70 1 0 0 0 1 0 0 0 1 3666.dat
1 14 100 -32 280 1 0 0 0 1 0 0 0 1 3022.dat
1 14 180 -32 50 1 0 0 0 1 0 0 0 1 3460.dat
1 14 110 -32 170 0 0 1 0 1 0 -1 0 0 3623.dat
1 14 200 -32 110 1 0 0 0 1 0 0 0 1 3460.dat
1 14 160 -32 300 1 0 0 0 1 0 0 0 1 3020.dat
1 14 240 -32 30 1 0 0 0 1 0 0 0 1 3710.dat
1 14 210 -32 280 0 0 1 0 1 0 -1 0 0 3666.dat
1 14 280 -32 310 1 0 0 0 1 0 0 0 1 3666.dat
1 14 230 -32 330 1 0 0 0 1 0 0 0 1 3024.dat
1 14 320 -32 290 1 0 0 0 1 0 0 0 1 3460.dat
1 14 300 -32 50 1 0 0 0 1 0 0 0 1 3710.dat
1 14 340 -32 70 1 0 0 0 1 0 0 0 1 3666.dat
1 14 360 -32 110 1 0 0 0 1 0 0 0 1 3460.dat
1 14 310 -32 250 0 0 1 0 1 0 -1 0 0 3623.dat
1 14 350 -32 50 1 0 0 0 1 0 0 0 1 3024.dat
1 14 350 -32 310 1 0 0 0 1 0 0 0 1 3024.dat
1 14 390 -32 90 1 0 0 0 1 0 0 0 1 3623.dat
1 14 390 -32 270 1 0 0 0 1 0 0 0 1 3623.dat
1 14 400 -32 250 1 0 0 0 1 0 0 0 1 3023.dat
1 14 420 -32 180 0 0 1 0 1 0 -1 0 0 3795.dat
1 14 60 -40 160 0 0 1 0 1 0 -1 0 0 3795.dat
1 14 60 -40 230 1 0 0 0 1 0 0 0 1 3023.dat
1 14 90 -40 90 1 0 0 0 1 0 0 0 1 3623.dat
1 14 90 -40 260 1 0 0 0 1 0 0 0 1 3021.dat
1 14 120 -40 70 1 0 0 0 1 0 0 0 1 3710.dat
1 14 160 -40 110 1 0 0 0 1 0 0 0 1 3460.dat
1 14 120 -40 290 1 0 0 0 1 0 0 0 1 3710.dat
1 14 180 -40 50 1 0 0 0 1 0 0 0 1 3460.dat
1 14 110 -40 230 1 0 0 0 1 0 0 0 1 3024.dat
1 14 180 -40 310 1 0 0 0 1 0 0 0 1 3460.dat
1 14 220 -40 30 1 0 0 0 1 0 0 0 1 3666.dat
1 14 220 -40 330 1 0 0 0 1 0 0 0 1 3666.dat
1 14 320 -40 110 1 0 0 0 1 0 0 0 1 3460.dat
1 14 320 -40 50 1 0 0 0 1 0 0 0 1 3666.dat
1 14 320 -40 310 1 0 0 0 1 0 0 0 1 3666.dat
1 14 290 -40 30 1 0 0 0 1 0 0 0 1 3024.dat
1 14 290 -40 330 1 0 0 0 1 0 0 0 1 3024.dat
1 14 340 -40 70 1 0 0 0 1 0 0 0 1 3710.dat
1 14 360 -40 290 1 0 0 0 1 0 0 0 1 3710.dat
1 14 390 -40 80 0 0 1 0 1 0 -1 0 0 3023.dat
1 14 400 -40 270 1 0 0 0 1 0 0 0 1 3023.dat
1 14 410 -40 160 0 0 1 0 1 0 -1 0 0 3460.dat
1 14 420 -40 250 1 0 0 0 1 0 0 0 1 3023.dat
1 14 430 -40 160 0 0 1 0 1 0 -1 0 0 3666.dat
1 14 430 -40 230 1 0 0 0 1 0 0 0 1 3024.dat
1 14 60 -48 250 1 0 0 0 1 0 0 0 1 3023.dat
1 14 70 -48 140 0 0 1 0 1 0 -1 0 0 3460.dat
1 14 100 -48 290 1 0 0 0 1 0 0 0 1 3710.dat
1 14 220 -48 30 1 0 0 0 1 0 0 0 1 3460.dat
1 14 220 -48 330 1 0 0 0 1 0 0 0 1 3460.dat
1 14 310 -48 100 0 0 1 0 1 0 -1 0 0 3460.dat
1 14 310 -48 330 1 0 0 0 1 0 0 0 1 3024.dat
1 14 410 -48 140 0 0 1 0 1 0 -1 0 0 3460.dat
1 14 410 -48 290 1 0 0 0 1 0 0 0 1 3024.dat
1 14 450 -48 180 0 0 1 0 1 0 -1 0 0 3710.dat
1 14 50 -48 160 0 0 1 0 1 0 -1 0 0 3666.dat
1 14 60 -48 230 1 0 0 0 1 0 0 0 1 3023.dat
1 14 90 -48 270 1 0 0 0 1 0 0 0 1 3623.dat
1 14 100 -48 90 0 0 1 0 1 0 -1 0 0 3021.dat
1 14 110 -48 240 0 0 1 0 1 0 -1 0 0 3023.dat
1 14 180 -48 310 1 0 0 0 1 0 0 0 1 3460.dat
1 14 130 -48 70 1 0 0 0 1 0 0 0 1 3070b.dat
1 14 200 -48 110 1 0 0 0 1 0 0 0 1 3460.dat
1 14 270 -48 50 1 0 0 0 1 0 0 0 1 3623.dat
1 14 320 -48 310 1 0 0 0 1 0 0 0 1 3666.dat
1 14 290 -48 110 1 0 0 0 1 0 0 0 1 3024.dat
1 14 310 -48 190 1 0 0 0 1 0 0 0 1 3024.dat
1 14 350 -48 60 1 0 0 0 1 0 0 0 1 3021.dat
1 14 360 -48 110 1 0 0 0 1 0 0 0 1 3710.dat
1 14 360 -48 290 1 0 0 0 1 0 0 0 1 3710.dat
1 14 390 -48 80 0 0 1 0 1 0 -1 0 0 3023.dat
1 14 400 -48 270 1 0 0 0 1 0 0 0 1 3023.dat
1 14 420 -48 240 1 0 0 0 1 0 0 0 1 3022.dat
1 14 430 -48 160 0 0 1 0 1 0 -1 0 0 3666.dat
1 14 40 -56 160 0 0 1 0 1 0 -1 0 0 3020.dat
1 14 100 -56 210 1 0 0 0 1 0 0 0 1 3460.dat
1 14 60 -56 100 1 0 0 0 1 0 0 0 1 3022.dat
1 14 60 -56 240 1 0 0 0 1 0 0 0 1 3022.dat
1 14 90 -56 70 1 0 0 0 1 0 0 0 1 3623.dat
1 14 90 -56 280 1 0 0 0 1 0 0 0 1 3021.dat
1 14 160 -56 110 1 0 0 0 1 0 0 0 1 3460.dat
1 14 110 -56 240 0 0 1 0 1 0 -1 0 0 3023.dat
1 14 200 -56 330 1 0 0 0 1 0 0 0 1 3460.dat
1 14 260 -56 210 1 0 0 0 1 0 0 0 1 3460.dat
1 14 210 -56 80 0 0 1 0 1 0 -1 0 0 3023.dat
1 14 320 -56 50 1 0 0 0 1 0 0 0 1 3460.dat
1 14 320 -56 110 1 0 0 0 1 0 0 0 1 3460.dat
1 14 310 -56 30 1 0 0 0 1 0 0 0 1 3623.dat
1 14 310 -56 330 1 0 0 0 1 0 0 0 1 3623.dat
1 14 380 -56 70 1 0 0 0 1 0 0 0 1 3710.dat
1 14 400 -56 210 1 0 0 0 1 0 0 0 1 3666.dat
1 14 380 -56 290 1 0 0 0 1 0 0 0 1 3710.dat
1 14 420 -56 140 0 0 1 0 1 0 -1 0 0 3795.dat
1 14 420 -56 250 0 0 1 0 1 0 -1 0 0 3021.dat
1 14 450 -56 230 1 0 0 0 1 0 0 0 1 3024.dat
1 14 40 -64 180 0 0 1 0 1 0 -1 0 0 3795.dat
1 14 60 -64 100 1 0 0 0 1 0 0 0 1 3022.dat
1 14 60 -64 260 1 0 0 0 1 0 0 0 1 3022.dat
1 14 90 -64 70 1 0 0 0 1 0 0 0 1 3623.dat
1 14 90 -64 290 1 0 0 0 1 0 0 0 1 3623.dat
1 14 160 -64 110 1 0 0 0 1 0 0 0 1 3460.dat
1 14 200 -64 330 1 0 0 0 1 0 0 0 1 3460.dat
1 14 210 -64 80 0 0 1 0 1 0 -1 0 0 3023.dat
1 14 250 -64 10 1 0 0 0 1 0 0 0 1 3024.dat
1 14 320 -64 110 1 0 0 0 1 0 0 0 1 3460.dat
1 14 320 -64 50 1 0 0 0 1 0 0 0 1 3666.dat
1 14 320 -64 30 1 0 0 0 1 0 0 0 1 3710.dat
1 14 320 -64 330 1 0 0 0 1 0 0 0 1 3710.dat
1 14 390 -64 70 1 0 0 0 1 0 0 0 1 3623.dat
1 14 390 -64 290 1 0 0 0 1 0 0 0 1 3623.dat
1 14 390 -64 50 1 0 0 0 1 0 0 0 1 3024.dat
1 14 420 -64 140 0 0 1 0 1 0 -1 0 0 3795.dat
1 14 420 -64 250 0 0 1 0 1 0 -1 0 0 3021.dat
1 14 450 -64 230 1 0 0 0 1 0 0 0 1 3024.dat
1 14 40 -72 180 0 0 1 0 1 0 -1 0 0 3034.dat
1 14 80 -72 70 1 0 0 0 1 0 0 0 1 3710.dat
1 14 60 -72 90 1 0 0 0 1 0 0 0 1 3023.dat
1 14 60 -72 270 1 0 0 0 1 0 0 0 1 3023.dat
1 14 120 -72 50 1 0 0 0 1 0 0 0 1 3666.dat
1 14 90 -72 290 1 0 0 0 1 0 0 0 1 3623.dat
1 14 240 -72 10 1 0 0 0 1 0 0 0 1 3666.dat
1 14 300 -72 330 1 0 0 0 1 0 0 0 1 3710.dat
1 14 320 -72 30 1 0 0 0 1 0 0 0 1 3710.dat
1 14 350 -72 330 1 0 0 0 1 0 0 0 1 3024.dat
1 14 390 -72 70 1 0 0 0 1 0 0 0 1 3623.dat
1 14 390 -72 290 1 0 0 0 1 0 0 0 1 3623.dat
1 14 390 -72 50 1 0 0 0 1 0 0 0 1 3024.dat
1 14 410 -72 110 1 0 0 0 1 0 0 0 1 3623.dat
1 14 420 -72 90 1 0 0 0 1 0 0 0 1 3023.dat
1 14 430 -72 240 1 0 0 0 1 0 0 0 1 3021.dat
1 14 420 -72 270 1 0 0 0 1 0 0 0 1 3023.dat
1 14 40 -80 180 0 0 1 0 1 0 -1 0 0 3034.dat
1 14 60 -80 80 1 0 0 0 1 0 0 0 1 3022.dat
1 14 60 -80 280 1 0 0 0 1 0 0 0 1 3022.dat
1 14 100 -80 50 1 0 0 0 1 0 0 0 1 3710.dat
1 14 140 -80 310 1 0 0 0 1 0 0 0 1 3460.dat
1 14 100 -80 70 1 0 0 0 1 0 0 0 1 3023.dat
1 14 100 -80 290 1 0 0 0 1 0 0 0 1 3023.dat
1 14 180 -80 30 1 0 0 0 1 0 0 0 1 3460.dat
1 14 110 -80 90 1 0 0 0 1 0 0 0 1 3024.dat
1 14 240 -80 10 1 0 0 0 1 0 0 0 1 3460.dat
1 14 300 -80 310 1 0 0 0 1 0 0 0 1 3460.dat
1 14 320 -80 30 1 0 0 0 1 0 0 0 1 3666.dat
1 14 320 -80 330 1 0 0 0 1 0 0 0 1 3666.dat
1 14 310 -80 80 0 0 1 0 1 0 -1 0 0 3023.dat
1 14 310 -80 160 0 0 1 0 1 0 -1 0 0 3710.dat
1 14 390 -80 60 0 0 1 0 1 0 -1 0 0 3023.dat
1 14 420 -80 110 1 0 0 0 1 0 0 0 1 3710.dat
1 14 400 -80 290 1 0 0 0 1 0 0 0 1 3023.dat
1 14 390 -80 310 1 0 0 0 1 0 0 0 1 3024.dat
1 14 410 -80 80 0 0 1 0 1 0 -1 0 0 3023.dat
1 14 420 -80 250 0 0 1 0 1 0 -1 0 0 3021.dat
1 14 430 -80 90 1 0 0 0 1 0 0 0 1 3024.dat
1 14 450 -80 160 0 0 1 0 1 0 -1 0 0 3710.dat
1 14 450 -80 240 0 0 1 0 1 0 -1 0 0 3023.dat
1 14 20 -88 170 0 0 1 0 1 0 -1 0 0 3021.dat
1 14 40 -88 110 0 0 1 0 1 0 -1 0 0 3021.dat
1 14 100 -88 210 1 0 0 0 1 0 0 0 1 3460.dat
1 14 40 -88 240 1 0 0 0 1 0 0 0 1 3022.dat
1 14 80 -88 70 1 0 0 0 1 0 0 0 1 3710.dat
1 14 60 -88 280 1 0 0 0 1 0 0 0 1 3022.dat
1 14 100 -88 50 1 0 0 0 1 0 0 0 1 3710.dat
1 14 140 -88 310 1 0 0 0 1 0 0 0 1 3460.dat
1 14 100 -88 290 1 0 0 0 1 0 0 0 1 3023.dat
1 14 180 -88 30 1 0 0 0 1 0 0 0 1 3460.dat
1 14 110 -88 90 1 0 0 0 1 0 0 0 1 3024.dat
1 14 110 -88 160 0 0 1 0 1 0 -1 0 0 3710.dat
1 14 110 -88 250 0 0 1 0 1 0 -1 0 0 3623.dat
1 14 240 -88 10 1 0 0 0 1 0 0 0 1 3460.dat
1 14 260 -88 210 1 0 0 0 1 0 0 0 1 3460.dat
1 14 210 -88 260 0 0 1 0 1 0 -1 0 0 3710.dat
1 14 300 -88 310 1 0 0 0 1 0 0 0 1 3460.dat
1 14 320 -88 30 1 0 0 0 1 0 0 0 1 3666.dat
1 14 320 -88 330 1 0 0 0 1 0 0 0 1 3666.dat
1 14 310 -88 80 0 0 1 0 1 0 -1 0 0 3023.dat
1 14 310 -88 160 0 0 1 0 1 0 -1 0 0 3710.dat
1 14 310 -88 260 0 0 1 0 1 0 -1 0 0 3710.dat
1 14 400 -88 210 1 0 0 0 1 0 0 0 1 3666.dat
1 14 390 -88 60 0 0 1 0 1 0 -1 0 0 3023.dat
1 14 420 -88 110 1 0 0 0 1 0 0 0 1 3710.dat
1 14 390 -88 300 0 0 1 0 1 0 -1 0 0 3023.dat
1 14 410 -88 80 0 0 1 0 1 0 -1 0 0 3023.dat
1 14 430 -88 240 1 0 0 0 1 0 0 0 1 3021.dat
1 14 420 -88 270 1 0 0 0 1 0 0 0 1 3023.dat
1 14 410 -88 290 1 0 0 0 1 0 0 0 1 3024.dat
1 14 430 -88 90 1 0 0 0 1 0 0 0 1 3024.dat
1 14 450 -88 160 0 0 1 0 1 0 -1 0 0 3710.dat
1 14 210 -96 220 0 0 1 0 1 0 -1 0 0 3460.dat
1 14 380 -96 210 1 0 0 0 1 0 0 0 1 3460.dat
1 14 110 -96 120 0 0 1 0 1 0 -1 0 0 3460.dat
1 14 420 -96 280 1 0 0 0 1 0 0 0 1 3022.dat
1 14 430 -96 160 1 0 0 0 1 0 0 0 1 3021.dat
1 14 200 -96 320 1 0 0 0 1 0 0 0 1 3034.dat
1 14 260 -96 30 1 0 0 0 1 0 0 0 1 3460.dat
1 14 390 -96 50 1 0 0 0 1 0 0 0 1 3623.dat
1 14 380 -96 110 1 0 0 0 1 0 0 0 1 3666.dat
1 14 350 -96 50 1 0 0 0 1 0 0 0 1 3024.dat
1 14 210 -96 110 0 0 1 0 1 0 -1 0 0 3623.dat
1 14 290 -96 210 1 0 0 0 1 0 0 0 1 3024.dat
1 14 210 -96 70 1 0 0 0 1 0 0 0 1 3024.dat
1 14 370 -96 330 1 0 0 0 1 0 0 0 1 3024.dat
1 14 320 -96 330 1 0 0 0 1 0 0 0 1 3710.dat
1 14 110 -96 260 0 0 1 0 1 0 -1 0 0 3666.dat
1 14 360 -96 310 1 0 0 0 1 0 0 0 1 3666.dat
1 14 80 -96 60 1 0 0 0 1 0 0 0 1 3022.dat
1 14 440 -96 130 1 0 0 0 1 0 0 0 1 3023.dat
1 14 30 -96 180 0 0 1 0 1 0 -1 0 0 3460.dat
1 14 420 -96 90 1 0 0 0 1 0 0 0 1 3023.dat
1 14 430 -96 250 1 0 0 0 1 0 0 0 1 3623.dat
1 14 260 -96 110 1 0 0 0 1 0 0 0 1 3710.dat
1 14 130 -96 40 0 0 1 0 1 0 -1 0 0 3023.dat
1 14 40 -96 270 1 0 0 0 1 0 0 0 1 3023.dat
1 14 90 -96 210 1 0 0 0 1 0 0 0 1 3024.dat
1 14 400 -96 70 1 0 0 0 1 0 0 0 1 3023.dat
1 14 450 -96 190 1 0 0 0 1 0 0 0 1 3024.dat
1 14 260 -96 10 1 0 0 0 1 0 0 0 1 3710.dat
1 14 70 -96 290 1 0 0 0 1 0 0 0 1 3623.dat
1 14 10 -96 190 0 0 1 0 1 0 -1 0 0 3623.dat
1 14 310 -96 140 0 0 1 0 1 0 -1 0 0 3710.dat
1 14 190 -96 210 1 0 0 0 1 0 0 0 1 3024.dat
1 14 80 -96 310 1 0 0 0 1 0 0 0 1 3023.dat
1 14 10 -96 140 0 0 1 0 1 0 -1 0 0 3023.dat
1 14 310 -96 270 0 0 1 0 1 0 -1 0 0 3623.dat
1 14 50 -96 230 0 0 1 0 1 0 -1 0 0 3623.dat
1 14 430 -96 190 1 0 0 0 1 0 0 0 1 3024.dat
1 14 290 -96 310 1 0 0 0 1 0 0 0 1 3024.dat
1 14 180 -96 110 1 0 0 0 1 0 0 0 1 3023.dat
1 14 70 -96 110 1 0 0 0 1 0 0 0 1 3623.dat
1 14 440 -96 230 1 0 0 0 1 0 0 0 1 3023.dat
1 14 40 -96 90 1 0 0 0 1 0 0 0 1 3023.dat
1 14 150 -96 210 1 0 0 0 1 0 0 0 1 3623.dat
1 14 450 -96 110 1 0 0 0 1 0 0 0 1 3024.dat
1 14 310 -96 190 1 0 0 0 1 0 0 0 1 3024.dat
1 14 50 -96 70 1 0 0 0 1 0 0 0 1 3024.dat
1 14 110 -96 330 1 0 0 0 1 0 0 0 1 3024.dat
1 14 390 -96 290 1 0 0 0 1 0 0 0 1 3024.dat
1 14 260 -96 210 1 0 0 0 1 0 0 0 1 3023.dat
1 14 190 -96 10 1 0 0 0 1 0 0 0 1 3623.dat
1 14 70 -96 210 1 0 0 0 1 0 0 0 1 3024.dat
1 14 140 -96 110 1 0 0 0 1 0 0 0 1 3023.dat
1 14 230 -96 210 1 0 0 0 1 0 0 0 1 3024.dat
1 14 410 -96 190 1 0 0 0 1 0 0 0 1 3024.dat
1 14 410 -96 230 1 0 0 0 1 0 0 0 1 3024.dat
1 14 370 -96 30 1 0 0 0 1 0 0 0 1 3024.dat
1 14 310 -96 10 1 0 0 0 1 0 0 0 1 3024.dat
1 14 210 -96 50 1 0 0 0 1 0 0 0 1 3024.dat
1 14 110 -96 30 1 0 0 0 1 0 0 0 1 3024.dat
1 14 350 -96 30 1 0 0 0 1 0 0 0 1 3024.dat
1 14 310 -96 90 1 0 0 0 1 0 0 0 1 3024.dat
1 14 330 -96 50 1 0 0 0 1 0 0 0 1 3024.dat
1 14 310 -96 70 1 0 0 0 1 0 0 0 1 3024.dat
1 14 170 -96 30 1 0 0 0 1 0 0 0 1 3024.dat
1 14 410 -96 130 1 0 0 0 1 0 0 0 1 3024.dat
1 14 310 -96 50 1 0 0 0 1 0 0 0 1 3024.dat
1 14 310 -96 230 1 0 0 0 1 0 0 0 1 3024.dat
1 191 150 -96 30 1 0 0 0 1 0 0 0 1 3024.dat
1 14 430 -104 140 0 0 1 0 1 0 -1 0 0 3460.dat
1 14 20 -104 160 0 0 1 0 1 0 -1 0 0 3020.dat
1 14 80 -104 210 1 0 0 0 1 0 0 0 1 3460.dat
1 14 40 -104 100 1 0 0 0 1 0 0 0 1 3022.dat
1 14 40 -104 250 0 0 1 0 1 0 -1 0 0 3021.dat
1 14 140 -104 110 1 0 0 0 1 0 0 0 1 3460.dat
1 14 140 -104 310 1 0 0 0 1 0 0 0 1 3460.dat
1 14 120 -104 30 1 0 0 0 1 0 0 0 1 3023.dat
1 14 180 -104 330 1 0 0 0 1 0 0 0 1 3460.dat
1 14 240 -104 20 1 0 0 0 1 0 0 0 1 3034.dat
1 14 240 -104 210 1 0 0 0 1 0 0 0 1 3460.dat
1 14 210 -104 70 0 0 1 0 1 0 -1 0 0 3623.dat
1 14 210 -104 160 0 0 1 0 1 0 -1 0 0 3710.dat
1 14 210 -104 260 0 0 1 0 1 0 -1 0 0 3710.dat
1 14 300 -104 310 1 0 0 0 1 0 0 0 1 3460.dat
1 14 320 -104 330 1 0 0 0 1 0 0 0 1 3666.dat
1 14 350 -104 30 1 0 0 0 1 0 0 0 1 3623.dat
1 14 360 -104 210 1 0 0 0 1 0 0 0 1 3710.dat
1 14 400 -104 70 1 0 0 0 1 0 0 0 1 3023.dat
1 14 400 -104 110 1 0 0 0 1 0 0 0 1 3023.dat
1 14 400 -104 300 1 0 0 0 1 0 0 0 1 3022.dat
1 14 410 -104 90 1 0 0 0 1 0 0 0 1 3024.dat
1 14 410 -104 200 0 0 1 0 1 0 -1 0 0 3460.dat
1 14 430 -104 260 0 0 1 0 1 0 -1 0 0 3710.dat
1 14 450 -104 180 0 0 1 0 1 0 -1 0 0 3460.dat
1 191 150 -104 40 0 0 1 0 1 0 -1 0 0 3023.dat
1 14 20 -112 180 0 0 1 0 1 0 -1 0 0 3795.dat
1 14 40 -112 100 1 0 0 0 1 0 0 0 1 3022.dat
1 14 40 -112 260 1 0 0 0 1 0 0 0 1 3022.dat
1 14 140 -112 110 1 0 0 0 1 0 0 0 1 3460.dat
1 14 180 -112 30 1 0 0 0 1 0 0 0 1 3460.dat
1 14 220 -112 330 1 0 0 0 1 0 0 0 1 3460.dat
1 14 240 -112 10 1 0 0 0 1 0 0 0 1 3460.dat
1 14 240 -112 310 1 0 0 0 1 0 0 0 1 3460.dat
1 14 210 -112 70 0 0 1 0 1 0 -1 0 0 3623.dat
1 14 210 -112 200 0 0 1 0 1 0 -1 0 0 3460.dat
1 14 210 -112 290 1 0 0 0 1 0 0 0 1 3024.dat
1 14 300 -112 210 1 0 0 0 1 0 0 0 1 3460.dat
1 14 320 -112 30 1 0 0 0 1 0 0 0 1 3666.dat
1 14 340 -112 330 1 0 0 0 1 0 0 0 1 3710.dat
1 14 360 -112 310 1 0 0 0 1 0 0 0 1 3710.dat
1 14 420 -112 210 1 0 0 0 1 0 0 0 1 3710.dat
1 14 400 -112 290 1 0 0 0 1 0 0 0 1 3023.dat
1 14 430 -112 240 1 0 0 0 1 0 0 0 1 3021.dat
1 14 420 -112 270 1 0 0 0 1 0 0 0 1 3023.dat
1 14 410 -112 310 1 0 0 0 1 0 0 0 1 3024.dat
1 14 450 -112 160 0 0 1 0 1 0 -1 0 0 3710.dat
1 191 130 -112 330 1 0 0 0 1 0 0 0 1 3024.dat
1 191 150 -112 50 1 0 0 0 1 0 0 0 1 3024.dat
1 14 20 -120 160 0 0 1 0 1 0 -1 0 0 3795.dat
1 14 20 -120 230 1 0 0 0 1 0 0 0 1 3023.dat
1 14 40 -120 90 1 0 0 0 1 0 0 0 1 3023.dat
1 14 40 -120 260 1 0 0 0 1 0 0 0 1 3022.dat
1 14 220 -120 330 1 0 0 0 1 0 0 0 1 3460.dat
1 14 240 -120 20 1 0 0 0 1 0 0 0 1 3034.dat
1 14 240 -120 310 1 0 0 0 1 0 0 0 1 3460.dat
1 14 340 -120 330 1 0 0 0 1 0 0 0 1 3710.dat
1 14 350 -120 30 1 0 0 0 1 0 0 0 1 3623.dat
1 14 360 -120 310 1 0 0 0 1 0 0 0 1 3710.dat
1 14 400 -120 290 1 0 0 0 1 0 0 0 1 3023.dat
1 14 420 -120 250 0 0 1 0 1 0 -1 0 0 3021.dat
1 14 410 -120 310 1 0 0 0 1 0 0 0 1 3024.dat
1 14 450 -120 180 0 0 1 0 1 0 -1 0 0 3666.dat
1 14 450 -120 250 1 0 0 0 1 0 0 0 1 3024.dat
1 191 150 -120 40 0 0 1 0 1 0 -1 0 0 3023.dat
1 191 130 -120 330 1 0 0 0 1 0 0 0 1 3024.dat
1 191 130 -120 30 1 0 0 0 1 0 0 0 1 3024.dat
1 14 60 -128 70 1 0 0 0 1 0 0 0 1 3710.dat
1 14 40 -128 90 1 0 0 0 1 0 0 0 1 3023.dat
1 14 80 -128 50 1 0 0 0 1 0 0 0 1 3710.dat
1 14 110 -128 80 0 0 1 0 1 0 -1 0 0 3023.dat
1 14 130 -128 50 1 0 0 0 1 0 0 0 1 3024.dat
1 14 240 -128 30 1 0 0 0 1 0 0 0 1 3460.dat
1 14 240 -128 320 1 0 0 0 1 0 0 0 1 3034.dat
1 14 240 -128 10 1 0 0 0 1 0 0 0 1 3666.dat
1 14 310 -120 10 0 0 -1 0 1 0 1 0 0 54200.dat
1 14 360 -128 50 1 0 0 0 1 0 0 0 1 3666.dat
1 14 350 -128 30 1 0 0 0 1 0 0 0 1 3623.dat
1 14 350 -128 320 1 0 0 0 1 0 0 0 1 3021.dat
1 14 400 -128 300 1 0 0 0 1 0 0 0 1 3022.dat
1 14 430 -128 240 1 0 0 0 1 0 0 0 1 3021.dat
1 14 420 -128 270 1 0 0 0 1 0 0 0 1 3023.dat
1 14 450 -128 160 0 0 1 0 1 0 -1 0 0 3710.dat
1 14 450 -128 210 1 0 0 0 1 0 0 0 1 3024.dat
1 191 140 -128 30 1 0 0 0 1 0 0 0 1 3023.dat
1 191 140 -128 330 1 0 0 0 1 0 0 0 1 3023.dat
1 191 160 -128 50 1 0 0 0 1 0 0 0 1 3023.dat
1 14 40 -136 80 1 0 0 0 1 0 0 0 1 3022.dat
1 14 80 -136 50 1 0 0 0 1 0 0 0 1 3710.dat
1 14 90 -136 70 1 0 0 0 1 0 0 0 1 3623.dat
1 14 100 -136 310 1 0 0 0 1 0 0 0 1 3710.dat
1 14 110 -136 90 1 0 0 0 1 0 0 0 1 3024.dat
1 14 110 -136 330 1 0 0 0 1 0 0 0 1 3070b.dat
1 14 130 -136 50 1 0 0 0 1 0 0 0 1 3024.dat
1 14 240 -136 30 1 0 0 0 1 0 0 0 1 3460.dat
1 14 240 -136 330 1 0 0 0 1 0 0 0 1 3460.dat
1 14 240 -136 10 1 0 0 0 1 0 0 0 1 3666.dat
1 14 260 -136 310 1 0 0 0 1 0 0 0 1 3460.dat
1 14 340 -136 50 1 0 0 0 1 0 0 0 1 3710.dat
1 14 340 -136 30 1 0 0 0 1 0 0 0 1 3023.dat
1 14 350 -136 330 1 0 0 0 1 0 0 0 1 3623.dat
1 14 370 -136 310 1 0 0 0 1 0 0 0 1 3623.dat
1 14 400 -136 290 1 0 0 0 1 0 0 0 1 3023.dat
1 14 450 -136 180 0 0 1 0 1 0 -1 0 0 3666.dat
1 14 450 -136 250 1 0 0 0 1 0 0 0 1 3070b.dat
1 191 140 -136 30 1 0 0 0 1 0 0 0 1 3023.dat
1 191 140 -136 330 1 0 0 0 1 0 0 0 1 3023.dat
1 191 160 -136 50 1 0 0 0 1 0 0 0 1 3023.dat
1 191 160 -136 310 1 0 0 0 1 0 0 0 1 3023.dat
1 14 60 -144 70 1 0 0 0 1 0 0 0 1 3710.dat
1 14 40 -144 90 1 0 0 0 1 0 0 0 1 3023.dat
1 14 140 -144 310 1 0 0 0 1 0 0 0 1 3460.dat
1 14 110 -144 30 1 0 0 0 1 0 0 0 1 3070b.dat
1 14 110 -144 80 0 0 1 0 1 0 -1 0 0 3023.dat
1 14 260 -144 30 1 0 0 0 1 0 0 0 1 3460.dat
1 14 260 -144 330 1 0 0 0 1 0 0 0 1 3460.dat
1 14 260 -144 10 1 0 0 0 1 0 0 0 1 2431.dat
1 14 300 -144 310 1 0 0 0 1 0 0 0 1 3460.dat
1 14 340 -144 50 1 0 0 0 1 0 0 0 1 3710.dat
1 14 350 -144 30 1 0 0 0 1 0 0 0 1 3024.dat
1 14 350 -144 330 1 0 0 0 1 0 0 0 1 3024.dat
1 14 390 -144 290 1 0 0 0 1 0 0 0 1 3623.dat
1 14 390 -144 310 1 0 0 0 1 0 0 0 1 3024.dat
1 191 150 -144 30 1 0 0 0 1 0 0 0 1 3623.dat
1 191 150 -144 330 1 0 0 0 1 0 0 0 1 3623.dat
1 14 20 -152 180 0 0 1 0 1 0 -1 0 0 3034.dat
1 14 40 -152 80 1 0 0 0 1 0 0 0 1 3022.dat
1 14 40 -152 270 1 0 0 0 1 0 0 0 1 3023.dat
1 14 80 -152 290 1 0 0 0 1 0 0 0 1 3710.dat
1 14 90 -152 70 1 0 0 0 1 0 0 0 1 3623.dat
1 14 140 -152 310 1 0 0 0 1 0 0 0 1 3460.dat
1 14 110 -152 90 1 0 0 0 1 0 0 0 1 3024.dat
1 14 130 -152 30 1 0 0 0 1 0 0 0 1 3070b.dat
1 14 200 -152 330 1 0 0 0 1 0 0 0 1 3460.dat
1 14 240 -152 30 1 0 0 0 1 0 0 0 1 3460.dat
1 14 300 -152 50 1 0 0 0 1 0 0 0 1 3460.dat
1 14 300 -152 110 1 0 0 0 1 0 0 0 1 3460.dat
1 14 300 -152 310 1 0 0 0 1 0 0 0 1 3460.dat
1 14 320 -152 330 1 0 0 0 1 0 0 0 1 3710.dat
1 14 310 -152 260 0 0 1 0 1 0 -1 0 0 3710.dat
1 14 340 -152 30 1 0 0 0 1 0 0 0 1 3023.dat
1 14 390 -152 290 1 0 0 0 1 0 0 0 1 3623.dat
1 14 390 -152 310 1 0 0 0 1 0 0 0 1 3024.dat
1 191 150 -144 30 1 0 0 0 1 0 0 0 1 54200.dat
1 14 130 -160 70 1 0 0 0 1 0 0 0 1 3024.dat
1 14 130 -160 300 0 0 1 0 1 0 -1 0 0 3023.dat
1 14 380 -160 70 1 0 0 0 1 0 0 0 1 3710.dat
1 14 370 -160 300 1 0 0 0 1 0 0 0 1 3021.dat
1 14 20 -160 180 0 0 1 0 1 0 -1 0 0 3034.dat
1 14 60 -160 70 1 0 0 0 1 0 0 0 1 3710.dat
1 14 40 -160 90 1 0 0 0 1 0 0 0 1 3023.dat
1 14 40 -160 270 1 0 0 0 1 0 0 0 1 3023.dat
1 14 80 -160 290 1 0 0 0 1 0 0 0 1 3710.dat
1 14 90 -160 310 1 0 0 0 1 0 0 0 1 3623.dat
1 14 110 -160 80 0 0 1 0 1 0 -1 0 0 3023.dat
1 14 220 -160 320 1 0 0 0 1 0 0 0 1 3034.dat
1 14 240 -160 30 1 0 0 0 1 0 0 0 1 3460.dat
1 14 300 -160 50 1 0 0 0 1 0 0 0 1 3460.dat
1 14 300 -160 110 1 0 0 0 1 0 0 0 1 3460.dat
1 14 310 -160 280 0 0 1 0 1 0 -1 0 0 3666.dat
1 14 330 -160 30 1 0 0 0 1 0 0 0 1 3070b.dat
1 14 330 -160 320 0 0 1 0 1 0 -1 0 0 3023.dat
1 14 390 -160 50 1 0 0 0 1 0 0 0 1 3070b.dat
1 14 410 -160 110 1 0 0 0 1 0 0 0 1 3623.dat
1 14 420 -160 90 1 0 0 0 1 0 0 0 1 3023.dat
1 14 420 -160 250 0 0 1 0 1 0 -1 0 0 3021.dat
1 14 410 -160 290 1 0 0 0 1 0 0 0 1 3070b.dat
1 14 50 -168 270 0 0 1 0 1 0 -1 0 0 3623.dat
1 14 70 -168 100 0 0 1 0 1 0 -1 0 0 3023.dat
1 14 70 -168 280 0 0 1 0 1 0 -1 0 0 3023.dat
1 14 160 -168 70 1 0 0 0 1 0 0 0 1 3023.dat
1 14 160 -168 300 1 0 0 0 1 0 0 0 1 3022.dat
1 14 360 -168 70 1 0 0 0 1 0 0 0 1 3710.dat
1 14 350 -168 300 1 0 0 0 1 0 0 0 1 3021.dat
1 14 400 -168 100 1 0 0 0 1 0 0 0 1 3022.dat
1 14 400 -168 270 1 0 0 0 1 0 0 0 1 3023.dat
1 14 20 -168 160 0 0 1 0 1 0 -1 0 0 3795.dat
1 14 20 -168 230 1 0 0 0 1 0 0 0 1 3023.dat
1 14 40 -168 90 1 0 0 0 1 0 0 0 1 3023.dat
1 14 30 -168 260 0 0 1 0 1 0 -1 0 0 3023.dat
1 14 80 -168 70 1 0 0 0 1 0 0 0 1 3710.dat
1 14 50 -168 110 1 0 0 0 1 0 0 0 1 3024.dat
1 14 160 -168 50 1 0 0 0 1 0 0 0 1 3460.dat
1 14 160 -168 110 1 0 0 0 1 0 0 0 1 3460.dat
1 14 110 -168 300 1 0 0 0 1 0 0 0 1 3021.dat
1 14 110 -168 90 1 0 0 0 1 0 0 0 1 3024.dat
1 14 130 -168 70 1 0 0 0 1 0 0 0 1 3024.dat
1 14 240 -168 30 1 0 0 0 1 0 0 0 1 6636.dat
1 14 240 -168 320 1 0 0 0 1 0 0 0 1 3795.dat
1 14 210 -168 80 0 0 1 0 1 0 -1 0 0 3023.dat
1 14 210 -168 200 0 0 1 0 1 0 -1 0 0 3460.dat
1 14 210 -168 290 1 0 0 0 1 0 0 0 1 3024.dat
1 14 300 -168 210 1 0 0 0 1 0 0 0 1 3460.dat
1 14 300 -168 50 1 0 0 0 1 0 0 0 1 3666.dat
1 14 300 -168 110 1 0 0 0 1 0 0 0 1 3666.dat
1 14 310 -168 30 1 0 0 0 1 0 0 0 1 3070b.dat
1 14 310 -168 280 0 0 1 0 1 0 -1 0 0 3666.dat
1 14 370 -168 50 1 0 0 0 1 0 0 0 1 3024.dat
1 14 370 -168 110 1 0 0 0 1 0 0 0 1 3024.dat
1 14 420 -168 210 1 0 0 0 1 0 0 0 1 3710.dat
1 14 390 -168 290 1 0 0 0 1 0 0 0 1 3024.dat
1 14 410 -168 70 1 0 0 0 1 0 0 0 1 3070b.dat
1 14 420 -168 240 1 0 0 0 1 0 0 0 1 3022.dat
1 14 430 -168 110 1 0 0 0 1 0 0 0 1 3024.dat
1 14 450 -168 160 0 0 1 0 1 0 -1 0 0 3710.dat
1 14 20 -176 180 0 0 1 0 1 0 -1 0 0 3795.dat
1 14 60 -176 100 1 0 0 0 1 0 0 0 1 3020.dat
1 14 40 -176 260 1 0 0 0 1 0 0 0 1 3022.dat
1 14 120 -176 70 1 0 0 0 1 0 0 0 1 3460.dat
1 14 120 -176 290 1 0 0 0 1 0 0 0 1 3460.dat
1 14 90 -176 270 1 0 0 0 1 0 0 0 1 3623.dat
1 14 110 -176 140 0 0 1 0 1 0 -1 0 0 3666.dat
1 14 200 -176 50 1 0 0 0 1 0 0 0 1 3460.dat
1 14 200 -176 110 1 0 0 0 1 0 0 0 1 3460.dat
1 14 200 -176 310 1 0 0 0 1 0 0 0 1 3460.dat
1 14 280 -176 70 1 0 0 0 1 0 0 0 1 3460.dat
1 14 210 -176 90 1 0 0 0 1 0 0 0 1 3024.dat
1 14 210 -176 200 0 0 1 0 1 0 -1 0 0 3460.dat
1 14 230 -176 290 1 0 0 0 1 0 0 0 1 3623.dat
1 14 300 -176 210 1 0 0 0 1 0 0 0 1 3460.dat
1 14 270 -176 330 1 0 0 0 1 0 0 0 1 3070b.dat
1 14 320 -176 50 1 0 0 0 1 0 0 0 1 3710.dat
1 14 360 -176 110 1 0 0 0 1 0 0 0 1 3460.dat
1 14 320 -176 300 1 0 0 0 1 0 0 0 1 3020.dat
1 14 310 -176 90 1 0 0 0 1 0 0 0 1 3024.dat
1 14 310 -176 250 0 0 1 0 1 0 -1 0 0 3623.dat
1 14 370 -176 60 0 0 1 0 1 0 -1 0 0 3023.dat
1 14 380 -176 280 1 0 0 0 1 0 0 0 1 3022.dat
1 14 390 -176 80 0 0 1 0 1 0 -1 0 0 3023.dat
1 14 410 -176 210 1 0 0 0 1 0 0 0 1 3623.dat
1 14 410 -176 90 1 0 0 0 1 0 0 0 1 3024.dat
1 14 420 -176 240 1 0 0 0 1 0 0 0 1 3022.dat
1 14 410 -176 270 1 0 0 0 1 0 0 0 1 3024.dat
1 14 450 -176 180 0 0 1 0 1 0 -1 0 0 3069b.dat
1 14 20 -184 160 0 0 1 0 1 0 -1 0 0 3020.dat
1 14 80 -184 210 1 0 0 0 1 0 0 0 1 3460.dat
1 14 100 -184 100 1 0 0 0 1 0 0 0 1 3034.dat
1 14 40 -184 250 0 0 1 0 1 0 -1 0 0 3021.dat
1 14 120 -184 70 1 0 0 0 1 0 0 0 1 3460.dat
1 14 120 -184 290 1 0 0 0 1 0 0 0 1 3460.dat
1 14 120 -184 270 1 0 0 0 1 0 0 0 1 3666.dat
1 14 110 -184 160 0 0 1 0 1 0 -1 0 0 3710.dat
1 14 240 -184 210 1 0 0 0 1 0 0 0 1 3460.dat
1 14 200 -184 100 1 0 0 0 1 0 0 0 1 3022.dat
1 14 260 -184 310 1 0 0 0 1 0 0 0 1 4162.dat
1 14 260 -184 60 1 0 0 0 1 0 0 0 1 3795.dat
1 14 210 -184 160 0 0 1 0 1 0 -1 0 0 3710.dat
1 14 210 -184 260 0 0 1 0 1 0 -1 0 0 3710.dat
1 14 300 -184 110 1 0 0 0 1 0 0 0 1 3460.dat
1 14 300 -184 290 1 0 0 0 1 0 0 0 1 3460.dat
1 14 310 -184 90 1 0 0 0 1 0 0 0 1 3024.dat
1 14 310 -184 250 0 0 1 0 1 0 -1 0 0 3623.dat
1 14 330 -184 60 0 0 1 0 1 0 -1 0 0 3023.dat
1 14 380 -184 210 1 0 0 0 1 0 0 0 1 3666.dat
1 14 370 -184 80 1 0 0 0 1 0 0 0 1 3021.dat
1 14 380 -184 270 1 0 0 0 1 0 0 0 1 3710.dat
1 14 410 -184 110 1 0 0 0 1 0 0 0 1 3623.dat
1 14 400 -184 250 1 0 0 0 1 0 0 0 1 3023.dat
1 14 390 -184 290 1 0 0 0 1 0 0 0 1 3070b.dat
1 14 410 -184 90 1 0 0 0 1 0 0 0 1 3070b.dat
1 14 420 -184 160 0 0 1 0 1 0 -1 0 0 3020.dat
1 14 420 -184 230 1 0 0 0 1 0 0 0 1 3023.dat
1 14 140 -192 260 1 0 0 0 1 0 0 0 1 3022.dat
1 14 150 -192 130 1 0 0 0 1 0 0 0 1 3024.dat
1 14 260 -192 280 1 0 0 0 1 0 0 0 1 3034.dat
1 14 300 -192 100 1 0 0 0 1 0 0 0 1 3034.dat
1 14 20 -192 160 0 0 1 0 1 0 -1 0 0 3020.dat
1 14 80 -192 210 1 0 0 0 1 0 0 0 1 3460.dat
1 14 100 -192 100 1 0 0 0 1 0 0 0 1 3034.dat
1 14 40 -192 250 0 0 1 0 1 0 -1 0 0 3021.dat
1 14 80 -192 70 1 0 0 0 1 0 0 0 1 3069b.dat
1 14 90 -192 280 1 0 0 0 1 0 0 0 1 3021.dat
1 14 110 -192 160 0 0 1 0 1 0 -1 0 0 3710.dat
1 14 220 -192 70 1 0 0 0 1 0 0 0 1 3460.dat
1 14 160 -192 290 1 0 0 0 1 0 0 0 1 3069b.dat
1 14 240 -192 210 1 0 0 0 1 0 0 0 1 3460.dat
1 14 170 -192 270 1 0 0 0 1 0 0 0 1 3024.dat
1 14 200 -192 100 1 0 0 0 1 0 0 0 1 3022.dat
1 14 210 -192 160 0 0 1 0 1 0 -1 0 0 3710.dat
1 14 210 -192 240 0 0 1 0 1 0 -1 0 0 3023.dat
1 14 340 -192 70 1 0 0 0 1 0 0 0 1 3710.dat
1 14 380 -192 210 1 0 0 0 1 0 0 0 1 3666.dat
1 14 360 -192 280 1 0 0 0 1 0 0 0 1 3022.dat
1 14 390 -192 100 0 0 1 0 1 0 -1 0 0 3023.dat
1 14 390 -192 260 0 0 1 0 1 0 -1 0 0 3023.dat
1 14 410 -192 140 0 0 1 0 1 0 -1 0 0 3710.dat
1 14 420 -192 190 1 0 0 0 1 0 0 0 1 3023.dat
1 14 410 -192 240 0 0 1 0 1 0 -1 0 0 3023.dat
1 14 430 -192 150 0 0 1 0 1 0 -1 0 0 3623.dat
1 14 430 -192 230 1 0 0 0 1 0 0 0 1 3070b.dat
1 14 20 -200 170 0 0 1 0 1 0 -1 0 0 3021.dat
1 14 100 -200 110 1 0 0 0 1 0 0 0 1 3460.dat
1 14 40 -200 130 1 0 0 0 1 0 0 0 1 3023.dat
1 14 100 -200 210 1 0 0 0 1 0 0 0 1 3460.dat
1 14 40 -200 240 1 0 0 0 1 0 0 0 1 3022.dat
1 14 80 -200 90 1 0 0 0 1 0 0 0 1 3710.dat
1 14 70 -192 270 -1 0 0 0 1 0 0 0 -1 7825.dat
1 14 140 -200 250 1 0 0 0 1 0 0 0 1 3460.dat
1 14 160 -200 130 1 0 0 0 1 0 0 0 1 3666.dat
1 14 110 -200 170 0 0 1 0 1 0 -1 0 0 3623.dat
1 14 160 -200 230 1 0 0 0 1 0 0 0 1 3666.dat
1 14 180 -200 160 1 0 0 0 1 0 0 0 1 3020.dat
1 14 180 -200 190 1 0 0 0 1 0 0 0 1 3710.dat
1 14 240 -200 90 1 0 0 0 1 0 0 0 1 3460.dat
1 14 240 -200 270 1 0 0 0 1 0 0 0 1 3460.dat
1 14 260 -200 110 1 0 0 0 1 0 0 0 1 3460.dat
1 14 260 -200 210 1 0 0 0 1 0 0 0 1 3460.dat
1 14 280 -200 70 1 0 0 0 1 0 0 0 1 4162.dat
1 14 280 -200 290 1 0 0 0 1 0 0 0 1 3460.dat
1 14 360 -200 90 1 0 0 0 1 0 0 0 1 3710.dat
1 14 350 -200 270 1 0 0 0 1 0 0 0 1 3623.dat
1 14 380 -200 110 1 0 0 0 1 0 0 0 1 3710.dat
1 14 380 -200 210 1 0 0 0 1 0 0 0 1 3710.dat
1 14 390 -200 250 1 0 0 0 1 0 0 0 1 3623.dat
1 14 400 -200 140 1 0 0 0 1 0 0 0 1 3022.dat
1 14 400 -200 230 1 0 0 0 1 0 0 0 1 3023.dat
1 14 420 -200 180 1 0 0 0 1 0 0 0 1 3022.dat
1 14 430 -200 210 1 0 0 0 1 0 0 0 1 3070b.dat
1 14 40 -208 180 0 0 1 0 1 0 -1 0 0 3034.dat
1 14 70 -208 90 1 0 0 0 1 0 0 0 1 3623.dat
1 14 90 -208 110 1 0 0 0 1 0 0 0 1 3623.dat
1 14 140 -208 210 1 0 0 0 1 0 0 0 1 3460.dat
1 14 90 -208 250 1 0 0 0 1 0 0 0 1 3623.dat
1 14 120 -208 160 0 0 1 0 1 0 -1 0 0 3020.dat
1 14 160 -208 230 1 0 0 0 1 0 0 0 1 3666.dat
1 14 180 -208 160 1 0 0 0 1 0 0 0 1 3020.dat
1 14 180 -208 190 1 0 0 0 1 0 0 0 1 3710.dat
1 14 190 -208 130 1 0 0 0 1 0 0 0 1 3623.dat
1 14 220 -208 250 1 0 0 0 1 0 0 0 1 3666.dat
1 14 260 -208 110 1 0 0 0 1 0 0 0 1 3460.dat
1 14 280 -208 90 1 0 0 0 1 0 0 0 1 3460.dat
1 14 280 -208 270 1 0 0 0 1 0 0 0 1 3460.dat
1 14 300 -208 210 1 0 0 0 1 0 0 0 1 3460.dat
1 14 290 -208 290 1 0 0 0 1 0 0 0 1 3070b.dat
1 14 360 -208 250 1 0 0 0 1 0 0 0 1 3710.dat
1 14 370 -208 110 1 0 0 0 1 0 0 0 1 3623.dat
1 14 370 -208 90 1 0 0 0 1 0 0 0 1 3070b.dat
1 14 370 -208 270 1 0 0 0 1 0 0 0 1 3070b.dat
1 14 400 -208 180 0 0 1 0 1 0 -1 0 0 3795.dat
1 14 40 -216 160 0 0 1 0 1 0 -1 0 0 3795.dat
1 14 60 -216 230 1 0 0 0 1 0 0 0 1 3710.dat
1 14 70 -216 250 1 0 0 0 1 0 0 0 1 3623.dat
1 14 70 -216 100 0 0 1 0 1 0 -1 0 0 3023.dat
1 14 100 -216 210 1 0 0 0 1 0 0 0 1 3710.dat
1 14 100 -216 120 1 0 0 0 1 0 0 0 1 3022.dat
1 14 120 -216 170 0 0 1 0 1 0 -1 0 0 3021.dat
1 14 110 -216 230 1 0 0 0 1 0 0 0 1 3024.dat
1 14 220 -216 180 0 0 1 0 1 0 -1 0 0 3034.dat
1 14 300 -216 100 1 0 0 0 1 0 0 0 1 3795.dat
1 14 320 -216 210 1 0 0 0 1 0 0 0 1 3460.dat
1 14 280 -216 260 1 0 0 0 1 0 0 0 1 3020.dat
1 14 310 -216 230 1 0 0 0 1 0 0 0 1 3024.dat
1 14 350 -216 250 1 0 0 0 1 0 0 0 1 3623.dat
1 14 330 -216 270 1 0 0 0 1 0 0 0 1 3070b.dat
1 14 370 -216 230 1 0 0 0 1 0 0 0 1 3623.dat
1 14 370 -216 120 0 0 1 0 1 0 -1 0 0 3023.dat
1 14 390 -216 160 0 0 1 0 1 0 -1 0 0 3710.dat
1 14 410 -216 180 0 0 1 0 1 0 -1 0 0 2431.dat
1 14 40 -224 180 0 0 1 0 1 0 -1 0 0 3795.dat
1 14 70 -216 110 1 0 0 0 1 0 0 0 1 7825.dat
1 14 70 -224 250 1 0 0 0 1 0 0 0 1 3623.dat
1 14 90 -224 130 1 0 0 0 1 0 0 0 1 3623.dat
1 14 90 -224 220 1 0 0 0 1 0 0 0 1 3021.dat
1 14 100 -224 170 0 0 1 0 1 0 -1 0 0 3021.dat
1 14 240 -224 180 0 0 1 0 1 0 -1 0 0 3795.dat
1 14 300 -224 110 1 0 0 0 1 0 0 0 1 3666.dat
1 14 270 -224 130 1 0 0 0 1 0 0 0 1 3024.dat
1 14 320 -224 220 1 0 0 0 1 0 0 0 1 3795.dat
1 14 300 -224 90 1 0 0 0 1 0 0 0 1 3069b.dat
1 14 340 -224 130 1 0 0 0 1 0 0 0 1 3710.dat
1 14 380 -224 170 0 0 1 0 1 0 -1 0 0 3021.dat
1 14 390 -224 210 1 0 0 0 1 0 0 0 1 3070b.dat
1 14 40 -232 180 0 0 1 0 1 0 -1 0 0 3020.dat
1 14 50 -232 130 1 0 0 0 1 0 0 0 1 3024.dat
1 14 80 -232 230 1 0 0 0 1 0 0 0 1 3710.dat
1 14 90 -232 210 1 0 0 0 1 0 0 0 1 3623.dat
1 14 70 -232 250 1 0 0 0 1 0 0 0 1 3070b.dat
1 14 100 -232 160 0 0 1 0 1 0 -1 0 0 3020.dat
1 14 240 -232 180 0 0 1 0 1 0 -1 0 0 3795.dat
1 14 300 -232 110 1 0 0 0 1 0 0 0 1 3666.dat
1 14 320 -232 130 1 0 0 0 1 0 0 0 1 3666.dat
1 14 320 -232 220 1 0 0 0 1 0 0 0 1 3795.dat
1 14 360 -232 160 1 0 0 0 1 0 0 0 1 3022.dat
1 14 380 -232 190 1 0 0 0 1 0 0 0 1 3023.dat
1 14 90 -240 150 1 0 0 0 1 0 0 0 1 3623.dat
1 14 220 -240 180 0 0 1 0 1 0 -1 0 0 3020.dat
1 14 300 -240 100 1 0 0 0 1 0 0 0 1 3022.dat
1 14 310 -240 270 1 0 0 0 1 0 0 0 1 3623.dat
1 14 390 -240 180 0 0 1 0 1 0 -1 0 0 3710.dat
1 14 40 -240 180 1 0 0 0 1 0 0 0 1 3022.dat
1 14 50 -240 140 0 0 1 0 1 0 -1 0 0 3023.dat
1 14 70 -240 220 1 0 0 0 1 0 0 0 1 3021.dat
1 14 90 -240 130 1 0 0 0 1 0 0 0 1 3070b.dat
1 14 100 -240 180 1 0 0 0 1 0 0 0 1 3022.dat
1 14 110 -240 210 1 0 0 0 1 0 0 0 1 3070b.dat
1 14 250 -240 130 1 0 0 0 1 0 0 0 1 3623.dat
1 14 250 -240 230 1 0 0 0 1 0 0 0 1 3623.dat
1 14 260 -240 110 1 0 0 0 1 0 0 0 1 3023.dat
1 14 300 -240 210 1 0 0 0 1 0 0 0 1 3666.dat
1 14 340 -240 130 1 0 0 0 1 0 0 0 1 3710.dat
1 14 340 -240 110 1 0 0 0 1 0 0 0 1 3023.dat
1 14 360 -240 230 1 0 0 0 1 0 0 0 1 3023.dat
1 14 370 -240 180 0 0 1 0 1 0 -1 0 0 3710.dat
1 14 80 -248 160 1 0 0 0 1 0 0 0 1 3022.dat
1 14 90 -248 200 0 0 1 0 1 0 -1 0 0 3069b.dat
1 14 220 -248 180 0 0 1 0 1 0 -1 0 0 3795.dat
1 14 300 -248 110 1 0 0 0 1 0 0 0 1 3460.dat
1 14 300 -248 250 1 0 0 0 1 0 0 0 1 3460.dat
1 14 250 -248 130 1 0 0 0 1 0 0 0 1 3070b.dat
1 14 320 -248 210 1 0 0 0 1 0 0 0 1 3460.dat
1 14 300 -248 270 1 0 0 0 1 0 0 0 1 3666.dat
1 14 300 -248 90 1 0 0 0 1 0 0 0 1 3710.dat
1 14 350 -248 90 1 0 0 0 1 0 0 0 1 3024.dat
1 14 380 -248 160 0 0 1 0 1 0 -1 0 0 3020.dat
1 14 380 -248 230 1 0 0 0 1 0 0 0 1 3023.dat
1 191 50 -248 180 0 0 1 0 1 0 -1 0 0 2431.dat
1 191 70 -248 200 0 0 1 0 1 0 -1 0 0 3023.dat
1 14 70 -256 170 1 0 0 0 1 0 0 0 1 3070b.dat
1 14 200 -256 190 0 0 1 0 1 0 -1 0 0 3021.dat
1 14 280 -256 110 1 0 0 0 1 0 0 0 1 3460.dat
1 14 220 -256 140 1 0 0 0 1 0 0 0 1 3022.dat
1 14 220 -256 240 1 0 0 0 1 0 0 0 1 3022.dat
1 14 300 -256 90 1 0 0 0 1 0 0 0 1 3666.dat
1 14 300 -256 260 1 0 0 0 1 0 0 0 1 3795.dat
1 14 370 -256 110 0 0 1 0 1 0 -1 0 0 3623.dat
1 14 370 -256 240 0 0 1 0 1 0 -1 0 0 3023.dat
1 14 390 -256 160 0 0 1 0 1 0 -1 0 0 3666.dat
1 14 390 -256 230 1 0 0 0 1 0 0 0 1 3024.dat
1 14 410 -256 180 0 0 1 0 1 0 -1 0 0 3710.dat
1 191 70 -256 190 1 0 0 0 1 0 0 0 1 3070b.dat
1 14 200 -264 180 0 0 1 0 1 0 -1 0 0 3020.dat
1 14 200 -264 230 1 0 0 0 1 0 0 0 1 3023.dat
1 14 300 -264 100 1 0 0 0 1 0 0 0 1 3034.dat
1 14 300 -264 270 1 0 0 0 1 0 0 0 1 3460.dat
1 14 300 -264 70 1 0 0 0 1 0 0 0 1 3710.dat
1 14 290 -264 290 1 0 0 0 1 0 0 0 1 3623.dat
1 14 350 -264 70 1 0 0 0 1 0 0 0 1 3024.dat
1 14 390 -264 160 0 0 1 0 1 0 -1 0 0 3460.dat
1 14 390 -264 250 1 0 0 0 1 0 0 0 1 3024.dat
1 14 410 -264 180 0 0 1 0 1 0 -1 0 0 3666.dat
1 14 210 -264 120 0 0 1 0 1 0 -1 0 0 3023.dat
1 14 230 -264 250 1 0 0 0 1 0 0 0 1 3623.dat
1 14 230 -264 130 1 0 0 0 1 0 0 0 1 3070b.dat
1 14 350 -264 250 1 0 0 0 1 0 0 0 1 3623.dat
1 14 200 -272 180 0 0 1 0 1 0 -1 0 0 3795.dat
1 14 280 -272 110 1 0 0 0 1 0 0 0 1 3460.dat
1 14 220 -272 250 1 0 0 0 1 0 0 0 1 3023.dat
1 14 300 -272 90 1 0 0 0 1 0 0 0 1 3460.dat
1 14 300 -272 270 1 0 0 0 1 0 0 0 1 3460.dat
1 14 280 -272 290 1 0 0 0 1 0 0 0 1 3710.dat
1 14 320 -272 70 1 0 0 0 1 0 0 0 1 3666.dat
1 14 330 -272 290 1 0 0 0 1 0 0 0 1 3024.dat
1 14 370 -272 250 1 0 0 0 1 0 0 0 1 3623.dat
1 14 390 -272 110 1 0 0 0 1 0 0 0 1 3623.dat
1 14 390 -272 90 1 0 0 0 1 0 0 0 1 3024.dat
1 14 400 -272 180 0 0 1 0 1 0 -1 0 0 3795.dat
1 14 300 -280 110 1 0 0 0 1 0 0 0 1 3460.dat
1 14 210 -280 200 0 0 1 0 1 0 -1 0 0 3460.dat
1 14 300 -280 90 1 0 0 0 1 0 0 0 1 3460.dat
1 14 300 -280 70 1 0 0 0 1 0 0 0 1 3666.dat
1 14 410 -280 240 0 0 1 0 1 0 -1 0 0 3023.dat
1 14 320 -280 210 1 0 0 0 1 0 0 0 1 3460.dat
1 14 320 -280 280 1 0 0 0 1 0 0 0 1 3020.dat
1 14 270 -280 280 0 0 1 0 1 0 -1 0 0 3023.dat
1 14 250 -280 290 1 0 0 0 1 0 0 0 1 3024.dat
1 14 410 -280 210 1 0 0 0 1 0 0 0 1 3024.dat
1 14 380 -280 260 1 0 0 0 1 0 0 0 1 3022.dat
1 14 190 -280 230 0 0 1 0 1 0 -1 0 0 3623.dat
1 14 190 -280 180 0 0 1 0 1 0 -1 0 0 3023.dat
1 14 210 -280 100 0 0 1 0 1 0 -1 0 0 3023.dat
1 14 430 -280 170 1 0 0 0 1 0 0 0 1 3024.dat
1 14 410 -280 140 0 0 1 0 1 0 -1 0 0 3710.dat
1 14 230 -280 260 0 0 1 0 1 0 -1 0 0 3023.dat
1 14 250 -280 270 1 0 0 0 1 0 0 0 1 3024.dat
1 14 190 -280 140 0 0 1 0 1 0 -1 0 0 3023.dat
1 14 400 -280 190 1 0 0 0 1 0 0 0 1 3023.dat
1 14 390 -280 130 0 0 1 0 1 0 -1 0 0 3623.dat
1 14 390 -280 90 1 0 0 0 1 0 0 0 1 3024.dat
1 14 390 -280 230 1 0 0 0 1 0 0 0 1 3024.dat
1 14 230 -280 210 1 0 0 0 1 0 0 0 1 3024.dat
1 14 370 -280 70 1 0 0 0 1 0 0 0 1 3024.dat
1 14 190 -288 180 1 0 0 0 1 0 0 0 1 3021.dat
1 14 240 -288 210 1 0 0 0 1 0 0 0 1 3460.dat
1 14 260 -288 110 1 0 0 0 1 0 0 0 1 3460.dat
1 14 300 -288 290 1 0 0 0 1 0 0 0 1 3460.dat
1 14 320 -288 60 1 0 0 0 1 0 0 0 1 3022.dat
1 14 200 -288 140 1 0 0 0 1 0 0 0 1 3022.dat
1 14 200 -288 240 1 0 0 0 1 0 0 0 1 3022.dat
1 14 260 -288 90 1 0 0 0 1 0 0 0 1 3666.dat
1 14 280 -288 270 1 0 0 0 1 0 0 0 1 3460.dat
1 14 270 -288 70 1 0 0 0 1 0 0 0 1 3623.dat
1 14 360 -288 210 1 0 0 0 1 0 0 0 1 3710.dat
1 14 360 -288 90 0 0 1 0 1 0 -1 0 0 3021.dat
1 14 380 -288 270 1 0 0 0 1 0 0 0 1 3023.dat
1 14 390 -288 100 0 0 1 0 1 0 -1 0 0 3023.dat
1 14 400 -288 240 1 0 0 0 1 0 0 0 1 3022.dat
1 14 410 -288 160 0 0 1 0 1 0 -1 0 0 3710.dat
1 14 410 -288 210 1 0 0 0 1 0 0 0 1 3024.dat
1 25 450 -288 120 1 0 0 0 1 0 0 0 1 3021.dat
1 25 450 -288 150 1 0 0 0 1 0 0 0 1 3623.dat
1 191 410 -288 110 1 0 0 0 1 0 0 0 1 3024.dat
1 191 430 -288 180 0 0 1 0 1 0 -1 0 0 3023.dat
1 14 370 -296 90 0 0 1 0 1 0 -1 0 0 3623.dat
1 14 210 -296 260 0 0 1 0 1 0 -1 0 0 3023.dat
1 14 190 -296 210 1 0 0 0 1 0 0 0 1 3623.dat
1 14 200 -296 230 1 0 0 0 1 0 0 0 1 3023.dat
1 14 350 -296 290 1 0 0 0 1 0 0 0 1 3623.dat
1 14 190 -296 160 1 0 0 0 1 0 0 0 1 3021.dat
1 14 340 -296 270 1 0 0 0 1 0 0 0 1 3666.dat
1 14 300 -296 290 1 0 0 0 1 0 0 0 1 3023.dat
1 14 290 -296 100 1 0 0 0 1 0 0 0 1 3021.dat
1 14 210 -296 130 1 0 0 0 1 0 0 0 1 3024.dat
1 14 310 -296 190 1 0 0 0 1 0 0 0 1 3024.dat
1 14 310 -296 160 0 0 1 0 1 0 -1 0 0 3023.dat
1 14 300 -296 70 1 0 0 0 1 0 0 0 1 3666.dat
1 14 250 -296 290 1 0 0 0 1 0 0 0 1 3623.dat
1 14 230 -296 110 1 0 0 0 1 0 0 0 1 3623.dat
1 14 260 -296 270 1 0 0 0 1 0 0 0 1 3023.dat
1 14 390 -296 90 1 0 0 0 1 0 0 0 1 3024.dat
1 14 410 -296 250 1 0 0 0 1 0 0 0 1 3024.dat
1 14 210 -296 190 1 0 0 0 1 0 0 0 1 3024.dat
1 14 180 -296 190 1 0 0 0 1 0 0 0 1 3023.dat
1 14 190 -296 120 0 0 1 0 1 0 -1 0 0 3023.dat
1 14 310 -296 130 1 0 0 0 1 0 0 0 1 3024.dat
1 14 420 -296 210 1 0 0 0 1 0 0 0 1 3023.dat
1 14 250 -296 90 1 0 0 0 1 0 0 0 1 3024.dat
1 14 340 -296 50 1 0 0 0 1 0 0 0 1 3023.dat
1 14 400 -296 230 1 0 0 0 1 0 0 0 1 3023.dat
1 14 410 -296 130 1 0 0 0 1 0 0 0 1 3024.dat
1 14 390 -296 210 1 0 0 0 1 0 0 0 1 3024.dat
1 14 390 -296 250 1 0 0 0 1 0 0 0 1 3024.dat
1 14 190 -296 250 1 0 0 0 1 0 0 0 1 3024.dat
1 14 230 -296 270 1 0 0 0 1 0 0 0 1 3024.dat
1 14 310 -296 50 1 0 0 0 1 0 0 0 1 3024.dat
1 14 220 -296 90 1 0 0 0 1 0 0 0 1 3023.dat
1 14 340 -296 110 1 0 0 0 1 0 0 0 1 3023.dat
1 25 430 -296 100 1 0 0 0 1 0 0 0 1 3021.dat
1 25 450 -296 140 1 0 0 0 1 0 0 0 1 3021.dat
1 25 450 -296 170 1 0 0 0 1 0 0 0 1 3623.dat
1 25 450 -296 190 1 0 0 0 1 0 0 0 1 3024.dat
1 25 470 -296 110 1 0 0 0 1 0 0 0 1 3024.dat
1 191 390 -296 110 1 0 0 0 1 0 0 0 1 3024.dat
1 191 410 -296 170 0 0 1 0 1 0 -1 0 0 3623.dat
1 191 430 -296 190 1 0 0 0 1 0 0 0 1 3024.dat
1 14 180 -304 180 0 0 1 0 1 0 -1 0 0 3020.dat
1 14 260 -304 110 1 0 0 0 1 0 0 0 1 3460.dat
1 14 200 -304 130 1 0 0 0 1 0 0 0 1 3023.dat
1 14 200 -304 240 1 0 0 0 1 0 0 0 1 3022.dat
1 14 240 -304 90 1 0 0 0 1 0 0 0 1 3710.dat
1 14 210 -304 180 0 0 1 0 1 0 -1 0 0 3710.dat
1 14 280 -304 270 1 0 0 0 1 0 0 0 1 3460.dat
1 14 300 -304 70 1 0 0 0 1 0 0 0 1 3460.dat
1 14 300 -304 290 1 0 0 0 1 0 0 0 1 3460.dat
1 14 320 -304 50 1 0 0 0 1 0 0 0 1 3710.dat
1 14 310 -304 90 1 0 0 0 1 0 0 0 1 3024.dat
1 14 310 -304 160 0 0 1 0 1 0 -1 0 0 3710.dat
1 14 370 -304 90 1 0 0 0 1 0 0 0 1 3024.dat
1 14 380 -304 270 1 0 0 0 1 0 0 0 1 3023.dat
1 14 390 -304 110 1 0 0 0 1 0 0 0 1 3024.dat
1 14 400 -304 210 1 0 0 0 1 0 0 0 1 3023.dat
1 14 400 -304 250 1 0 0 0 1 0 0 0 1 3023.dat
1 14 410 -304 150 0 0 1 0 1 0 -1 0 0 3623.dat
1 14 420 -304 230 1 0 0 0 1 0 0 0 1 3023.dat
1 25 460 -304 140 0 0 1 0 1 0 -1 0 0 3020.dat
1 25 420 -304 100 1 0 0 0 1 0 0 0 1 3022.dat
1 25 440 -304 190 1 0 0 0 1 0 0 0 1 3023.dat
1 25 450 -304 90 1 0 0 0 1 0 0 0 1 3024.dat
1 191 390 -304 90 1 0 0 0 1 0 0 0 1 3024.dat
1 191 410 -304 190 1 0 0 0 1 0 0 0 1 3024.dat
1 191 430 -304 210 1 0 0 0 1 0 0 0 1 3024.dat
1 14 180 -312 180 0 0 1 0 1 0 -1 0 0 3020.dat
1 14 190 -312 230 1 0 0 0 1 0 0 0 1 3623.dat
1 14 260 -312 110 1 0 0 0 1 0 0 0 1 3460.dat
1 14 200 -312 130 1 0 0 0 1 0 0 0 1 3023.dat
1 14 200 -312 250 1 0 0 0 1 0 0 0 1 3023.dat
1 14 240 -312 90 1 0 0 0 1 0 0 0 1 3710.dat
1 14 210 -312 180 0 0 1 0 1 0 -1 0 0 3710.dat
1 14 280 -312 270 1 0 0 0 1 0 0 0 1 3460.dat
1 14 300 -312 70 1 0 0 0 1 0 0 0 1 3460.dat
1 14 300 -312 290 1 0 0 0 1 0 0 0 1 3460.dat
1 14 320 -312 50 1 0 0 0 1 0 0 0 1 3710.dat
1 14 310 -312 90 1 0 0 0 1 0 0 0 1 3024.dat
1 14 310 -312 160 0 0 1 0 1 0 -1 0 0 3710.dat
1 14 310 -312 240 0 0 1 0 1 0 -1 0 0 3023.dat
1 14 380 -312 90 1 0 0 0 1 0 0 0 1 3023.dat
1 14 380 -312 270 1 0 0 0 1 0 0 0 1 3023.dat
1 14 390 -312 110 1 0 0 0 1 0 0 0 1 3024.dat
1 14 390 -312 210 1 0 0 0 1 0 0 0 1 3024.dat
1 14 400 -312 250 1 0 0 0 1 0 0 0 1 3023.dat
1 14 410 -312 190 1 0 0 0 1 0 0 0 1 3024.dat
1 14 420 -312 230 1 0 0 0 1 0 0 0 1 3023.dat
1 25 410 -312 100 0 0 1 0 1 0 -1 0 0 3710.dat
1 25 410 -312 170 1 0 0 0 1 0 0 0 1 3024.dat
1 25 440 -312 120 0 0 1 0 1 0 -1 0 0 3020.dat
1 25 440 -312 190 1 0 0 0 1 0 0 0 1 3023.dat
1 25 460 -312 170 1 0 0 0 1 0 0 0 1 3023.dat
1 25 470 -312 150 1 0 0 0 1 0 0 0 1 3070b.dat
1 191 420 -312 210 1 0 0 0 1 0 0 0 1 3023.dat
1 14 360 -320 210 1 0 0 0 1 0 0 0 1 3666.dat
1 14 370 -320 70 1 0 0 0 1 0 0 0 1 3623.dat
1 14 180 -320 200 0 0 1 0 1 0 -1 0 0 3020.dat
1 14 390 -320 90 1 0 0 0 1 0 0 0 1 3024.dat
1 14 270 -320 100 0 0 1 0 1 0 -1 0 0 3023.dat
1 14 310 -320 280 0 0 1 0 1 0 -1 0 0 3710.dat
1 14 390 -320 260 0 0 1 0 1 0 -1 0 0 3023.dat
1 14 250 -320 100 0 0 1 0 1 0 -1 0 0 3023.dat
1 14 200 -320 140 1 0 0 0 1 0 0 0 1 3022.dat
1 14 310 -320 230 1 0 0 0 1 0 0 0 1 3024.dat
1 14 310 -320 120 0 0 1 0 1 0 -1 0 0 3666.dat
1 14 430 -320 230 1 0 0 0 1 0 0 0 1 3024.dat
1 14 210 -320 110 1 0 0 0 1 0 0 0 1 3623.dat
1 14 310 -320 190 1 0 0 0 1 0 0 0 1 3024.dat
1 14 250 -320 280 1 0 0 0 1 0 0 0 1 3021.dat
1 14 210 -320 220 0 0 1 0 1 0 -1 0 0 3710.dat
1 14 350 -320 280 1 0 0 0 1 0 0 0 1 3021.dat
1 14 340 -320 50 1 0 0 0 1 0 0 0 1 3023.dat
1 14 210 -320 170 1 0 0 0 1 0 0 0 1 3024.dat
1 14 220 -320 90 1 0 0 0 1 0 0 0 1 3023.dat
1 14 290 -320 110 1 0 0 0 1 0 0 0 1 3024.dat
1 14 290 -320 70 1 0 0 0 1 0 0 0 1 3024.dat
1 14 410 -320 190 1 0 0 0 1 0 0 0 1 3024.dat
1 14 260 -320 70 1 0 0 0 1 0 0 0 1 3023.dat
1 14 300 -320 50 1 0 0 0 1 0 0 0 1 3023.dat
1 14 170 -320 150 1 0 0 0 1 0 0 0 1 3024.dat
1 14 260 -320 210 1 0 0 0 1 0 0 0 1 3710.dat
1 14 410 -320 250 1 0 0 0 1 0 0 0 1 3024.dat
1 14 230 -320 70 1 0 0 0 1 0 0 0 1 3024.dat
1 14 290 -320 300 0 0 1 0 1 0 -1 0 0 3023.dat
1 14 370 -320 90 1 0 0 0 1 0 0 0 1 3024.dat
1 14 190 -320 250 1 0 0 0 1 0 0 0 1 3024.dat
1 14 330 -320 70 1 0 0 0 1 0 0 0 1 3024.dat
1 14 330 -320 110 1 0 0 0 1 0 0 0 1 3024.dat
1 14 410 -320 230 1 0 0 0 1 0 0 0 1 3024.dat
1 14 210 -320 270 1 0 0 0 1 0 0 0 1 3024.dat
1 25 410 -320 110 1 0 0 0 1 0 0 0 1 3623.dat
1 25 410 -320 80 0 0 1 0 1 0 -1 0 0 3023.dat
1 25 420 -320 130 1 0 0 0 1 0 0 0 1 3023.dat
1 25 440 -320 170 1 0 0 0 1 0 0 0 1 3710.dat
1 25 440 -320 90 1 0 0 0 1 0 0 0 1 3023.dat
1 25 430 -320 150 1 0 0 0 1 0 0 0 1 3024.dat
1 25 460 -320 190 1 0 0 0 1 0 0 0 1 3023.dat
1 191 430 -320 210 1 0 0 0 1 0 0 0 1 3024.dat
1 14 230 -328 90 1 0 0 0 1 0 0 0 1 3623.dat
1 14 300 -328 50 1 0 0 0 1 0 0 0 1 3710.dat
1 14 350 -328 50 1 0 0 0 1 0 0 0 1 3024.dat
1 14 360 -328 110 1 0 0 0 1 0 0 0 1 3023.dat
1 14 370 -328 90 1 0 0 0 1 0 0 0 1 3024.dat
1 14 390 -320 70 0 0 -1 0 1 0 1 0 0 54200.dat
1 14 400 -328 210 1 0 0 0 1 0 0 0 1 3023.dat
1 14 400 -328 250 1 0 0 0 1 0 0 0 1 3023.dat
1 14 420 -328 230 1 0 0 0 1 0 0 0 1 3023.dat
1 25 430 -328 100 1 0 0 0 1 0 0 0 1 3021.dat
1 25 420 -328 130 1 0 0 0 1 0 0 0 1 3023.dat
1 25 410 -328 170 1 0 0 0 1 0 0 0 1 3024.dat
1 25 440 -328 150 1 0 0 0 1 0 0 0 1 3023.dat
1 25 460 -328 180 1 0 0 0 1 0 0 0 1 3022.dat
1 191 390 -328 100 0 0 1 0 1 0 -1 0 0 3023.dat
1 191 410 -328 190 1 0 0 0 1 0 0 0 1 3024.dat
1 191 430 -328 210 1 0 0 0 1 0 0 0 1 3024.dat
1 14 400 -336 240 1 0 0 0 1 0 0 0 1 3022.dat
1 14 230 -336 90 1 0 0 0 1 0 0 0 1 3623.dat
1 14 300 -336 50 1 0 0 0 1 0 0 0 1 3710.dat
1 14 350 -336 50 1 0 0 0 1 0 0 0 1 3024.dat
1 14 370 -336 110 1 0 0 0 1 0 0 0 1 3623.dat
1 14 380 -336 90 1 0 0 0 1 0 0 0 1 3023.dat
1 14 410 -336 210 1 0 0 0 1 0 0 0 1 3623.dat
1 14 410 -336 190 1 0 0 0 1 0 0 0 1 3024.dat
1 25 420 -336 110 0 0 1 0 1 0 -1 0 0 3021.dat
1 25 410 -336 160 0 0 1 0 1 0 -1 0 0 3023.dat
1 25 450 -336 190 1 0 0 0 1 0 0 0 1 3623.dat
1 25 450 -336 120 0 0 1 0 1 0 -1 0 0 3710.dat
1 25 470 -336 170 1 0 0 0 1 0 0 0 1 3623.dat
1 25 470 -336 150 1 0 0 0 1 0 0 0 1 3024.dat
1 8 390 -344 230 1 0 0 0 1 0 0 0 1 3024.dat
1 14 320 -344 50 1 0 0 0 1 0 0 0 1 3710.dat
1 14 370 -344 110 1 0 0 0 1 0 0 0 1 3623.dat
1 14 380 -344 90 1 0 0 0 1 0 0 0 1 3023.dat
1 14 410 -344 210 1 0 0 0 1 0 0 0 1 3623.dat
1 14 400 -344 250 1 0 0 0 1 0 0 0 1 3023.dat
1 14 410 -344 180 0 0 1 0 1 0 -1 0 0 3023.dat
1 14 410 -344 230 1 0 0 0 1 0 0 0 1 3024.dat
1 25 440 -344 100 1 0 0 0 1 0 0 0 1 3020.dat
1 25 410 -344 150 1 0 0 0 1 0 0 0 1 3024.dat
1 25 450 -344 190 1 0 0 0 1 0 0 0 1 3623.dat
1 25 460 -344 130 1 0 0 0 1 0 0 0 1 3023.dat
1 25 470 -344 170 1 0 0 0 1 0 0 0 1 3623.dat
1 25 480 -344 150 1 0 0 0 1 0 0 0 1 3023.dat
1 191 410 -344 130 1 0 0 0 1 0 0 0 1 3024.dat
1 0 370 -352 100 0 0 1 0 1 0 -1 0 0 3023.dat
1 14 180 -352 180 0 0 1 0 1 0 -1 0 0 3020.dat
1 14 190 -352 230 1 0 0 0 1 0 0 0 1 3623.dat
1 14 260 -352 110 1 0 0 0 1 0 0 0 1 3460.dat
1 14 200 -352 130 1 0 0 0 1 0 0 0 1 3023.dat
1 14 200 -352 250 1 0 0 0 1 0 0 0 1 3023.dat
1 14 210 -352 180 0 0 1 0 1 0 -1 0 0 3710.dat
1 14 300 -352 70 1 0 0 0 1 0 0 0 1 3460.dat
1 14 300 -352 210 1 0 0 0 1 0 0 0 1 3460.dat
1 14 300 -352 290 1 0 0 0 1 0 0 0 1 3460.dat
1 14 310 -352 50 1 0 0 0 1 0 0 0 1 3623.dat
1 14 310 -352 90 1 0 0 0 1 0 0 0 1 3024.dat
1 14 350 -352 100 0 0 1 0 1 0 -1 0 0 3023.dat
1 14 380 -352 270 1 0 0 0 1 0 0 0 1 3023.dat
1 14 390 -352 100 0 0 1 0 1 0 -1 0 0 3023.dat
1 14 400 -352 230 0 0 1 0 1 0 -1 0 0 3021.dat
1 14 410 -352 140 0 0 1 0 1 0 -1 0 0 3023.dat
1 14 420 -352 190 1 0 0 0 1 0 0 0 1 3023.dat
1 25 450 -352 100 1 0 0 0 1 0 0 0 1 3021.dat
1 25 460 -352 170 1 0 0 0 1 0 0 0 1 3710.dat
1 25 460 -352 140 1 0 0 0 1 0 0 0 1 3022.dat
1 25 490 -352 150 1 0 0 0 1 0 0 0 1 3024.dat
1 191 410 -352 110 1 0 0 0 1 0 0 0 1 3024.dat
1 191 410 -352 170 1 0 0 0 1 0 0 0 1 3024.dat
1 0 360 -360 90 1 0 0 0 1 0 0 0 1 3023.dat
1 0 370 -360 210 1 0 0 0 1 0 0 0 1 3024.dat
1 14 310 -360 100 1 0 0 0 1 0 0 0 1 3021.dat
1 14 380 -360 260 1 0 0 0 1 0 0 0 1 3022.dat
1 14 180 -360 180 0 0 1 0 1 0 -1 0 0 3020.dat
1 14 220 -360 110 1 0 0 0 1 0 0 0 1 3710.dat
1 14 200 -360 130 1 0 0 0 1 0 0 0 1 3023.dat
1 14 200 -360 240 1 0 0 0 1 0 0 0 1 3022.dat
1 14 210 -360 180 0 0 1 0 1 0 -1 0 0 3710.dat
1 14 300 -360 70 1 0 0 0 1 0 0 0 1 3460.dat
1 14 280 -360 210 1 0 0 0 1 0 0 0 1 3666.dat
1 14 280 -360 290 1 0 0 0 1 0 0 0 1 3666.dat
1 14 270 -360 110 1 0 0 0 1 0 0 0 1 3024.dat
1 14 310 -360 50 1 0 0 0 1 0 0 0 1 3070b.dat
1 14 380 -360 110 1 0 0 0 1 0 0 0 1 3710.dat
1 14 350 -360 210 1 0 0 0 1 0 0 0 1 3024.dat
1 14 350 -360 290 1 0 0 0 1 0 0 0 1 3024.dat
1 14 390 -360 90 1 0 0 0 1 0 0 0 1 3024.dat
1 14 400 -360 220 1 0 0 0 1 0 0 0 1 3022.dat
1 14 410 -360 140 0 0 1 0 1 0 -1 0 0 3023.dat
1 14 420 -360 190 1 0 0 0 1 0 0 0 1 3023.dat
1 14 410 -360 250 1 0 0 0 1 0 0 0 1 3070b.dat
1 25 480 -360 140 0 0 1 0 1 0 -1 0 0 3020.dat
1 25 440 -360 170 1 0 0 0 1 0 0 0 1 3023.dat
1 25 470 -360 90 1 0 0 0 1 0 0 0 1 3024.dat
1 25 450 -360 110 1 0 0 0 1 0 0 0 1 3024.dat
1 25 430 -360 120 0 0 1 0 1 0 -1 0 0 3023.dat
1 25 450 -360 90 1 0 0 0 1 0 0 0 1 3024.dat
1 25 450 -360 150 1 0 0 0 1 0 0 0 1 3024.dat
1 191 410 -360 170 1 0 0 0 1 0 0 0 1 3024.dat
1 0 360 -368 80 1 0 0 0 1 0 0 0 1 3022.dat
1 0 400 -368 230 1 0 0 0 1 0 0 0 1 3023.dat
1 0 410 -368 210 1 0 0 0 1 0 0 0 1 3024.dat
1 8 370 -368 210 1 0 0 0 1 0 0 0 1 3024.dat
1 14 190 -368 180 1 0 0 0 1 0 0 0 1 3021.dat
1 14 240 -368 210 1 0 0 0 1 0 0 0 1 3460.dat
1 14 260 -368 110 1 0 0 0 1 0 0 0 1 3460.dat
1 14 200 -368 140 1 0 0 0 1 0 0 0 1 3022.dat
1 14 200 -368 240 1 0 0 0 1 0 0 0 1 3022.dat
1 14 260 -368 90 1 0 0 0 1 0 0 0 1 3666.dat
1 14 280 -368 70 1 0 0 0 1 0 0 0 1 3666.dat
1 14 280 -368 290 1 0 0 0 1 0 0 0 1 3666.dat
1 14 330 -368 90 1 0 0 0 1 0 0 0 1 3024.dat
1 14 340 -368 210 1 0 0 0 1 0 0 0 1 3023.dat
1 14 380 -368 110 1 0 0 0 1 0 0 0 1 3710.dat
1 14 350 -368 290 1 0 0 0 1 0 0 0 1 3024.dat
1 14 380 -368 260 1 0 0 0 1 0 0 0 1 3022.dat
1 14 390 -368 90 1 0 0 0 1 0 0 0 1 3024.dat
1 14 390 -368 210 1 0 0 0 1 0 0 0 1 3024.dat
1 14 410 -368 130 1 0 0 0 1 0 0 0 1 3024.dat
1 14 420 -368 180 1 0 0 0 1 0 0 0 1 3022.dat
1 25 460 -368 140 1 0 0 0 1 0 0 0 1 3020.dat
1 25 460 -368 100 1 0 0 0 1 0 0 0 1 3022.dat
1 25 480 -368 170 1 0 0 0 1 0 0 0 1 3069b.dat
1 25 490 -368 110 1 0 0 0 1 0 0 0 1 3024.dat
1 191 410 -368 150 1 0 0 0 1 0 0 0 1 3024.dat
1 0 360 -376 70 1 0 0 0 1 0 0 0 1 3023.dat
1 0 400 -376 230 1 0 0 0 1 0 0 0 1 3023.dat
1 8 350 -376 90 1 0 0 0 1 0 0 0 1 3024.dat
1 14 230 -376 260 0 0 1 0 1 0 -1 0 0 3023.dat
1 14 190 -376 170 1 0 0 0 1 0 0 0 1 3623.dat
1 14 200 -376 140 1 0 0 0 1 0 0 0 1 3022.dat
1 14 200 -376 220 0 0 1 0 1 0 -1 0 0 3020.dat
1 14 260 -376 100 1 0 0 0 1 0 0 0 1 3795.dat
1 14 210 -376 270 1 0 0 0 1 0 0 0 1 3024.dat
1 14 280 -376 70 1 0 0 0 1 0 0 0 1 3710.dat
1 14 300 -376 280 1 0 0 0 1 0 0 0 1 3795.dat
1 14 310 -376 160 0 0 1 0 1 0 -1 0 0 3710.dat
1 14 330 -376 90 0 0 1 0 1 0 -1 0 0 3623.dat
1 14 350 -376 110 1 0 0 0 1 0 0 0 1 3024.dat
1 14 380 -376 250 1 0 0 0 1 0 0 0 1 3023.dat
1 14 370 -376 270 1 0 0 0 1 0 0 0 1 3024.dat
1 14 390 -376 100 0 0 1 0 1 0 -1 0 0 3023.dat
1 14 410 -376 140 0 0 1 0 1 0 -1 0 0 3710.dat
1 14 420 -376 190 1 0 0 0 1 0 0 0 1 3023.dat
1 14 430 -376 170 1 0 0 0 1 0 0 0 1 3070b.dat
1 25 460 -376 130 1 0 0 0 1 0 0 0 1 3710.dat
1 25 470 -376 110 1 0 0 0 1 0 0 0 1 3623.dat
1 25 470 -376 90 1 0 0 0 1 0 0 0 1 3070b.dat
1 25 480 -376 150 1 0 0 0 1 0 0 0 1 3023.dat
1 72 370 -376 100 0 0 1 0 1 0 -1 0 0 3023.dat
1 191 430 -376 150 1 0 0 0 1 0 0 0 1 3070b.dat
1 0 350 -384 80 0 0 1 0 1 0 -1 0 0 3023.dat
1 0 390 -384 230 1 0 0 0 1 0 0 0 1 3024.dat
1 14 200 -384 180 0 0 1 0 1 0 -1 0 0 3795.dat
1 14 280 -384 110 1 0 0 0 1 0 0 0 1 3460.dat
1 14 220 -384 260 1 0 0 0 1 0 0 0 1 3022.dat
1 14 280 -384 90 1 0 0 0 1 0 0 0 1 3666.dat
1 14 280 -384 70 1 0 0 0 1 0 0 0 1 3710.dat
1 14 280 -384 280 1 0 0 0 1 0 0 0 1 3020.dat
1 14 310 -384 170 0 0 1 0 1 0 -1 0 0 3623.dat
1 14 330 -384 70 1 0 0 0 1 0 0 0 1 3024.dat
1 14 350 -384 270 1 0 0 0 1 0 0 0 1 3623.dat
1 14 330 -376 290 -1 0 0 0 1 0 0 0 -1 54200.dat
1 14 370 -384 250 1 0 0 0 1 0 0 0 1 3623.dat
1 14 390 -384 110 1 0 0 0 1 0 0 0 1 3623.dat
1 14 390 -384 90 1 0 0 0 1 0 0 0 1 3024.dat
1 15 310 -384 130 1 0 0 0 1 0 0 0 1 3024.dat
1 25 470 -384 130 0 0 1 0 1 0 -1 0 0 63864.dat
1 25 490 -384 140 0 0 1 0 1 0 -1 0 0 3069b.dat
1 71 370 -384 90 1 0 0 0 1 0 0 0 1 3024.dat
1 71 410 -376 230 -1 0 0 0 1 0 0 0 -1 54200.dat
1 0 390 -392 230 1 0 0 0 1 0 0 0 1 3024.dat
1 14 200 -392 180 0 0 1 0 1 0 -1 0 0 3795.dat
1 14 280 -392 110 1 0 0 0 1 0 0 0 1 3460.dat
1 14 220 -392 250 1 0 0 0 1 0 0 0 1 3023.dat
1 14 260 -392 90 1 0 0 0 1 0 0 0 1 3710.dat
1 14 300 -392 270 1 0 0 0 1 0 0 0 1 3460.dat
1 14 280 -392 290 1 0 0 0 1 0 0 0 1 3710.dat
1 14 300 -392 70 1 0 0 0 1 0 0 0 1 3710.dat
1 14 310 -392 90 1 0 0 0 1 0 0 0 1 3024.dat
1 14 370 -392 250 1 0 0 0 1 0 0 0 1 3623.dat
1 14 380 -392 100 1 0 0 0 1 0 0 0 1 3022.dat
1 15 330 -392 90 1 0 0 0 1 0 0 0 1 3024.dat
1 71 350 -392 90 1 0 0 0 1 0 0 0 1 3024.dat
1 14 200 -400 180 0 0 1 0 1 0 -1 0 0 3020.dat
1 14 260 -400 110 1 0 0 0 1 0 0 0 1 3666.dat
1 14 220 -400 130 1 0 0 0 1 0 0 0 1 3023.dat
1 14 220 -400 240 1 0 0 0 1 0 0 0 1 3022.dat
1 14 300 -400 90 1 0 0 0 1 0 0 0 1 3460.dat
1 14 280 -400 210 1 0 0 0 1 0 0 0 1 3666.dat
1 14 300 -400 270 1 0 0 0 1 0 0 0 1 3460.dat
1 14 260 -400 250 1 0 0 0 1 0 0 0 1 3023.dat
1 14 310 -392 70 1 0 0 0 1 0 0 0 1 7825.dat
1 14 300 -400 290 1 0 0 0 1 0 0 0 1 3069b.dat
1 14 310 -400 240 0 0 1 0 1 0 -1 0 0 3023.dat
1 14 360 -400 250 1 0 0 0 1 0 0 0 1 3710.dat
1 14 350 -400 210 1 0 0 0 1 0 0 0 1 3024.dat
1 14 380 -400 110 1 0 0 0 1 0 0 0 1 3023.dat
1 14 390 -400 230 1 0 0 0 1 0 0 0 1 3024.dat
1 14 410 -392 210 -1 0 0 0 1 0 0 0 -1 54200.dat
1 15 340 -400 110 1 0 0 0 1 0 0 0 1 3023.dat
1 15 380 -400 210 1 0 0 0 1 0 0 0 1 3023.dat
1 15 370 -400 230 1 0 0 0 1 0 0 0 1 3024.dat
1 14 200 -408 180 1 0 0 0 1 0 0 0 1 3022.dat
1 14 220 -408 140 1 0 0 0 1 0 0 0 1 3022.dat
1 14 280 -408 210 1 0 0 0 1 0 0 0 1 3460.dat
1 14 220 -408 230 1 0 0 0 1 0 0 0 1 3023.dat
1 14 300 -408 110 1 0 0 0 1 0 0 0 1 3460.dat
1 14 300 -408 250 1 0 0 0 1 0 0 0 1 3460.dat
1 14 300 -408 90 1 0 0 0 1 0 0 0 1 3666.dat
1 14 300 -408 270 1 0 0 0 1 0 0 0 1 3666.dat
1 14 310 -408 230 1 0 0 0 1 0 0 0 1 3024.dat
1 14 370 -400 90 0 0 -1 0 1 0 1 0 0 54200.dat
1 14 380 -408 130 1 0 0 0 1 0 0 0 1 3023.dat
1 14 380 -408 220 1 0 0 0 1 0 0 0 1 3022.dat
1 14 390 -408 110 1 0 0 0 1 0 0 0 1 3070b.dat
1 14 400 -408 170 0 0 1 0 1 0 -1 0 0 3021.dat
1 14 390 -408 250 1 0 0 0 1 0 0 0 1 3070b.dat
1 14 220 -416 180 0 0 1 0 1 0 -1 0 0 3795.dat
1 14 300 -416 110 1 0 0 0 1 0 0 0 1 3460.dat
1 14 300 -416 250 1 0 0 0 1 0 0 0 1 3460.dat
1 14 300 -416 90 1 0 0 0 1 0 0 0 1 3666.dat
1 14 320 -416 210 1 0 0 0 1 0 0 0 1 3460.dat
1 14 300 -416 270 1 0 0 0 1 0 0 0 1 3666.dat
1 14 310 -416 160 0 0 1 0 1 0 -1 0 0 3710.dat
1 14 310 -416 230 1 0 0 0 1 0 0 0 1 3024.dat
1 14 380 -416 140 1 0 0 0 1 0 0 0 1 3022.dat
1 14 380 -416 230 1 0 0 0 1 0 0 0 1 3023.dat
1 14 400 -416 180 1 0 0 0 1 0 0 0 1 3022.dat
1 14 220 -424 180 0 0 1 0 1 0 -1 0 0 3020.dat
1 14 240 -424 130 1 0 0 0 1 0 0 0 1 3023.dat
1 14 250 -424 230 1 0 0 0 1 0 0 0 1 3623.dat
1 14 300 -424 110 1 0 0 0 1 0 0 0 1 3666.dat
1 14 320 -424 210 1 0 0 0 1 0 0 0 1 3460.dat
1 14 300 -424 250 1 0 0 0 1 0 0 0 1 3666.dat
1 14 300 -424 90 1 0 0 0 1 0 0 0 1 3710.dat
1 14 300 -424 270 1 0 0 0 1 0 0 0 1 3069b.dat
1 14 310 -424 160 0 0 1 0 1 0 -1 0 0 3710.dat
1 14 340 -424 230 1 0 0 0 1 0 0 0 1 3710.dat
1 14 350 -424 90 1 0 0 0 1 0 0 0 1 3070b.dat
1 14 370 -424 140 0 0 1 0 1 0 -1 0 0 3710.dat
1 14 380 -424 190 1 0 0 0 1 0 0 0 1 3023.dat
1 14 370 -424 250 1 0 0 0 1 0 0 0 1 3070b.dat
1 14 390 -424 150 0 0 1 0 1 0 -1 0 0 3623.dat
1 14 390 -424 230 1 0 0 0 1 0 0 0 1 3070b.dat
1 14 240 -432 180 0 0 1 0 1 0 -1 0 0 3795.dat
1 14 300 -432 110 1 0 0 0 1 0 0 0 1 3666.dat
1 14 290 -432 130 1 0 0 0 1 0 0 0 1 3623.dat
1 14 320 -432 220 1 0 0 0 1 0 0 0 1 3795.dat
1 14 300 -432 250 1 0 0 0 1 0 0 0 1 3710.dat
1 14 310 -432 170 0 0 1 0 1 0 -1 0 0 3623.dat
1 14 330 -432 90 1 0 0 0 1 0 0 0 1 3070b.dat
1 14 360 -432 140 1 0 0 0 1 0 0 0 1 3022.dat
1 14 350 -432 250 1 0 0 0 1 0 0 0 1 3070b.dat
1 14 380 -432 180 1 0 0 0 1 0 0 0 1 3022.dat
1 14 390 -432 210 1 0 0 0 1 0 0 0 1 3070b.dat
1 14 240 -440 190 0 0 1 0 1 0 -1 0 0 3021.dat
1 14 300 -440 130 1 0 0 0 1 0 0 0 1 3666.dat
1 14 260 -440 150 1 0 0 0 1 0 0 0 1 3023.dat
1 14 300 -440 230 1 0 0 0 1 0 0 0 1 3666.dat
1 14 270 -440 170 1 0 0 0 1 0 0 0 1 3024.dat
1 14 320 -440 210 1 0 0 0 1 0 0 0 1 3666.dat
1 14 310 -440 110 1 0 0 0 1 0 0 0 1 63864.dat
1 14 340 -440 150 1 0 0 0 1 0 0 0 1 3710.dat
1 14 310 -440 180 0 0 1 0 1 0 -1 0 0 3023.dat
1 14 310 -440 250 1 0 0 0 1 0 0 0 1 3070b.dat
1 14 360 -440 180 1 0 0 0 1 0 0 0 1 3022.dat
1 14 280 -448 180 1 0 0 0 1 0 0 0 1 3031.dat
1 14 300 -448 130 1 0 0 0 1 0 0 0 1 2431.dat
1 14 310 -448 230 1 0 0 0 1 0 0 0 1 63864.dat
1 14 340 -448 180 0 0 1 0 1 0 -1 0 0 3020.dat
1 14 300 -456 190 1 0 0 0 1 0 0 0 1 2431.dat
1 14 300 -456 160 1 0 0 0 1 0 0 0 1 3068b.dat
1 14 310 -456 210 1 0 0 0 1 0 0 0 1 3070b.dat
1 14 330 -456 170 1 0 0 0 1 0 0 0 1 3070b.dat
