0 BrickForgerAI Repaired - duck
0 Name: BrickForgerAI Repaired - duck.ldr
0 Author: BrickForgerAI
0 !LDRAW_ORG Unofficial_Model
0 BFC CERTIFY CCW
0 // Generated by BrickForgerAI (core/brickforge). Do not hand-edit.

1 71 310 -40 90 1 0 0 0 1 0 0 0 1 3005.dat
1 71 110 -88 90 1 0 0 0 1 0 0 0 1 3005.dat
1 71 110 -168 90 1 0 0 0 1 0 0 0 1 3005.dat
1 71 310 -256 230 1 0 0 0 1 0 0 0 1 3005.dat
1 71 430 -352 210 1 0 0 0 1 0 0 0 1 3005.dat
1 71 310 -416 230 1 0 0 0 1 0 0 0 1 3005.dat
1 71 180 -8 120 1 0 0 0 1 0 0 0 1 3034.dat
1 71 180 -8 160 1 0 0 0 1 0 0 0 1 3034.dat
1 71 180 -8 200 1 0 0 0 1 0 0 0 1 3034.dat
1 71 180 -8 240 1 0 0 0 1 0 0 0 1 3034.dat
1 71 200 -8 90 1 0 0 0 1 0 0 0 1 3460.dat
1 71 200 -8 270 1 0 0 0 1 0 0 0 1 3460.dat
1 71 220 -8 70 1 0 0 0 1 0 0 0 1 3460.dat
1 71 220 -8 290 1 0 0 0 1 0 0 0 1 3460.dat
1 71 280 -8 180 0 0 1 0 1 0 -1 0 0 3034.dat
1 71 320 -8 90 1 0 0 0 1 0 0 0 1 3710.dat
1 71 320 -8 270 1 0 0 0 1 0 0 0 1 3710.dat
1 71 320 -8 70 1 0 0 0 1 0 0 0 1 3023.dat
1 71 320 -8 180 0 0 1 0 1 0 -1 0 0 3034.dat
1 71 310 -8 290 1 0 0 0 1 0 0 0 1 3024.dat
1 71 360 -8 180 0 0 1 0 1 0 -1 0 0 3034.dat
1 71 370 -8 270 1 0 0 0 1 0 0 0 1 3024.dat
1 71 390 -8 180 0 0 1 0 1 0 -1 0 0 3666.dat
1 71 160 -16 120 1 0 0 0 1 0 0 0 1 3034.dat
1 71 160 -16 160 1 0 0 0 1 0 0 0 1 3034.dat
1 71 160 -16 200 1 0 0 0 1 0 0 0 1 3034.dat
1 71 160 -16 240 1 0 0 0 1 0 0 0 1 3034.dat
1 71 180 -16 90 1 0 0 0 1 0 0 0 1 3460.dat
1 71 180 -16 270 1 0 0 0 1 0 0 0 1 3460.dat
1 71 200 -16 70 1 0 0 0 1 0 0 0 1 3460.dat
1 71 200 -16 290 1 0 0 0 1 0 0 0 1 3460.dat
1 71 220 -16 50 1 0 0 0 1 0 0 0 1 3666.dat
1 71 220 -16 310 1 0 0 0 1 0 0 0 1 3666.dat
1 71 320 -16 120 1 0 0 0 1 0 0 0 1 3034.dat
1 71 320 -16 160 1 0 0 0 1 0 0 0 1 3034.dat
1 71 320 -16 200 1 0 0 0 1 0 0 0 1 3034.dat
1 71 320 -16 240 1 0 0 0 1 0 0 0 1 3034.dat
1 71 320 -16 90 1 0 0 0 1 0 0 0 1 3666.dat
1 71 320 -16 270 1 0 0 0 1 0 0 0 1 3666.dat
1 71 290 -16 60 0 0 1 0 1 0 -1 0 0 3023.dat
1 71 320 -16 290 1 0 0 0 1 0 0 0 1 3710.dat
1 71 290 -16 310 1 0 0 0 1 0 0 0 1 3024.dat
1 71 330 -16 70 1 0 0 0 1 0 0 0 1 3623.dat
1 71 390 -16 90 1 0 0 0 1 0 0 0 1 3024.dat
1 71 390 -16 270 1 0 0 0 1 0 0 0 1 3024.dat
1 71 410 -16 160 0 0 1 0 1 0 -1 0 0 3666.dat
1 71 410 -16 230 1 0 0 0 1 0 0 0 1 3024.dat
1 71 80 -24 160 0 0 1 0 1 0 -1 0 0 3795.dat
1 71 90 -24 230 1 0 0 0 1 0 0 0 1 3623.dat
1 71 100 -24 90 1 0 0 0 1 0 0 0 1 3023.dat
1 71 100 -24 260 1 0 0 0 1 0 0 0 1 3022.dat
1 71 180 -24 70 1 0 0 0 1 0 0 0 1 3460.dat
1 71 180 -24 110 1 0 0 0 1 0 0 0 1 3460.dat
1 71 110 -24 160 0 0 1 0 1 0 -1 0 0 3710.dat
1 71 180 -24 210 1 0 0 0 1 0 0 0 1 3460.dat
1 71 180 -24 290 1 0 0 0 1 0 0 0 1 3460.dat
1 71 200 -24 50 1 0 0 0 1 0 0 0 1 3460.dat
1 71 130 -24 270 1 0 0 0 1 0 0 0 1 3024.dat
1 71 220 -24 310 1 0 0 0 1 0 0 0 1 3460.dat
1 71 210 -24 90 1 0 0 0 1 0 0 0 1 3024.dat
1 71 210 -24 160 0 0 1 0 1 0 -1 0 0 3710.dat
1 71 210 -24 250 0 0 1 0 1 0 -1 0 0 3623.dat
1 71 320 -24 70 1 0 0 0 1 0 0 0 1 3666.dat
1 71 340 -24 110 1 0 0 0 1 0 0 0 1 3460.dat
1 71 340 -24 210 1 0 0 0 1 0 0 0 1 3460.dat
1 71 320 -24 290 1 0 0 0 1 0 0 0 1 3666.dat
1 71 310 -24 50 1 0 0 0 1 0 0 0 1 3623.dat
1 71 310 -24 160 0 0 1 0 1 0 -1 0 0 3710.dat
1 71 310 -24 250 0 0 1 0 1 0 -1 0 0 3623.dat
1 71 320 -24 310 1 0 0 0 1 0 0 0 1 3023.dat
1 71 380 -24 90 1 0 0 0 1 0 0 0 1 3710.dat
1 71 370 -24 270 1 0 0 0 1 0 0 0 1 3623.dat
1 71 400 -24 130 1 0 0 0 1 0 0 0 1 3023.dat
1 71 400 -24 240 1 0 0 0 1 0 0 0 1 3022.dat
1 71 420 -24 170 0 0 1 0 1 0 -1 0 0 3021.dat
1 71 430 -24 210 1 0 0 0 1 0 0 0 1 3024.dat
1 71 60 -32 180 0 0 1 0 1 0 -1 0 0 3020.dat
1 71 90 -32 100 1 0 0 0 1 0 0 0 1 3021.dat
1 71 90 -32 130 1 0 0 0 1 0 0 0 1 3623.dat
1 71 90 -32 240 1 0 0 0 1 0 0 0 1 3021.dat
1 71 140 -32 70 1 0 0 0 1 0 0 0 1 3666.dat
1 71 160 -32 210 1 0 0 0 1 0 0 0 1 3460.dat
1 71 100 -32 280 1 0 0 0 1 0 0 0 1 3022.dat
1 71 180 -32 50 1 0 0 0 1 0 0 0 1 3460.dat
1 71 110 -32 170 0 0 1 0 1 0 -1 0 0 3623.dat
1 71 200 -32 110 1 0 0 0 1 0 0 0 1 3460.dat
1 71 160 -32 300 1 0 0 0 1 0 0 0 1 3020.dat
1 71 240 -32 30 1 0 0 0 1 0 0 0 1 3710.dat
1 71 210 -32 80 0 0 1 0 1 0 -1 0 0 3023.dat
1 71 210 -32 150 0 0 1 0 1 0 -1 0 0 3623.dat
1 71 210 -32 190 1 0 0 0 1 0 0 0 1 3024.dat
1 71 210 -32 280 0 0 1 0 1 0 -1 0 0 3666.dat
1 71 280 -32 310 1 0 0 0 1 0 0 0 1 3666.dat
1 71 230 -32 330 1 0 0 0 1 0 0 0 1 3024.dat
1 71 320 -32 210 1 0 0 0 1 0 0 0 1 3460.dat
1 71 320 -32 290 1 0 0 0 1 0 0 0 1 3460.dat
1 71 300 -32 50 1 0 0 0 1 0 0 0 1 3710.dat
1 71 340 -32 70 1 0 0 0 1 0 0 0 1 3666.dat
1 71 360 -32 110 1 0 0 0 1 0 0 0 1 3460.dat
1 71 310 -32 150 0 0 1 0 1 0 -1 0 0 3623.dat
1 71 310 -32 190 1 0 0 0 1 0 0 0 1 3024.dat
1 71 310 -32 240 0 0 1 0 1 0 -1 0 0 3023.dat
1 71 310 -32 270 1 0 0 0 1 0 0 0 1 3024.dat
1 71 350 -32 50 1 0 0 0 1 0 0 0 1 3024.dat
1 71 350 -32 310 1 0 0 0 1 0 0 0 1 3024.dat
1 71 390 -32 90 1 0 0 0 1 0 0 0 1 3623.dat
1 71 390 -32 270 1 0 0 0 1 0 0 0 1 3623.dat
1 71 400 -32 250 1 0 0 0 1 0 0 0 1 3023.dat
1 71 420 -32 180 0 0 1 0 1 0 -1 0 0 3795.dat
1 71 60 -40 160 0 0 1 0 1 0 -1 0 0 3795.dat
1 71 60 -40 230 1 0 0 0 1 0 0 0 1 3023.dat
1 71 90 -40 90 1 0 0 0 1 0 0 0 1 3623.dat
1 71 90 -40 260 1 0 0 0 1 0 0 0 1 3021.dat
1 71 120 -40 70 1 0 0 0 1 0 0 0 1 3710.dat
1 71 160 -40 110 1 0 0 0 1 0 0 0 1 3460.dat
1 71 140 -40 210 1 0 0 0 1 0 0 0 1 3666.dat
1 71 120 -40 290 1 0 0 0 1 0 0 0 1 3710.dat
1 71 160 -40 50 1 0 0 0 1 0 0 0 1 3666.dat
1 71 110 -40 160 0 0 1 0 1 0 -1 0 0 3710.dat
1 71 110 -40 230 1 0 0 0 1 0 0 0 1 3024.dat
1 71 180 -40 310 1 0 0 0 1 0 0 0 1 3460.dat
1 71 220 -40 30 1 0 0 0 1 0 0 0 1 3666.dat
1 71 220 -40 330 1 0 0 0 1 0 0 0 1 3666.dat
1 71 210 -40 70 1 0 0 0 1 0 0 0 1 3024.dat
1 71 210 -40 90 1 0 0 0 1 0 0 0 1 3024.dat
1 71 210 -40 200 0 0 1 0 1 0 -1 0 0 3460.dat
1 71 210 -40 290 1 0 0 0 1 0 0 0 1 3024.dat
1 71 300 -40 50 1 0 0 0 1 0 0 0 1 3460.dat
1 71 300 -40 210 1 0 0 0 1 0 0 0 1 3460.dat
1 71 320 -40 110 1 0 0 0 1 0 0 0 1 3460.dat
1 71 320 -40 310 1 0 0 0 1 0 0 0 1 3666.dat
1 71 290 -40 30 1 0 0 0 1 0 0 0 1 3024.dat
1 71 290 -40 330 1 0 0 0 1 0 0 0 1 3024.dat
1 71 340 -40 70 1 0 0 0 1 0 0 0 1 3710.dat
1 71 310 -40 160 0 0 1 0 1 0 -1 0 0 3710.dat
1 71 310 -40 260 0 0 1 0 1 0 -1 0 0 3710.dat
1 71 360 -40 290 1 0 0 0 1 0 0 0 1 3710.dat
1 71 390 -40 80 0 0 1 0 1 0 -1 0 0 3023.dat
1 71 410 -40 210 1 0 0 0 1 0 0 0 1 3623.dat
1 71 400 -40 270 1 0 0 0 1 0 0 0 1 3023.dat
1 71 410 -40 140 0 0 1 0 1 0 -1 0 0 3666.dat
1 71 420 -40 240 1 0 0 0 1 0 0 0 1 3022.dat
1 71 430 -40 140 0 0 1 0 1 0 -1 0 0 3710.dat
1 71 430 -40 190 1 0 0 0 1 0 0 0 1 3024.dat
1 71 60 -48 180 0 0 1 0 1 0 -1 0 0 3034.dat
1 71 90 -48 80 1 0 0 0 1 0 0 0 1 3021.dat
1 71 90 -48 280 1 0 0 0 1 0 0 0 1 3021.dat
1 71 160 -48 50 1 0 0 0 1 0 0 0 1 3460.dat
1 71 140 -48 110 1 0 0 0 1 0 0 0 1 3666.dat
1 71 160 -48 210 1 0 0 0 1 0 0 0 1 3460.dat
1 71 110 -48 150 0 0 1 0 1 0 -1 0 0 3623.dat
1 71 110 -48 190 1 0 0 0 1 0 0 0 1 3024.dat
1 71 110 -48 240 0 0 1 0 1 0 -1 0 0 3023.dat
1 71 160 -48 310 1 0 0 0 1 0 0 0 1 3666.dat
1 71 130 -48 70 1 0 0 0 1 0 0 0 1 3024.dat
1 71 130 -48 290 1 0 0 0 1 0 0 0 1 3024.dat
1 71 220 -48 30 1 0 0 0 1 0 0 0 1 3460.dat
1 71 220 -48 330 1 0 0 0 1 0 0 0 1 3460.dat
1 71 210 -48 120 0 0 1 0 1 0 -1 0 0 3666.dat
1 71 210 -48 190 1 0 0 0 1 0 0 0 1 3024.dat
1 71 210 -48 260 0 0 1 0 1 0 -1 0 0 3710.dat
1 71 300 -48 110 1 0 0 0 1 0 0 0 1 3460.dat
1 71 300 -48 310 1 0 0 0 1 0 0 0 1 3460.dat
1 71 300 -48 50 1 0 0 0 1 0 0 0 1 3666.dat
1 71 320 -48 210 1 0 0 0 1 0 0 0 1 3460.dat
1 71 310 -48 30 1 0 0 0 1 0 0 0 1 3024.dat
1 71 360 -48 70 1 0 0 0 1 0 0 0 1 3666.dat
1 71 310 -48 90 1 0 0 0 1 0 0 0 1 3024.dat
1 71 310 -48 150 0 0 1 0 1 0 -1 0 0 3623.dat
1 71 310 -48 190 1 0 0 0 1 0 0 0 1 3024.dat
1 71 310 -48 250 0 0 1 0 1 0 -1 0 0 3623.dat
1 71 360 -48 290 1 0 0 0 1 0 0 0 1 3666.dat
1 71 310 -48 330 1 0 0 0 1 0 0 0 1 3024.dat
1 71 370 -48 50 1 0 0 0 1 0 0 0 1 3024.dat
1 71 400 -48 100 1 0 0 0 1 0 0 0 1 3022.dat
1 71 390 -48 270 1 0 0 0 1 0 0 0 1 3024.dat
1 71 420 -48 180 0 0 1 0 1 0 -1 0 0 3795.dat
1 71 420 -48 250 1 0 0 0 1 0 0 0 1 3023.dat
1 71 410 -48 270 1 0 0 0 1 0 0 0 1 3024.dat
1 71 430 -48 110 1 0 0 0 1 0 0 0 1 3024.dat
1 71 450 -48 180 0 0 1 0 1 0 -1 0 0 3710.dat
1 71 40 -56 160 0 0 1 0 1 0 -1 0 0 3020.dat
1 71 100 -56 210 1 0 0 0 1 0 0 0 1 3460.dat
1 71 60 -56 100 1 0 0 0 1 0 0 0 1 3022.dat
1 71 60 -56 240 1 0 0 0 1 0 0 0 1 3022.dat
1 71 90 -56 70 1 0 0 0 1 0 0 0 1 3623.dat
1 71 80 -56 280 1 0 0 0 1 0 0 0 1 3022.dat
1 71 140 -56 50 1 0 0 0 1 0 0 0 1 3666.dat
1 71 160 -56 110 1 0 0 0 1 0 0 0 1 3460.dat
1 71 160 -56 310 1 0 0 0 1 0 0 0 1 3460.dat
1 71 110 -56 90 1 0 0 0 1 0 0 0 1 3024.dat
1 71 110 -56 160 0 0 1 0 1 0 -1 0 0 3710.dat
1 71 110 -56 260 0 0 1 0 1 0 -1 0 0 3710.dat
1 71 200 -56 30 1 0 0 0 1 0 0 0 1 3460.dat
1 71 200 -56 330 1 0 0 0 1 0 0 0 1 3460.dat
1 71 260 -56 210 1 0 0 0 1 0 0 0 1 3460.dat
1 71 280 -56 50 1 0 0 0 1 0 0 0 1 3460.dat
1 71 210 -56 80 0 0 1 0 1 0 -1 0 0 3023.dat
1 71 210 -56 160 0 0 1 0 1 0 -1 0 0 3710.dat
1 71 210 -56 250 0 0 1 0 1 0 -1 0 0 3623.dat
1 71 210 -56 290 1 0 0 0 1 0 0 0 1 3024.dat
1 71 320 -56 110 1 0 0 0 1 0 0 0 1 3460.dat
1 71 320 -56 310 1 0 0 0 1 0 0 0 1 3460.dat
1 71 310 -56 30 1 0 0 0 1 0 0 0 1 3623.dat
1 71 310 -56 330 1 0 0 0 1 0 0 0 1 3623.dat
1 71 310 -56 80 0 0 1 0 1 0 -1 0 0 3023.dat
1 71 310 -56 160 0 0 1 0 1 0 -1 0 0 3710.dat
1 71 310 -56 260 0 0 1 0 1 0 -1 0 0 3710.dat
1 71 380 -56 70 1 0 0 0 1 0 0 0 1 3710.dat
1 71 400 -56 210 1 0 0 0 1 0 0 0 1 3666.dat
1 71 380 -56 290 1 0 0 0 1 0 0 0 1 3710.dat
1 71 380 -56 50 1 0 0 0 1 0 0 0 1 3023.dat
1 71 420 -56 140 0 0 1 0 1 0 -1 0 0 3795.dat
1 71 420 -56 250 0 0 1 0 1 0 -1 0 0 3021.dat
1 71 450 -56 160 0 0 1 0 1 0 -1 0 0 3710.dat
1 71 450 -56 230 1 0 0 0 1 0 0 0 1 3024.dat
1 71 40 -64 180 0 0 1 0 1 0 -1 0 0 3795.dat
1 71 60 -64 90 1 0 0 0 1 0 0 0 1 3023.dat
1 71 120 -64 110 1 0 0 0 1 0 0 0 1 3460.dat
1 71 60 -64 260 1 0 0 0 1 0 0 0 1 3022.dat
1 71 80 -64 70 1 0 0 0 1 0 0 0 1 3023.dat
1 71 140 -64 210 1 0 0 0 1 0 0 0 1 3460.dat
1 71 90 -64 290 1 0 0 0 1 0 0 0 1 3623.dat
1 71 160 -64 50 1 0 0 0 1 0 0 0 1 3460.dat
1 71 140 -64 310 1 0 0 0 1 0 0 0 1 3666.dat
1 71 110 -64 80 0 0 1 0 1 0 -1 0 0 3023.dat
1 71 110 -64 150 0 0 1 0 1 0 -1 0 0 3623.dat
1 71 110 -64 190 1 0 0 0 1 0 0 0 1 3024.dat
1 71 110 -64 250 0 0 1 0 1 0 -1 0 0 3623.dat
1 71 180 -64 30 1 0 0 0 1 0 0 0 1 3666.dat
1 71 180 -64 330 1 0 0 0 1 0 0 0 1 3666.dat
1 71 210 -64 120 0 0 1 0 1 0 -1 0 0 3666.dat
1 71 210 -64 190 1 0 0 0 1 0 0 0 1 3024.dat
1 71 210 -64 260 0 0 1 0 1 0 -1 0 0 3710.dat
1 71 280 -64 310 1 0 0 0 1 0 0 0 1 3460.dat
1 71 300 -64 110 1 0 0 0 1 0 0 0 1 3460.dat
1 71 300 -64 210 1 0 0 0 1 0 0 0 1 3460.dat
1 71 250 -64 20 0 0 1 0 1 0 -1 0 0 3023.dat
1 71 300 -64 330 1 0 0 0 1 0 0 0 1 3666.dat
1 71 300 -64 40 1 0 0 0 1 0 0 0 1 3020.dat
1 71 310 -64 70 1 0 0 0 1 0 0 0 1 3024.dat
1 71 310 -64 90 1 0 0 0 1 0 0 0 1 3024.dat
1 71 310 -64 150 0 0 1 0 1 0 -1 0 0 3623.dat
1 71 310 -64 190 1 0 0 0 1 0 0 0 1 3024.dat
1 71 310 -64 250 0 0 1 0 1 0 -1 0 0 3623.dat
1 71 310 -64 290 1 0 0 0 1 0 0 0 1 3024.dat
1 71 350 -64 40 0 0 1 0 1 0 -1 0 0 3023.dat
1 71 380 -64 60 1 0 0 0 1 0 0 0 1 3022.dat
1 71 380 -64 300 1 0 0 0 1 0 0 0 1 3022.dat
1 71 410 -64 110 1 0 0 0 1 0 0 0 1 3623.dat
1 71 420 -64 210 1 0 0 0 1 0 0 0 1 3710.dat
1 71 410 -64 80 0 0 1 0 1 0 -1 0 0 3023.dat
1 71 420 -64 160 0 0 1 0 1 0 -1 0 0 3020.dat
1 71 410 -64 260 0 0 1 0 1 0 -1 0 0 3710.dat
1 71 430 -64 90 1 0 0 0 1 0 0 0 1 3024.dat
1 71 430 -64 250 0 0 1 0 1 0 -1 0 0 3623.dat
1 71 450 -64 150 0 0 1 0 1 0 -1 0 0 3623.dat
1 71 450 -64 190 1 0 0 0 1 0 0 0 1 3024.dat
1 71 450 -64 230 1 0 0 0 1 0 0 0 1 3024.dat
1 71 40 -72 180 0 0 1 0 1 0 -1 0 0 3034.dat
1 71 80 -72 70 1 0 0 0 1 0 0 0 1 3710.dat
1 71 50 -72 90 1 0 0 0 1 0 0 0 1 3024.dat
1 71 60 -72 270 1 0 0 0 1 0 0 0 1 3023.dat
1 71 120 -72 50 1 0 0 0 1 0 0 0 1 3666.dat
1 71 70 -72 100 0 0 1 0 1 0 -1 0 0 3023.dat
1 71 120 -72 210 1 0 0 0 1 0 0 0 1 3666.dat
1 71 80 -72 290 1 0 0 0 1 0 0 0 1 3023.dat
1 71 160 -72 110 1 0 0 0 1 0 0 0 1 3460.dat
1 71 160 -72 310 1 0 0 0 1 0 0 0 1 3460.dat
1 71 110 -72 160 0 0 1 0 1 0 -1 0 0 3710.dat
1 71 110 -72 260 0 0 1 0 1 0 -1 0 0 3710.dat
1 71 180 -72 330 1 0 0 0 1 0 0 0 1 3460.dat
1 71 200 -72 30 1 0 0 0 1 0 0 0 1 3460.dat
1 71 240 -72 10 1 0 0 0 1 0 0 0 1 3666.dat
1 71 260 -72 210 1 0 0 0 1 0 0 0 1 3460.dat
1 71 210 -72 70 0 0 1 0 1 0 -1 0 0 3623.dat
1 71 210 -72 160 0 0 1 0 1 0 -1 0 0 3710.dat
1 71 210 -72 250 0 0 1 0 1 0 -1 0 0 3623.dat
1 71 210 -72 290 1 0 0 0 1 0 0 0 1 3024.dat
1 71 320 -72 110 1 0 0 0 1 0 0 0 1 3460.dat
1 71 320 -72 310 1 0 0 0 1 0 0 0 1 3460.dat
1 71 300 -72 330 1 0 0 0 1 0 0 0 1 3710.dat
1 71 320 -72 30 1 0 0 0 1 0 0 0 1 3710.dat
1 71 340 -72 50 1 0 0 0 1 0 0 0 1 3710.dat
1 71 310 -72 80 0 0 1 0 1 0 -1 0 0 3023.dat
1 71 310 -72 160 0 0 1 0 1 0 -1 0 0 3710.dat
1 71 310 -72 260 0 0 1 0 1 0 -1 0 0 3710.dat
1 71 400 -72 210 1 0 0 0 1 0 0 0 1 3666.dat
1 71 350 -72 330 1 0 0 0 1 0 0 0 1 3024.dat
1 71 390 -72 70 1 0 0 0 1 0 0 0 1 3623.dat
1 71 390 -72 290 1 0 0 0 1 0 0 0 1 3623.dat
1 71 390 -72 50 1 0 0 0 1 0 0 0 1 3024.dat
1 71 420 -72 140 0 0 1 0 1 0 -1 0 0 3795.dat
1 71 430 -72 240 1 0 0 0 1 0 0 0 1 3021.dat
1 71 420 -72 270 1 0 0 0 1 0 0 0 1 3023.dat
1 71 450 -72 160 0 0 1 0 1 0 -1 0 0 3710.dat
1 71 40 -80 160 0 0 1 0 1 0 -1 0 0 3795.dat
1 71 40 -80 240 1 0 0 0 1 0 0 0 1 3022.dat
1 71 60 -80 80 1 0 0 0 1 0 0 0 1 3022.dat
1 71 60 -80 280 1 0 0 0 1 0 0 0 1 3022.dat
1 71 100 -80 50 1 0 0 0 1 0 0 0 1 3710.dat
1 71 140 -80 110 1 0 0 0 1 0 0 0 1 3460.dat
1 71 140 -80 210 1 0 0 0 1 0 0 0 1 3460.dat
1 71 140 -80 310 1 0 0 0 1 0 0 0 1 3460.dat
1 71 100 -80 70 1 0 0 0 1 0 0 0 1 3023.dat
1 71 100 -80 290 1 0 0 0 1 0 0 0 1 3023.dat
1 71 180 -80 30 1 0 0 0 1 0 0 0 1 3460.dat
1 71 110 -80 150 0 0 1 0 1 0 -1 0 0 3623.dat
1 71 110 -80 190 1 0 0 0 1 0 0 0 1 3024.dat
1 71 110 -80 250 0 0 1 0 1 0 -1 0 0 3623.dat
1 71 160 -80 330 1 0 0 0 1 0 0 0 1 3666.dat
1 71 150 -80 50 1 0 0 0 1 0 0 0 1 3024.dat
1 71 240 -80 10 1 0 0 0 1 0 0 0 1 3460.dat
1 71 210 -80 60 0 0 1 0 1 0 -1 0 0 3023.dat
1 71 210 -80 90 1 0 0 0 1 0 0 0 1 3024.dat
1 71 210 -80 150 0 0 1 0 1 0 -1 0 0 3623.dat
1 71 210 -80 190 1 0 0 0 1 0 0 0 1 3024.dat
1 71 210 -80 260 0 0 1 0 1 0 -1 0 0 3710.dat
1 71 300 -80 110 1 0 0 0 1 0 0 0 1 3460.dat
1 71 300 -80 210 1 0 0 0 1 0 0 0 1 3460.dat
1 71 300 -80 320 1 0 0 0 1 0 0 0 1 3034.dat
1 71 320 -80 30 1 0 0 0 1 0 0 0 1 3666.dat
1 71 330 -80 50 1 0 0 0 1 0 0 0 1 3623.dat
1 71 310 -80 70 1 0 0 0 1 0 0 0 1 3024.dat
1 71 310 -80 90 1 0 0 0 1 0 0 0 1 3024.dat
1 71 310 -80 150 0 0 1 0 1 0 -1 0 0 3623.dat
1 71 310 -80 190 1 0 0 0 1 0 0 0 1 3024.dat
1 71 310 -80 250 0 0 1 0 1 0 -1 0 0 3623.dat
1 71 310 -80 290 1 0 0 0 1 0 0 0 1 3024.dat
1 71 380 -80 50 1 0 0 0 1 0 0 0 1 3023.dat
1 71 400 -80 70 1 0 0 0 1 0 0 0 1 3023.dat
1 71 420 -80 110 1 0 0 0 1 0 0 0 1 3710.dat
1 71 420 -80 210 1 0 0 0 1 0 0 0 1 3710.dat
1 71 400 -80 290 1 0 0 0 1 0 0 0 1 3023.dat
1 71 390 -80 310 1 0 0 0 1 0 0 0 1 3024.dat
1 71 420 -80 90 1 0 0 0 1 0 0 0 1 3023.dat
1 71 420 -80 160 0 0 1 0 1 0 -1 0 0 3020.dat
1 71 420 -80 250 0 0 1 0 1 0 -1 0 0 3021.dat
1 71 450 -80 150 0 0 1 0 1 0 -1 0 0 3623.dat
1 71 450 -80 190 1 0 0 0 1 0 0 0 1 3024.dat
1 71 450 -80 240 0 0 1 0 1 0 -1 0 0 3023.dat
1 71 20 -88 170 0 0 1 0 1 0 -1 0 0 3021.dat
1 71 40 -88 110 0 0 1 0 1 0 -1 0 0 3021.dat
1 71 100 -88 210 1 0 0 0 1 0 0 0 1 3460.dat
1 71 40 -88 230 1 0 0 0 1 0 0 0 1 3023.dat
1 71 40 -88 250 1 0 0 0 1 0 0 0 1 3023.dat
1 71 80 -88 70 1 0 0 0 1 0 0 0 1 3710.dat
1 71 60 -88 270 1 0 0 0 1 0 0 0 1 3023.dat
1 71 80 -88 290 1 0 0 0 1 0 0 0 1 3710.dat
1 71 90 -88 50 1 0 0 0 1 0 0 0 1 3623.dat
1 71 120 -88 110 1 0 0 0 1 0 0 0 1 3666.dat
1 71 120 -88 310 1 0 0 0 1 0 0 0 1 3666.dat
1 71 160 -88 30 1 0 0 0 1 0 0 0 1 3666.dat
1 71 110 -88 160 0 0 1 0 1 0 -1 0 0 3710.dat
1 71 110 -88 240 0 0 1 0 1 0 -1 0 0 3023.dat
1 71 110 -88 270 1 0 0 0 1 0 0 0 1 3024.dat
1 71 180 -88 330 1 0 0 0 1 0 0 0 1 3460.dat
1 71 140 -88 50 1 0 0 0 1 0 0 0 1 3023.dat
1 71 220 -88 10 1 0 0 0 1 0 0 0 1 3666.dat
1 71 260 -88 110 1 0 0 0 1 0 0 0 1 3460.dat
1 71 260 -88 210 1 0 0 0 1 0 0 0 1 3460.dat
1 71 260 -88 310 1 0 0 0 1 0 0 0 1 3460.dat
1 71 210 -88 70 0 0 1 0 1 0 -1 0 0 3623.dat
1 71 210 -88 160 0 0 1 0 1 0 -1 0 0 3710.dat
1 71 210 -88 250 0 0 1 0 1 0 -1 0 0 3623.dat
1 71 210 -88 290 1 0 0 0 1 0 0 0 1 3024.dat
1 71 300 -88 30 1 0 0 0 1 0 0 0 1 3460.dat
1 71 320 -88 330 1 0 0 0 1 0 0 0 1 3666.dat
1 71 300 -88 10 1 0 0 0 1 0 0 0 1 3023.dat
1 71 340 -88 50 1 0 0 0 1 0 0 0 1 3710.dat
1 71 310 -88 80 0 0 1 0 1 0 -1 0 0 3023.dat
1 71 310 -88 160 0 0 1 0 1 0 -1 0 0 3710.dat
1 71 310 -88 260 0 0 1 0 1 0 -1 0 0 3710.dat
1 71 400 -88 110 1 0 0 0 1 0 0 0 1 3666.dat
1 71 400 -88 210 1 0 0 0 1 0 0 0 1 3666.dat
1 71 370 -88 310 1 0 0 0 1 0 0 0 1 3623.dat
1 71 390 -88 60 0 0 1 0 1 0 -1 0 0 3023.dat
1 71 390 -88 290 1 0 0 0 1 0 0 0 1 3024.dat
1 71 410 -88 80 0 0 1 0 1 0 -1 0 0 3023.dat
1 71 430 -88 140 1 0 0 0 1 0 0 0 1 3021.dat
1 71 430 -88 180 1 0 0 0 1 0 0 0 1 3021.dat
1 71 430 -88 240 1 0 0 0 1 0 0 0 1 3021.dat
1 71 420 -88 270 1 0 0 0 1 0 0 0 1 3023.dat
1 71 410 -88 290 1 0 0 0 1 0 0 0 1 3024.dat
1 71 430 -88 90 1 0 0 0 1 0 0 0 1 3024.dat
1 71 20 -96 160 0 0 1 0 1 0 -1 0 0 3020.dat
1 71 80 -96 210 1 0 0 0 1 0 0 0 1 3460.dat
1 71 40 -96 100 1 0 0 0 1 0 0 0 1 3022.dat
1 71 40 -96 250 0 0 1 0 1 0 -1 0 0 3021.dat
1 71 70 -96 70 1 0 0 0 1 0 0 0 1 3623.dat
1 71 70 -96 290 1 0 0 0 1 0 0 0 1 3623.dat
1 71 100 -96 50 1 0 0 0 1 0 0 0 1 3710.dat
1 71 140 -96 110 1 0 0 0 1 0 0 0 1 3460.dat
1 71 140 -96 310 1 0 0 0 1 0 0 0 1 3460.dat
1 71 180 -96 30 1 0 0 0 1 0 0 0 1 3460.dat
1 71 110 -96 80 0 0 1 0 1 0 -1 0 0 3023.dat
1 71 110 -96 150 0 0 1 0 1 0 -1 0 0 3623.dat
1 71 110 -96 190 1 0 0 0 1 0 0 0 1 3024.dat
1 71 110 -96 260 0 0 1 0 1 0 -1 0 0 3710.dat
1 71 160 -96 330 1 0 0 0 1 0 0 0 1 3666.dat
1 71 150 -96 50 1 0 0 0 1 0 0 0 1 3024.dat
1 71 240 -96 10 1 0 0 0 1 0 0 0 1 3460.dat
1 71 240 -96 210 1 0 0 0 1 0 0 0 1 3460.dat
1 71 210 -96 60 0 0 1 0 1 0 -1 0 0 3023.dat
1 71 210 -96 90 1 0 0 0 1 0 0 0 1 3024.dat
1 71 210 -96 150 0 0 1 0 1 0 -1 0 0 3623.dat
1 71 210 -96 190 1 0 0 0 1 0 0 0 1 3024.dat
1 71 210 -96 260 0 0 1 0 1 0 -1 0 0 3710.dat
1 71 300 -96 110 1 0 0 0 1 0 0 0 1 3460.dat
1 71 300 -96 320 1 0 0 0 1 0 0 0 1 3034.dat
1 71 320 -96 30 1 0 0 0 1 0 0 0 1 3666.dat
1 71 360 -96 50 1 0 0 0 1 0 0 0 1 3666.dat
1 71 310 -96 70 1 0 0 0 1 0 0 0 1 3024.dat
1 71 310 -96 90 1 0 0 0 1 0 0 0 1 3024.dat
1 71 310 -96 150 0 0 1 0 1 0 -1 0 0 3623.dat
1 71 310 -96 190 1 0 0 0 1 0 0 0 1 3024.dat
1 71 310 -96 250 0 0 1 0 1 0 -1 0 0 3623.dat
1 71 310 -96 290 1 0 0 0 1 0 0 0 1 3024.dat
1 71 380 -96 210 1 0 0 0 1 0 0 0 1 3666.dat
1 71 400 -96 70 1 0 0 0 1 0 0 0 1 3023.dat
1 71 420 -96 110 1 0 0 0 1 0 0 0 1 3710.dat
1 71 400 -96 300 1 0 0 0 1 0 0 0 1 3022.dat
1 71 420 -96 90 1 0 0 0 1 0 0 0 1 3023.dat
1 71 420 -96 160 0 0 1 0 1 0 -1 0 0 3020.dat
1 71 420 -96 250 0 0 1 0 1 0 -1 0 0 3021.dat
1 71 430 -96 290 1 0 0 0 1 0 0 0 1 3024.dat
1 71 450 -96 180 0 0 1 0 1 0 -1 0 0 3666.dat
1 71 450 -96 250 1 0 0 0 1 0 0 0 1 3024.dat
1 71 20 -104 150 0 0 1 0 1 0 -1 0 0 3021.dat
1 71 20 -104 200 1 0 0 0 1 0 0 0 1 3022.dat
1 71 40 -104 90 1 0 0 0 1 0 0 0 1 3023.dat
1 71 100 -104 110 1 0 0 0 1 0 0 0 1 3460.dat
1 71 40 -104 240 1 0 0 0 1 0 0 0 1 3022.dat
1 71 40 -104 270 1 0 0 0 1 0 0 0 1 3023.dat
1 71 80 -104 70 1 0 0 0 1 0 0 0 1 3710.dat
1 71 120 -104 210 1 0 0 0 1 0 0 0 1 3460.dat
1 71 80 -104 290 1 0 0 0 1 0 0 0 1 3710.dat
1 71 90 -104 50 1 0 0 0 1 0 0 0 1 3623.dat
1 71 120 -104 310 1 0 0 0 1 0 0 0 1 3666.dat
1 71 160 -104 30 1 0 0 0 1 0 0 0 1 3666.dat
1 71 110 -104 90 1 0 0 0 1 0 0 0 1 3024.dat
1 71 110 -104 160 0 0 1 0 1 0 -1 0 0 3710.dat
1 71 110 -104 250 0 0 1 0 1 0 -1 0 0 3623.dat
1 71 180 -104 330 1 0 0 0 1 0 0 0 1 3460.dat
1 71 140 -104 50 1 0 0 0 1 0 0 0 1 3023.dat
1 71 220 -104 10 1 0 0 0 1 0 0 0 1 3666.dat
1 71 260 -104 110 1 0 0 0 1 0 0 0 1 3460.dat
1 71 260 -104 310 1 0 0 0 1 0 0 0 1 3460.dat
1 71 210 -104 70 0 0 1 0 1 0 -1 0 0 3623.dat
1 71 210 -104 200 0 0 1 0 1 0 -1 0 0 3460.dat
1 71 210 -104 290 1 0 0 0 1 0 0 0 1 3024.dat
1 71 300 -104 30 1 0 0 0 1 0 0 0 1 3460.dat
1 71 300 -104 210 1 0 0 0 1 0 0 0 1 3460.dat
1 71 320 -104 330 1 0 0 0 1 0 0 0 1 3666.dat
1 71 300 -104 10 1 0 0 0 1 0 0 0 1 3023.dat
1 71 340 -104 50 1 0 0 0 1 0 0 0 1 3710.dat
1 71 310 -104 80 0 0 1 0 1 0 -1 0 0 3023.dat
1 71 310 -104 160 0 0 1 0 1 0 -1 0 0 3710.dat
1 71 310 -104 260 0 0 1 0 1 0 -1 0 0 3710.dat
1 71 400 -104 110 1 0 0 0 1 0 0 0 1 3666.dat
1 71 380 -104 310 1 0 0 0 1 0 0 0 1 3710.dat
1 71 400 -104 60 1 0 0 0 1 0 0 0 1 3022.dat
1 71 420 -104 210 1 0 0 0 1 0 0 0 1 3710.dat
1 71 410 -104 290 1 0 0 0 1 0 0 0 1 3623.dat
1 71 410 -104 90 1 0 0 0 1 0 0 0 1 3024.dat
1 71 430 -104 140 1 0 0 0 1 0 0 0 1 3021.dat
1 71 430 -104 180 1 0 0 0 1 0 0 0 1 3021.dat
1 71 430 -104 240 1 0 0 0 1 0 0 0 1 3021.dat
1 71 420 -104 270 1 0 0 0 1 0 0 0 1 3023.dat
1 71 430 -104 80 0 0 1 0 1 0 -1 0 0 3023.dat
1 71 20 -112 180 0 0 1 0 1 0 -1 0 0 3795.dat
1 71 40 -112 100 1 0 0 0 1 0 0 0 1 3022.dat
1 71 40 -112 260 1 0 0 0 1 0 0 0 1 3022.dat
1 71 70 -112 70 1 0 0 0 1 0 0 0 1 3623.dat
1 71 100 -112 210 1 0 0 0 1 0 0 0 1 3666.dat
1 71 70 -112 290 1 0 0 0 1 0 0 0 1 3623.dat
1 71 100 -112 50 1 0 0 0 1 0 0 0 1 3710.dat
1 71 140 -112 110 1 0 0 0 1 0 0 0 1 3460.dat
1 71 140 -112 310 1 0 0 0 1 0 0 0 1 3460.dat
1 71 180 -112 30 1 0 0 0 1 0 0 0 1 3460.dat
1 71 110 -112 80 0 0 1 0 1 0 -1 0 0 3023.dat
1 71 110 -112 150 0 0 1 0 1 0 -1 0 0 3623.dat
1 71 110 -112 190 1 0 0 0 1 0 0 0 1 3024.dat
1 71 110 -112 260 0 0 1 0 1 0 -1 0 0 3710.dat
1 71 160 -112 330 1 0 0 0 1 0 0 0 1 3666.dat
1 71 150 -112 50 1 0 0 0 1 0 0 0 1 3024.dat
1 71 240 -112 10 1 0 0 0 1 0 0 0 1 3460.dat
1 71 240 -112 210 1 0 0 0 1 0 0 0 1 3460.dat
1 71 210 -112 60 0 0 1 0 1 0 -1 0 0 3023.dat
1 71 210 -112 90 1 0 0 0 1 0 0 0 1 3024.dat
1 71 210 -112 160 0 0 1 0 1 0 -1 0 0 3710.dat
1 71 210 -112 260 0 0 1 0 1 0 -1 0 0 3710.dat
1 71 300 -112 110 1 0 0 0 1 0 0 0 1 3460.dat
1 71 300 -112 320 1 0 0 0 1 0 0 0 1 3034.dat
1 71 320 -112 30 1 0 0 0 1 0 0 0 1 3666.dat
1 71 360 -112 50 1 0 0 0 1 0 0 0 1 3666.dat
1 71 310 -112 70 1 0 0 0 1 0 0 0 1 3024.dat
1 71 310 -112 90 1 0 0 0 1 0 0 0 1 3024.dat
1 71 310 -112 150 0 0 1 0 1 0 -1 0 0 3623.dat
1 71 310 -112 190 1 0 0 0 1 0 0 0 1 3024.dat
1 71 310 -112 250 0 0 1 0 1 0 -1 0 0 3623.dat
1 71 310 -112 290 1 0 0 0 1 0 0 0 1 3024.dat
1 71 380 -112 210 1 0 0 0 1 0 0 0 1 3666.dat
1 71 410 -112 70 1 0 0 0 1 0 0 0 1 3623.dat
1 71 420 -112 110 1 0 0 0 1 0 0 0 1 3710.dat
1 71 400 -112 300 1 0 0 0 1 0 0 0 1 3022.dat
1 71 420 -112 90 1 0 0 0 1 0 0 0 1 3023.dat
1 71 420 -112 160 0 0 1 0 1 0 -1 0 0 3020.dat
1 71 420 -112 250 0 0 1 0 1 0 -1 0 0 3021.dat
1 71 450 -112 180 0 0 1 0 1 0 -1 0 0 3666.dat
1 71 450 -112 250 1 0 0 0 1 0 0 0 1 3024.dat
1 71 20 -120 160 0 0 1 0 1 0 -1 0 0 3795.dat
1 71 20 -120 230 1 0 0 0 1 0 0 0 1 3023.dat
1 71 40 -120 90 1 0 0 0 1 0 0 0 1 3023.dat
1 71 40 -120 250 1 0 0 0 1 0 0 0 1 3023.dat
1 71 40 -120 270 1 0 0 0 1 0 0 0 1 3023.dat
1 71 80 -120 70 1 0 0 0 1 0 0 0 1 3710.dat
1 71 120 -120 110 1 0 0 0 1 0 0 0 1 3460.dat
1 71 120 -120 210 1 0 0 0 1 0 0 0 1 3460.dat
1 71 80 -120 290 1 0 0 0 1 0 0 0 1 3710.dat
1 71 90 -120 50 1 0 0 0 1 0 0 0 1 3623.dat
1 71 120 -120 310 1 0 0 0 1 0 0 0 1 3666.dat
1 71 160 -120 30 1 0 0 0 1 0 0 0 1 3666.dat
1 71 110 -120 90 1 0 0 0 1 0 0 0 1 3024.dat
1 71 110 -120 160 0 0 1 0 1 0 -1 0 0 3710.dat
1 71 110 -120 250 0 0 1 0 1 0 -1 0 0 3623.dat
1 71 180 -120 330 1 0 0 0 1 0 0 0 1 3460.dat
1 71 140 -120 50 1 0 0 0 1 0 0 0 1 3023.dat
1 71 220 -120 10 1 0 0 0 1 0 0 0 1 3666.dat
1 71 260 -120 310 1 0 0 0 1 0 0 0 1 3460.dat
1 71 210 -120 120 0 0 1 0 1 0 -1 0 0 3460.dat
1 71 280 -120 210 1 0 0 0 1 0 0 0 1 3460.dat
1 71 210 -120 250 0 0 1 0 1 0 -1 0 0 3623.dat
1 71 210 -120 290 1 0 0 0 1 0 0 0 1 3024.dat
1 71 300 -120 30 1 0 0 0 1 0 0 0 1 3460.dat
1 71 280 -120 110 1 0 0 0 1 0 0 0 1 3666.dat
1 71 320 -120 330 1 0 0 0 1 0 0 0 1 3666.dat
1 71 300 -120 10 1 0 0 0 1 0 0 0 1 3023.dat
1 71 340 -120 50 1 0 0 0 1 0 0 0 1 3710.dat
1 71 310 -120 80 0 0 1 0 1 0 -1 0 0 3023.dat
1 71 310 -120 160 0 0 1 0 1 0 -1 0 0 3710.dat
1 71 310 -120 260 0 0 1 0 1 0 -1 0 0 3710.dat
1 71 400 -120 110 1 0 0 0 1 0 0 0 1 3666.dat
1 71 380 -120 310 1 0 0 0 1 0 0 0 1 3710.dat
1 71 400 -120 210 1 0 0 0 1 0 0 0 1 3710.dat
1 71 400 -120 60 1 0 0 0 1 0 0 0 1 3022.dat
1 71 400 -120 290 1 0 0 0 1 0 0 0 1 3023.dat
1 71 410 -120 90 1 0 0 0 1 0 0 0 1 3024.dat
1 71 430 -120 140 1 0 0 0 1 0 0 0 1 3021.dat
1 71 430 -120 180 1 0 0 0 1 0 0 0 1 3021.dat
1 71 430 -120 240 1 0 0 0 1 0 0 0 1 3021.dat
1 71 420 -120 270 1 0 0 0 1 0 0 0 1 3023.dat
1 71 430 -120 80 0 0 1 0 1 0 -1 0 0 3023.dat
1 71 450 -120 210 1 0 0 0 1 0 0 0 1 3024.dat
1 71 20 -128 180 0 0 1 0 1 0 -1 0 0 3034.dat
1 71 60 -128 70 1 0 0 0 1 0 0 0 1 3710.dat
1 71 30 -128 90 1 0 0 0 1 0 0 0 1 3024.dat
1 71 30 -128 270 1 0 0 0 1 0 0 0 1 3024.dat
1 71 100 -128 50 1 0 0 0 1 0 0 0 1 3666.dat
1 71 50 -128 100 0 0 1 0 1 0 -1 0 0 3023.dat
1 71 100 -128 210 1 0 0 0 1 0 0 0 1 3666.dat
1 71 50 -128 280 0 0 1 0 1 0 -1 0 0 3023.dat
1 71 140 -128 110 1 0 0 0 1 0 0 0 1 3460.dat
1 71 90 -128 300 1 0 0 0 1 0 0 0 1 3021.dat
1 71 180 -128 30 1 0 0 0 1 0 0 0 1 3460.dat
1 71 110 -128 80 0 0 1 0 1 0 -1 0 0 3023.dat
1 71 110 -128 150 0 0 1 0 1 0 -1 0 0 3623.dat
1 71 110 -128 190 1 0 0 0 1 0 0 0 1 3024.dat
1 71 110 -128 240 0 0 1 0 1 0 -1 0 0 3023.dat
1 71 110 -128 270 1 0 0 0 1 0 0 0 1 3024.dat
1 71 160 -128 330 1 0 0 0 1 0 0 0 1 3666.dat
1 71 200 -128 310 1 0 0 0 1 0 0 0 1 3460.dat
1 71 170 -128 50 1 0 0 0 1 0 0 0 1 3024.dat
1 71 240 -128 210 1 0 0 0 1 0 0 0 1 3460.dat
1 71 240 -128 10 1 0 0 0 1 0 0 0 1 3666.dat
1 71 210 -128 70 0 0 1 0 1 0 -1 0 0 3623.dat
1 71 210 -128 160 0 0 1 0 1 0 -1 0 0 3710.dat
1 71 210 -128 260 0 0 1 0 1 0 -1 0 0 3710.dat
1 71 300 -128 110 1 0 0 0 1 0 0 0 1 3460.dat
1 71 300 -128 330 1 0 0 0 1 0 0 0 1 3460.dat
1 71 320 -128 30 1 0 0 0 1 0 0 0 1 3666.dat
1 71 340 -128 310 1 0 0 0 1 0 0 0 1 3666.dat
1 71 310 -128 10 1 0 0 0 1 0 0 0 1 3024.dat
1 71 360 -128 50 1 0 0 0 1 0 0 0 1 3666.dat
1 71 310 -128 70 1 0 0 0 1 0 0 0 1 3024.dat
1 71 310 -128 90 1 0 0 0 1 0 0 0 1 3024.dat
1 71 310 -128 150 0 0 1 0 1 0 -1 0 0 3623.dat
1 71 310 -128 190 1 0 0 0 1 0 0 0 1 3024.dat
1 71 310 -128 250 0 0 1 0 1 0 -1 0 0 3623.dat
1 71 310 -128 290 1 0 0 0 1 0 0 0 1 3024.dat
1 71 380 -128 210 1 0 0 0 1 0 0 0 1 3666.dat
1 71 410 -128 70 1 0 0 0 1 0 0 0 1 3623.dat
1 71 420 -128 110 1 0 0 0 1 0 0 0 1 3710.dat
1 71 390 -128 290 1 0 0 0 1 0 0 0 1 3024.dat
1 71 420 -128 90 1 0 0 0 1 0 0 0 1 3023.dat
1 71 420 -128 160 0 0 1 0 1 0 -1 0 0 3020.dat
1 71 420 -128 250 0 0 1 0 1 0 -1 0 0 3021.dat
1 71 410 -128 300 0 0 1 0 1 0 -1 0 0 3023.dat
1 71 450 -128 180 0 0 1 0 1 0 -1 0 0 3666.dat
1 71 450 -128 250 1 0 0 0 1 0 0 0 1 3024.dat
1 71 20 -136 160 0 0 1 0 1 0 -1 0 0 3795.dat
1 71 20 -136 240 1 0 0 0 1 0 0 0 1 3022.dat
1 71 40 -136 80 1 0 0 0 1 0 0 0 1 3022.dat
1 71 40 -136 270 1 0 0 0 1 0 0 0 1 3023.dat
1 71 80 -136 50 1 0 0 0 1 0 0 0 1 3710.dat
1 71 120 -136 110 1 0 0 0 1 0 0 0 1 3460.dat
1 71 120 -136 210 1 0 0 0 1 0 0 0 1 3460.dat
1 71 80 -136 290 1 0 0 0 1 0 0 0 1 3710.dat
1 71 90 -136 70 1 0 0 0 1 0 0 0 1 3623.dat
1 71 140 -136 310 1 0 0 0 1 0 0 0 1 3460.dat
1 71 160 -136 30 1 0 0 0 1 0 0 0 1 3666.dat
1 71 110 -136 90 1 0 0 0 1 0 0 0 1 3024.dat
1 71 110 -136 160 0 0 1 0 1 0 -1 0 0 3710.dat
1 71 110 -136 250 0 0 1 0 1 0 -1 0 0 3623.dat
1 71 180 -136 330 1 0 0 0 1 0 0 0 1 3460.dat
1 71 150 -136 50 1 0 0 0 1 0 0 0 1 3623.dat
1 71 220 -136 10 1 0 0 0 1 0 0 0 1 3710.dat
1 71 210 -136 120 0 0 1 0 1 0 -1 0 0 3460.dat
1 71 280 -136 210 1 0 0 0 1 0 0 0 1 3460.dat
1 71 210 -136 250 0 0 1 0 1 0 -1 0 0 3623.dat
1 71 210 -136 290 1 0 0 0 1 0 0 0 1 3024.dat
1 71 280 -136 30 1 0 0 0 1 0 0 0 1 3666.dat
1 71 280 -136 110 1 0 0 0 1 0 0 0 1 3666.dat
1 71 300 -136 310 1 0 0 0 1 0 0 0 1 3460.dat
1 71 290 -136 10 1 0 0 0 1 0 0 0 1 3623.dat
1 71 320 -136 330 1 0 0 0 1 0 0 0 1 3666.dat
1 71 340 -136 50 1 0 0 0 1 0 0 0 1 3710.dat
1 71 310 -136 80 0 0 1 0 1 0 -1 0 0 3023.dat
1 71 310 -136 160 0 0 1 0 1 0 -1 0 0 3710.dat
1 71 310 -136 260 0 0 1 0 1 0 -1 0 0 3710.dat
1 71 350 -136 30 1 0 0 0 1 0 0 0 1 3024.dat
1 71 400 -136 110 1 0 0 0 1 0 0 0 1 3666.dat
1 71 390 -136 70 1 0 0 0 1 0 0 0 1 3623.dat
1 71 400 -136 210 1 0 0 0 1 0 0 0 1 3710.dat
1 71 390 -136 50 1 0 0 0 1 0 0 0 1 3024.dat
1 71 400 -136 290 1 0 0 0 1 0 0 0 1 3023.dat
1 71 390 -136 310 1 0 0 0 1 0 0 0 1 3024.dat
1 71 410 -136 90 1 0 0 0 1 0 0 0 1 3024.dat
1 71 430 -136 140 1 0 0 0 1 0 0 0 1 3021.dat
1 71 430 -136 180 1 0 0 0 1 0 0 0 1 3021.dat
1 71 430 -136 240 1 0 0 0 1 0 0 0 1 3021.dat
1 71 420 -136 270 1 0 0 0 1 0 0 0 1 3023.dat
1 71 430 -136 90 1 0 0 0 1 0 0 0 1 3024.dat
1 71 450 -136 210 1 0 0 0 1 0 0 0 1 3024.dat
1 71 20 -144 180 0 0 1 0 1 0 -1 0 0 3034.dat
1 71 60 -144 70 1 0 0 0 1 0 0 0 1 3710.dat
1 71 40 -144 90 1 0 0 0 1 0 0 0 1 3023.dat
1 71 30 -144 270 1 0 0 0 1 0 0 0 1 3024.dat
1 71 100 -144 110 1 0 0 0 1 0 0 0 1 3666.dat
1 71 100 -144 210 1 0 0 0 1 0 0 0 1 3666.dat
1 71 50 -144 280 0 0 1 0 1 0 -1 0 0 3023.dat
1 71 140 -144 50 1 0 0 0 1 0 0 0 1 3460.dat
1 71 90 -144 300 1 0 0 0 1 0 0 0 1 3021.dat
1 71 180 -144 30 1 0 0 0 1 0 0 0 1 3460.dat
1 71 110 -144 80 0 0 1 0 1 0 -1 0 0 3023.dat
1 71 110 -144 150 0 0 1 0 1 0 -1 0 0 3623.dat
1 71 110 -144 190 1 0 0 0 1 0 0 0 1 3024.dat
1 71 110 -144 240 0 0 1 0 1 0 -1 0 0 3023.dat
1 71 110 -144 270 1 0 0 0 1 0 0 0 1 3024.dat
1 71 200 -144 320 1 0 0 0 1 0 0 0 1 3034.dat
1 71 240 -144 110 1 0 0 0 1 0 0 0 1 3460.dat
1 71 240 -144 210 1 0 0 0 1 0 0 0 1 3460.dat
1 71 210 -144 80 0 0 1 0 1 0 -1 0 0 3023.dat
1 71 210 -144 160 0 0 1 0 1 0 -1 0 0 3710.dat
1 71 210 -144 260 0 0 1 0 1 0 -1 0 0 3710.dat
1 71 260 -144 10 1 0 0 0 1 0 0 0 1 3710.dat
1 71 300 -144 30 1 0 0 0 1 0 0 0 1 3710.dat
1 71 320 -144 320 1 0 0 0 1 0 0 0 1 3020.dat
1 71 330 -144 50 1 0 0 0 1 0 0 0 1 3623.dat
1 71 310 -144 70 1 0 0 0 1 0 0 0 1 3024.dat
1 71 310 -144 90 1 0 0 0 1 0 0 0 1 3024.dat
1 71 310 -144 150 0 0 1 0 1 0 -1 0 0 3623.dat
1 71 310 -144 190 1 0 0 0 1 0 0 0 1 3024.dat
1 71 310 -144 250 0 0 1 0 1 0 -1 0 0 3623.dat
1 71 310 -144 290 1 0 0 0 1 0 0 0 1 3024.dat
1 71 380 -144 110 1 0 0 0 1 0 0 0 1 3666.dat
1 71 380 -144 210 1 0 0 0 1 0 0 0 1 3666.dat
1 71 350 -144 30 1 0 0 0 1 0 0 0 1 3024.dat
1 71 380 -144 60 1 0 0 0 1 0 0 0 1 3022.dat
1 71 380 -144 300 1 0 0 0 1 0 0 0 1 3022.dat
1 71 410 -144 80 0 0 1 0 1 0 -1 0 0 3023.dat
1 71 420 -144 160 0 0 1 0 1 0 -1 0 0 3020.dat
1 71 420 -144 250 0 0 1 0 1 0 -1 0 0 3021.dat
1 71 410 -144 290 1 0 0 0 1 0 0 0 1 3024.dat
1 71 430 -144 90 1 0 0 0 1 0 0 0 1 3024.dat
1 71 450 -144 160 0 0 1 0 1 0 -1 0 0 3666.dat
1 71 450 -144 230 1 0 0 0 1 0 0 0 1 3024.dat
1 71 20 -152 160 0 0 1 0 1 0 -1 0 0 3795.dat
1 71 20 -152 240 1 0 0 0 1 0 0 0 1 3022.dat
1 71 40 -152 80 1 0 0 0 1 0 0 0 1 3022.dat
1 71 40 -152 270 1 0 0 0 1 0 0 0 1 3023.dat
1 71 120 -152 110 1 0 0 0 1 0 0 0 1 3460.dat
1 71 120 -152 210 1 0 0 0 1 0 0 0 1 3460.dat
1 71 80 -152 290 1 0 0 0 1 0 0 0 1 3710.dat
1 71 120 -152 50 1 0 0 0 1 0 0 0 1 3666.dat
1 71 90 -152 70 1 0 0 0 1 0 0 0 1 3623.dat
1 71 140 -152 310 1 0 0 0 1 0 0 0 1 3460.dat
1 71 110 -152 160 0 0 1 0 1 0 -1 0 0 3710.dat
1 71 110 -152 250 0 0 1 0 1 0 -1 0 0 3623.dat
1 71 200 -152 30 1 0 0 0 1 0 0 0 1 3460.dat
1 71 200 -152 330 1 0 0 0 1 0 0 0 1 3460.dat
1 71 260 -152 50 1 0 0 0 1 0 0 0 1 3460.dat
1 71 210 -152 140 0 0 1 0 1 0 -1 0 0 3460.dat
1 71 210 -152 250 0 0 1 0 1 0 -1 0 0 3623.dat
1 71 210 -152 290 1 0 0 0 1 0 0 0 1 3024.dat
1 71 300 -152 110 1 0 0 0 1 0 0 0 1 3460.dat
1 71 300 -152 210 1 0 0 0 1 0 0 0 1 3460.dat
1 71 300 -152 310 1 0 0 0 1 0 0 0 1 3460.dat
1 71 320 -152 30 1 0 0 0 1 0 0 0 1 3710.dat
1 71 320 -152 330 1 0 0 0 1 0 0 0 1 3710.dat
1 71 310 -152 80 0 0 1 0 1 0 -1 0 0 3023.dat
1 71 310 -152 160 0 0 1 0 1 0 -1 0 0 3710.dat
1 71 310 -152 260 0 0 1 0 1 0 -1 0 0 3710.dat
1 71 370 -152 50 1 0 0 0 1 0 0 0 1 3623.dat
1 71 390 -152 70 1 0 0 0 1 0 0 0 1 3623.dat
1 71 390 -152 290 1 0 0 0 1 0 0 0 1 3623.dat
1 71 420 -152 110 1 0 0 0 1 0 0 0 1 3710.dat
1 71 420 -152 210 1 0 0 0 1 0 0 0 1 3710.dat
1 71 390 -152 310 1 0 0 0 1 0 0 0 1 3024.dat
1 71 420 -152 90 1 0 0 0 1 0 0 0 1 3023.dat
1 71 430 -152 140 1 0 0 0 1 0 0 0 1 3021.dat
1 71 430 -152 180 1 0 0 0 1 0 0 0 1 3021.dat
1 71 420 -152 240 1 0 0 0 1 0 0 0 1 3022.dat
1 71 420 -152 270 1 0 0 0 1 0 0 0 1 3023.dat
1 71 450 -152 230 1 0 0 0 1 0 0 0 1 3024.dat
1 71 20 -160 180 0 0 1 0 1 0 -1 0 0 3034.dat
1 71 80 -160 70 1 0 0 0 1 0 0 0 1 3666.dat
1 71 40 -160 90 1 0 0 0 1 0 0 0 1 3023.dat
1 71 30 -160 270 1 0 0 0 1 0 0 0 1 3024.dat
1 71 100 -160 110 1 0 0 0 1 0 0 0 1 3666.dat
1 71 100 -160 210 1 0 0 0 1 0 0 0 1 3666.dat
1 71 50 -160 280 0 0 1 0 1 0 -1 0 0 3023.dat
1 71 140 -160 50 1 0 0 0 1 0 0 0 1 3460.dat
1 71 100 -160 300 1 0 0 0 1 0 0 0 1 3020.dat
1 71 110 -160 150 0 0 1 0 1 0 -1 0 0 3623.dat
1 71 110 -160 190 1 0 0 0 1 0 0 0 1 3024.dat
1 71 110 -160 240 0 0 1 0 1 0 -1 0 0 3023.dat
1 71 110 -160 270 1 0 0 0 1 0 0 0 1 3024.dat
1 71 220 -160 30 1 0 0 0 1 0 0 0 1 3460.dat
1 71 220 -160 320 1 0 0 0 1 0 0 0 1 3034.dat
1 71 240 -160 110 1 0 0 0 1 0 0 0 1 3460.dat
1 71 240 -160 210 1 0 0 0 1 0 0 0 1 3460.dat
1 71 210 -160 80 0 0 1 0 1 0 -1 0 0 3023.dat
1 71 210 -160 160 0 0 1 0 1 0 -1 0 0 3710.dat
1 71 210 -160 260 0 0 1 0 1 0 -1 0 0 3710.dat
1 71 300 -160 50 1 0 0 0 1 0 0 0 1 3460.dat
1 71 320 -160 30 1 0 0 0 1 0 0 0 1 3023.dat
1 71 310 -160 70 1 0 0 0 1 0 0 0 1 3024.dat
1 71 310 -160 90 1 0 0 0 1 0 0 0 1 3024.dat
1 71 310 -160 150 0 0 1 0 1 0 -1 0 0 3623.dat
1 71 310 -160 190 1 0 0 0 1 0 0 0 1 3024.dat
1 71 310 -160 280 0 0 1 0 1 0 -1 0 0 3666.dat
1 71 380 -160 110 1 0 0 0 1 0 0 0 1 3666.dat
1 71 380 -160 210 1 0 0 0 1 0 0 0 1 3666.dat
1 71 360 -160 310 1 0 0 0 1 0 0 0 1 3710.dat
1 71 330 -160 330 1 0 0 0 1 0 0 0 1 3024.dat
1 71 380 -160 70 1 0 0 0 1 0 0 0 1 3710.dat
1 71 380 -160 290 1 0 0 0 1 0 0 0 1 3710.dat
1 71 390 -160 50 1 0 0 0 1 0 0 0 1 3024.dat
1 71 410 -160 90 1 0 0 0 1 0 0 0 1 3024.dat
1 71 420 -160 160 0 0 1 0 1 0 -1 0 0 3020.dat
1 71 420 -160 250 0 0 1 0 1 0 -1 0 0 3021.dat
1 71 430 -160 90 1 0 0 0 1 0 0 0 1 3024.dat
1 71 450 -160 180 0 0 1 0 1 0 -1 0 0 3666.dat
1 71 50 -168 270 0 0 1 0 1 0 -1 0 0 3623.dat
1 71 70 -168 100 0 0 1 0 1 0 -1 0 0 3023.dat
1 71 70 -168 280 0 0 1 0 1 0 -1 0 0 3023.dat
1 71 160 -168 70 1 0 0 0 1 0 0 0 1 3023.dat
1 71 160 -168 300 1 0 0 0 1 0 0 0 1 3022.dat
1 71 360 -168 70 1 0 0 0 1 0 0 0 1 3710.dat
1 71 350 -168 300 1 0 0 0 1 0 0 0 1 3021.dat
1 71 400 -168 100 1 0 0 0 1 0 0 0 1 3022.dat
1 71 400 -168 270 1 0 0 0 1 0 0 0 1 3023.dat
1 71 20 -168 160 0 0 1 0 1 0 -1 0 0 3795.dat
1 71 20 -168 230 1 0 0 0 1 0 0 0 1 3023.dat
1 71 30 -168 90 1 0 0 0 1 0 0 0 1 3024.dat
1 71 30 -168 260 0 0 1 0 1 0 -1 0 0 3023.dat
1 71 80 -168 70 1 0 0 0 1 0 0 0 1 3710.dat
1 71 50 -168 100 0 0 1 0 1 0 -1 0 0 3023.dat
1 71 120 -168 210 1 0 0 0 1 0 0 0 1 3460.dat
1 71 160 -168 50 1 0 0 0 1 0 0 0 1 3460.dat
1 71 160 -168 110 1 0 0 0 1 0 0 0 1 3460.dat
1 71 110 -168 300 1 0 0 0 1 0 0 0 1 3021.dat
1 71 110 -168 160 0 0 1 0 1 0 -1 0 0 3710.dat
1 71 110 -168 250 0 0 1 0 1 0 -1 0 0 3623.dat
1 71 130 -168 70 1 0 0 0 1 0 0 0 1 3024.dat
1 71 240 -168 30 1 0 0 0 1 0 0 0 1 3666.dat
1 71 240 -168 320 1 0 0 0 1 0 0 0 1 3795.dat
1 71 210 -168 70 1 0 0 0 1 0 0 0 1 3024.dat
1 71 210 -168 90 1 0 0 0 1 0 0 0 1 3024.dat
1 71 210 -168 200 0 0 1 0 1 0 -1 0 0 3460.dat
1 71 210 -168 290 1 0 0 0 1 0 0 0 1 3024.dat
1 71 300 -168 210 1 0 0 0 1 0 0 0 1 3460.dat
1 71 300 -168 50 1 0 0 0 1 0 0 0 1 3666.dat
1 71 300 -168 110 1 0 0 0 1 0 0 0 1 3666.dat
1 71 310 -168 30 1 0 0 0 1 0 0 0 1 3024.dat
1 71 310 -168 80 0 0 1 0 1 0 -1 0 0 3023.dat
1 71 310 -168 160 0 0 1 0 1 0 -1 0 0 3710.dat
1 71 310 -168 260 0 0 1 0 1 0 -1 0 0 3710.dat
1 71 310 -168 320 0 0 1 0 1 0 -1 0 0 3023.dat
1 71 370 -168 50 1 0 0 0 1 0 0 0 1 3024.dat
1 71 370 -168 110 1 0 0 0 1 0 0 0 1 3024.dat
1 71 420 -168 210 1 0 0 0 1 0 0 0 1 3710.dat
1 71 390 -168 290 1 0 0 0 1 0 0 0 1 3024.dat
1 71 410 -168 70 1 0 0 0 1 0 0 0 1 3024.dat
1 71 430 -168 140 1 0 0 0 1 0 0 0 1 3021.dat
1 71 430 -168 180 1 0 0 0 1 0 0 0 1 3021.dat
1 71 420 -168 240 1 0 0 0 1 0 0 0 1 3022.dat
1 71 430 -168 110 1 0 0 0 1 0 0 0 1 3024.dat
1 71 100 -176 100 1 0 0 0 1 0 0 0 1 3022.dat
1 71 100 -176 280 1 0 0 0 1 0 0 0 1 3022.dat
1 71 260 -176 70 1 0 0 0 1 0 0 0 1 3460.dat
1 71 220 -176 300 1 0 0 0 1 0 0 0 1 3020.dat
1 71 320 -176 300 1 0 0 0 1 0 0 0 1 3020.dat
1 71 380 -176 280 1 0 0 0 1 0 0 0 1 3022.dat
1 71 20 -176 180 0 0 1 0 1 0 -1 0 0 3795.dat
1 71 50 -176 100 1 0 0 0 1 0 0 0 1 3021.dat
1 71 40 -176 260 1 0 0 0 1 0 0 0 1 3022.dat
1 71 100 -176 70 1 0 0 0 1 0 0 0 1 3666.dat
1 71 100 -176 210 1 0 0 0 1 0 0 0 1 3666.dat
1 71 60 -176 290 1 0 0 0 1 0 0 0 1 3023.dat
1 71 70 -176 270 1 0 0 0 1 0 0 0 1 3024.dat
1 71 110 -176 150 0 0 1 0 1 0 -1 0 0 3623.dat
1 71 110 -176 190 1 0 0 0 1 0 0 0 1 3024.dat
1 71 110 -176 240 0 0 1 0 1 0 -1 0 0 3023.dat
1 71 200 -176 50 1 0 0 0 1 0 0 0 1 3460.dat
1 71 200 -176 110 1 0 0 0 1 0 0 0 1 3460.dat
1 71 150 -176 300 1 0 0 0 1 0 0 0 1 3021.dat
1 71 170 -176 70 1 0 0 0 1 0 0 0 1 3024.dat
1 71 240 -176 210 1 0 0 0 1 0 0 0 1 3460.dat
1 71 210 -176 90 1 0 0 0 1 0 0 0 1 3024.dat
1 71 210 -176 160 0 0 1 0 1 0 -1 0 0 3710.dat
1 71 210 -176 250 0 0 1 0 1 0 -1 0 0 3623.dat
1 71 270 -176 320 0 0 1 0 1 0 -1 0 0 3023.dat
1 71 320 -176 50 1 0 0 0 1 0 0 0 1 3710.dat
1 71 360 -176 110 1 0 0 0 1 0 0 0 1 3460.dat
1 71 310 -176 90 1 0 0 0 1 0 0 0 1 3024.dat
1 71 310 -176 150 0 0 1 0 1 0 -1 0 0 3623.dat
1 71 310 -176 190 1 0 0 0 1 0 0 0 1 3024.dat
1 71 310 -176 250 0 0 1 0 1 0 -1 0 0 3623.dat
1 71 380 -176 210 1 0 0 0 1 0 0 0 1 3666.dat
1 71 370 -176 70 1 0 0 0 1 0 0 0 1 3623.dat
1 71 370 -176 50 1 0 0 0 1 0 0 0 1 3024.dat
1 71 400 -176 90 1 0 0 0 1 0 0 0 1 3023.dat
1 71 420 -176 160 0 0 1 0 1 0 -1 0 0 3020.dat
1 71 410 -176 250 0 0 1 0 1 0 -1 0 0 3623.dat
1 71 430 -176 240 0 0 1 0 1 0 -1 0 0 3023.dat
1 71 450 -176 180 0 0 1 0 1 0 -1 0 0 3023.dat
1 71 20 -184 160 0 0 1 0 1 0 -1 0 0 3020.dat
1 71 80 -184 210 1 0 0 0 1 0 0 0 1 3460.dat
1 71 100 -184 100 1 0 0 0 1 0 0 0 1 3034.dat
1 71 40 -184 250 0 0 1 0 1 0 -1 0 0 3021.dat
1 71 120 -184 70 1 0 0 0 1 0 0 0 1 3460.dat
1 71 120 -184 290 1 0 0 0 1 0 0 0 1 3460.dat
1 71 120 -184 270 1 0 0 0 1 0 0 0 1 3666.dat
1 71 110 -184 160 0 0 1 0 1 0 -1 0 0 3710.dat
1 71 110 -184 230 1 0 0 0 1 0 0 0 1 3024.dat
1 71 110 -184 250 1 0 0 0 1 0 0 0 1 3024.dat
1 71 220 -184 210 1 0 0 0 1 0 0 0 1 3666.dat
1 71 200 -184 100 1 0 0 0 1 0 0 0 1 3022.dat
1 71 260 -184 310 1 0 0 0 1 0 0 0 1 3460.dat
1 71 260 -184 60 1 0 0 0 1 0 0 0 1 3795.dat
1 71 210 -184 150 0 0 1 0 1 0 -1 0 0 3623.dat
1 71 210 -184 190 1 0 0 0 1 0 0 0 1 3024.dat
1 71 210 -184 260 0 0 1 0 1 0 -1 0 0 3710.dat
1 71 300 -184 110 1 0 0 0 1 0 0 0 1 3460.dat
1 71 300 -184 290 1 0 0 0 1 0 0 0 1 3460.dat
1 71 360 -184 210 1 0 0 0 1 0 0 0 1 3460.dat
1 71 310 -184 90 1 0 0 0 1 0 0 0 1 3024.dat
1 71 310 -184 160 0 0 1 0 1 0 -1 0 0 3710.dat
1 71 310 -184 240 0 0 1 0 1 0 -1 0 0 3023.dat
1 71 310 -184 270 1 0 0 0 1 0 0 0 1 3024.dat
1 71 330 -184 60 0 0 1 0 1 0 -1 0 0 3023.dat
1 71 370 -184 80 1 0 0 0 1 0 0 0 1 3021.dat
1 71 380 -184 270 1 0 0 0 1 0 0 0 1 3710.dat
1 71 410 -184 110 1 0 0 0 1 0 0 0 1 3623.dat
1 71 400 -184 250 1 0 0 0 1 0 0 0 1 3023.dat
1 71 390 -184 290 1 0 0 0 1 0 0 0 1 3024.dat
1 71 410 -184 90 1 0 0 0 1 0 0 0 1 3024.dat
1 71 420 -184 150 0 0 1 0 1 0 -1 0 0 3021.dat
1 71 420 -184 190 1 0 0 0 1 0 0 0 1 3023.dat
1 71 420 -184 230 1 0 0 0 1 0 0 0 1 3023.dat
1 71 140 -192 260 1 0 0 0 1 0 0 0 1 3022.dat
1 71 150 -192 130 1 0 0 0 1 0 0 0 1 3024.dat
1 71 260 -192 280 1 0 0 0 1 0 0 0 1 3034.dat
1 71 300 -192 100 1 0 0 0 1 0 0 0 1 3034.dat
1 71 20 -192 150 0 0 1 0 1 0 -1 0 0 3021.dat
1 71 20 -192 200 1 0 0 0 1 0 0 0 1 3022.dat
1 71 80 -192 100 1 0 0 0 1 0 0 0 1 3795.dat
1 71 40 -192 240 1 0 0 0 1 0 0 0 1 3022.dat
1 71 60 -192 270 1 0 0 0 1 0 0 0 1 3710.dat
1 71 120 -192 210 1 0 0 0 1 0 0 0 1 3460.dat
1 71 80 -192 70 1 0 0 0 1 0 0 0 1 3023.dat
1 71 90 -192 290 1 0 0 0 1 0 0 0 1 3623.dat
1 71 110 -192 150 0 0 1 0 1 0 -1 0 0 3623.dat
1 71 110 -192 190 1 0 0 0 1 0 0 0 1 3024.dat
1 71 110 -192 250 0 0 1 0 1 0 -1 0 0 3623.dat
1 71 220 -192 70 1 0 0 0 1 0 0 0 1 3460.dat
1 71 180 -192 100 1 0 0 0 1 0 0 0 1 3020.dat
1 71 160 -192 290 1 0 0 0 1 0 0 0 1 3023.dat
1 71 170 -192 270 1 0 0 0 1 0 0 0 1 3024.dat
1 71 210 -192 180 0 0 1 0 1 0 -1 0 0 3666.dat
1 71 210 -192 250 1 0 0 0 1 0 0 0 1 3024.dat
1 71 300 -192 210 1 0 0 0 1 0 0 0 1 3460.dat
1 71 340 -192 70 1 0 0 0 1 0 0 0 1 3710.dat
1 71 310 -192 150 0 0 1 0 1 0 -1 0 0 3623.dat
1 71 310 -192 190 1 0 0 0 1 0 0 0 1 3024.dat
1 71 310 -192 230 1 0 0 0 1 0 0 0 1 3024.dat
1 71 310 -192 250 1 0 0 0 1 0 0 0 1 3024.dat
1 71 360 -192 280 1 0 0 0 1 0 0 0 1 3022.dat
1 71 390 -192 100 0 0 1 0 1 0 -1 0 0 3023.dat
1 71 410 -192 210 1 0 0 0 1 0 0 0 1 3623.dat
1 71 390 -192 260 0 0 1 0 1 0 -1 0 0 3023.dat
1 71 410 -192 140 0 0 1 0 1 0 -1 0 0 3710.dat
1 71 410 -192 190 1 0 0 0 1 0 0 0 1 3024.dat
1 71 410 -192 240 0 0 1 0 1 0 -1 0 0 3023.dat
1 71 430 -192 160 0 0 1 0 1 0 -1 0 0 3710.dat
1 71 430 -192 230 1 0 0 0 1 0 0 0 1 3024.dat
1 71 20 -200 170 0 0 1 0 1 0 -1 0 0 3021.dat
1 71 100 -200 110 1 0 0 0 1 0 0 0 1 3460.dat
1 71 40 -200 130 1 0 0 0 1 0 0 0 1 3023.dat
1 71 100 -200 210 1 0 0 0 1 0 0 0 1 3460.dat
1 71 40 -200 230 1 0 0 0 1 0 0 0 1 3023.dat
1 71 100 -200 250 1 0 0 0 1 0 0 0 1 3460.dat
1 71 80 -200 90 1 0 0 0 1 0 0 0 1 3710.dat
1 71 70 -200 270 1 0 0 0 1 0 0 0 1 3623.dat
1 71 160 -200 130 1 0 0 0 1 0 0 0 1 3666.dat
1 71 110 -200 170 0 0 1 0 1 0 -1 0 0 3623.dat
1 71 160 -200 230 1 0 0 0 1 0 0 0 1 3666.dat
1 71 180 -200 160 1 0 0 0 1 0 0 0 1 3020.dat
1 71 180 -200 190 1 0 0 0 1 0 0 0 1 3710.dat
1 71 240 -200 90 1 0 0 0 1 0 0 0 1 3460.dat
1 71 240 -200 270 1 0 0 0 1 0 0 0 1 3460.dat
1 71 260 -200 110 1 0 0 0 1 0 0 0 1 3460.dat
1 71 260 -200 210 1 0 0 0 1 0 0 0 1 3460.dat
1 71 200 -200 250 1 0 0 0 1 0 0 0 1 3023.dat
1 71 280 -200 70 1 0 0 0 1 0 0 0 1 3460.dat
1 71 280 -200 290 1 0 0 0 1 0 0 0 1 3460.dat
1 71 310 -200 160 0 0 1 0 1 0 -1 0 0 3710.dat
1 71 310 -200 240 0 0 1 0 1 0 -1 0 0 3023.dat
1 71 360 -200 90 1 0 0 0 1 0 0 0 1 3710.dat
1 71 350 -200 270 1 0 0 0 1 0 0 0 1 3623.dat
1 71 380 -200 110 1 0 0 0 1 0 0 0 1 3710.dat
1 71 380 -200 210 1 0 0 0 1 0 0 0 1 3710.dat
1 71 390 -200 250 1 0 0 0 1 0 0 0 1 3623.dat
1 71 400 -200 140 1 0 0 0 1 0 0 0 1 3022.dat
1 71 400 -200 230 1 0 0 0 1 0 0 0 1 3023.dat
1 71 420 -200 180 1 0 0 0 1 0 0 0 1 3022.dat
1 71 430 -200 210 1 0 0 0 1 0 0 0 1 3024.dat
1 71 40 -208 180 0 0 1 0 1 0 -1 0 0 3034.dat
1 71 70 -208 90 1 0 0 0 1 0 0 0 1 3623.dat
1 71 60 -208 270 1 0 0 0 1 0 0 0 1 3023.dat
1 71 90 -208 110 1 0 0 0 1 0 0 0 1 3623.dat
1 71 140 -208 210 1 0 0 0 1 0 0 0 1 3460.dat
1 71 90 -208 250 1 0 0 0 1 0 0 0 1 3623.dat
1 71 90 -208 270 1 0 0 0 1 0 0 0 1 3024.dat
1 71 120 -208 160 0 0 1 0 1 0 -1 0 0 3020.dat
1 71 140 -208 230 1 0 0 0 1 0 0 0 1 3710.dat
1 71 170 -208 160 1 0 0 0 1 0 0 0 1 3021.dat
1 71 170 -208 190 1 0 0 0 1 0 0 0 1 3623.dat
1 71 190 -208 130 1 0 0 0 1 0 0 0 1 3623.dat
1 71 220 -208 250 1 0 0 0 1 0 0 0 1 3666.dat
1 71 240 -208 110 1 0 0 0 1 0 0 0 1 3666.dat
1 71 200 -208 230 1 0 0 0 1 0 0 0 1 3023.dat
1 71 280 -208 90 1 0 0 0 1 0 0 0 1 3460.dat
1 71 210 -208 170 0 0 1 0 1 0 -1 0 0 3623.dat
1 71 280 -208 270 1 0 0 0 1 0 0 0 1 3460.dat
1 71 300 -208 210 1 0 0 0 1 0 0 0 1 3460.dat
1 71 290 -208 290 1 0 0 0 1 0 0 0 1 3024.dat
1 71 340 -208 110 1 0 0 0 1 0 0 0 1 3710.dat
1 71 310 -208 150 0 0 1 0 1 0 -1 0 0 3623.dat
1 71 310 -208 190 1 0 0 0 1 0 0 0 1 3024.dat
1 71 310 -208 230 1 0 0 0 1 0 0 0 1 3024.dat
1 71 340 -208 250 1 0 0 0 1 0 0 0 1 3710.dat
1 71 370 -208 90 1 0 0 0 1 0 0 0 1 3024.dat
1 71 370 -208 270 1 0 0 0 1 0 0 0 1 3024.dat
1 71 390 -208 180 0 0 1 0 1 0 -1 0 0 3460.dat
1 71 410 -208 180 0 0 1 0 1 0 -1 0 0 3666.dat
1 71 40 -216 160 0 0 1 0 1 0 -1 0 0 3795.dat
1 71 60 -216 230 1 0 0 0 1 0 0 0 1 3710.dat
1 71 70 -216 250 1 0 0 0 1 0 0 0 1 3623.dat
1 71 70 -216 100 0 0 1 0 1 0 -1 0 0 3023.dat
1 71 100 -216 210 1 0 0 0 1 0 0 0 1 3710.dat
1 71 100 -216 120 1 0 0 0 1 0 0 0 1 3022.dat
1 71 120 -216 170 0 0 1 0 1 0 -1 0 0 3021.dat
1 71 110 -216 230 1 0 0 0 1 0 0 0 1 3024.dat
1 71 220 -216 180 0 0 1 0 1 0 -1 0 0 3034.dat
1 71 300 -216 100 1 0 0 0 1 0 0 0 1 3795.dat
1 71 320 -216 210 1 0 0 0 1 0 0 0 1 3460.dat
1 71 280 -216 260 1 0 0 0 1 0 0 0 1 3020.dat
1 71 310 -216 160 0 0 1 0 1 0 -1 0 0 3710.dat
1 71 310 -216 230 1 0 0 0 1 0 0 0 1 3024.dat
1 71 350 -216 250 1 0 0 0 1 0 0 0 1 3623.dat
1 71 330 -216 270 1 0 0 0 1 0 0 0 1 3024.dat
1 71 370 -216 230 1 0 0 0 1 0 0 0 1 3623.dat
1 71 370 -216 120 0 0 1 0 1 0 -1 0 0 3023.dat
1 71 390 -216 160 0 0 1 0 1 0 -1 0 0 3710.dat
1 71 410 -216 180 0 0 1 0 1 0 -1 0 0 3710.dat
1 71 40 -224 180 0 0 1 0 1 0 -1 0 0 3795.dat
1 71 70 -224 110 1 0 0 0 1 0 0 0 1 3623.dat
1 71 60 -224 250 1 0 0 0 1 0 0 0 1 3023.dat
1 71 90 -224 130 1 0 0 0 1 0 0 0 1 3623.dat
1 71 90 -224 220 1 0 0 0 1 0 0 0 1 3021.dat
1 71 100 -224 170 0 0 1 0 1 0 -1 0 0 3021.dat
1 71 90 -224 250 1 0 0 0 1 0 0 0 1 3024.dat
1 71 240 -224 180 0 0 1 0 1 0 -1 0 0 3795.dat
1 71 300 -224 110 1 0 0 0 1 0 0 0 1 3666.dat
1 71 300 -224 250 1 0 0 0 1 0 0 0 1 3666.dat
1 71 270 -224 130 1 0 0 0 1 0 0 0 1 3024.dat
1 71 320 -224 220 1 0 0 0 1 0 0 0 1 3795.dat
1 71 300 -224 90 1 0 0 0 1 0 0 0 1 3023.dat
1 71 340 -224 130 1 0 0 0 1 0 0 0 1 3710.dat
1 71 310 -224 170 0 0 1 0 1 0 -1 0 0 3623.dat
1 71 380 -224 170 0 0 1 0 1 0 -1 0 0 3021.dat
1 71 390 -224 210 1 0 0 0 1 0 0 0 1 3024.dat
1 71 40 -232 180 0 0 1 0 1 0 -1 0 0 3020.dat
1 71 70 -232 120 1 0 0 0 1 0 0 0 1 3021.dat
1 71 80 -232 230 1 0 0 0 1 0 0 0 1 3710.dat
1 71 90 -232 210 1 0 0 0 1 0 0 0 1 3623.dat
1 71 70 -232 250 1 0 0 0 1 0 0 0 1 3024.dat
1 71 100 -232 160 1 0 0 0 1 0 0 0 1 3022.dat
1 71 100 -232 190 1 0 0 0 1 0 0 0 1 3023.dat
1 71 110 -232 130 1 0 0 0 1 0 0 0 1 3024.dat
1 71 300 -232 130 1 0 0 0 1 0 0 0 1 3460.dat
1 71 240 -232 180 0 0 1 0 1 0 -1 0 0 3020.dat
1 71 300 -232 230 1 0 0 0 1 0 0 0 1 3460.dat
1 71 280 -232 110 1 0 0 0 1 0 0 0 1 3710.dat
1 71 280 -232 250 1 0 0 0 1 0 0 0 1 3710.dat
1 71 320 -232 210 1 0 0 0 1 0 0 0 1 3666.dat
1 71 310 -232 160 0 0 1 0 1 0 -1 0 0 3023.dat
1 71 310 -232 190 1 0 0 0 1 0 0 0 1 3024.dat
1 71 340 -232 110 1 0 0 0 1 0 0 0 1 3023.dat
1 71 340 -232 250 1 0 0 0 1 0 0 0 1 3023.dat
1 71 360 -232 160 1 0 0 0 1 0 0 0 1 3022.dat
1 71 380 -232 190 1 0 0 0 1 0 0 0 1 3023.dat
1 71 90 -240 150 1 0 0 0 1 0 0 0 1 3623.dat
1 71 220 -240 180 0 0 1 0 1 0 -1 0 0 3020.dat
1 71 300 -240 100 1 0 0 0 1 0 0 0 1 3022.dat
1 71 310 -240 270 1 0 0 0 1 0 0 0 1 3623.dat
1 71 390 -240 180 0 0 1 0 1 0 -1 0 0 3710.dat
1 71 40 -240 180 1 0 0 0 1 0 0 0 1 3022.dat
1 71 70 -240 130 1 0 0 0 1 0 0 0 1 3623.dat
1 71 50 -240 150 1 0 0 0 1 0 0 0 1 3024.dat
1 71 70 -240 220 1 0 0 0 1 0 0 0 1 3021.dat
1 71 100 -240 180 1 0 0 0 1 0 0 0 1 3022.dat
1 71 110 -240 210 1 0 0 0 1 0 0 0 1 3024.dat
1 71 250 -240 130 1 0 0 0 1 0 0 0 1 3623.dat
1 71 250 -240 230 1 0 0 0 1 0 0 0 1 3623.dat
1 71 260 -240 110 1 0 0 0 1 0 0 0 1 3023.dat
1 71 300 -240 210 1 0 0 0 1 0 0 0 1 3666.dat
1 71 300 -240 250 1 0 0 0 1 0 0 0 1 3666.dat
1 71 340 -240 130 1 0 0 0 1 0 0 0 1 3710.dat
1 71 310 -240 170 0 0 1 0 1 0 -1 0 0 3623.dat
1 71 330 -240 110 1 0 0 0 1 0 0 0 1 3024.dat
1 71 350 -240 110 1 0 0 0 1 0 0 0 1 3024.dat
1 71 360 -240 230 1 0 0 0 1 0 0 0 1 3023.dat
1 71 370 -240 180 0 0 1 0 1 0 -1 0 0 3710.dat
1 71 60 -248 180 0 0 1 0 1 0 -1 0 0 3020.dat
1 71 70 -248 130 1 0 0 0 1 0 0 0 1 3024.dat
1 71 90 -248 180 0 0 1 0 1 0 -1 0 0 3710.dat
1 71 220 -248 180 0 0 1 0 1 0 -1 0 0 3795.dat
1 71 300 -248 110 1 0 0 0 1 0 0 0 1 3460.dat
1 71 300 -248 250 1 0 0 0 1 0 0 0 1 3460.dat
1 71 250 -248 130 1 0 0 0 1 0 0 0 1 3024.dat
1 71 320 -248 210 1 0 0 0 1 0 0 0 1 3460.dat
1 71 300 -248 270 1 0 0 0 1 0 0 0 1 3666.dat
1 71 300 -248 90 1 0 0 0 1 0 0 0 1 3710.dat
1 71 310 -248 160 0 0 1 0 1 0 -1 0 0 3710.dat
1 71 350 -248 90 1 0 0 0 1 0 0 0 1 3024.dat
1 71 380 -248 160 0 0 1 0 1 0 -1 0 0 3020.dat
1 71 380 -248 230 1 0 0 0 1 0 0 0 1 3023.dat
1 71 70 -256 180 0 0 1 0 1 0 -1 0 0 3023.dat
1 71 200 -256 190 0 0 1 0 1 0 -1 0 0 3021.dat
1 71 280 -256 110 1 0 0 0 1 0 0 0 1 3460.dat
1 71 220 -256 140 1 0 0 0 1 0 0 0 1 3022.dat
1 71 220 -256 240 1 0 0 0 1 0 0 0 1 3022.dat
1 71 300 -256 210 1 0 0 0 1 0 0 0 1 3460.dat
1 71 300 -256 90 1 0 0 0 1 0 0 0 1 3666.dat
1 71 300 -256 260 1 0 0 0 1 0 0 0 1 3795.dat
1 71 310 -256 150 0 0 1 0 1 0 -1 0 0 3623.dat
1 71 310 -256 190 1 0 0 0 1 0 0 0 1 3024.dat
1 71 370 -256 110 0 0 1 0 1 0 -1 0 0 3623.dat
1 71 370 -256 240 0 0 1 0 1 0 -1 0 0 3023.dat
1 71 390 -256 160 0 0 1 0 1 0 -1 0 0 3666.dat
1 71 390 -256 230 1 0 0 0 1 0 0 0 1 3024.dat
1 71 410 -256 180 0 0 1 0 1 0 -1 0 0 3710.dat
1 71 200 -264 180 0 0 1 0 1 0 -1 0 0 3020.dat
1 71 200 -264 230 1 0 0 0 1 0 0 0 1 3023.dat
1 71 300 -264 100 1 0 0 0 1 0 0 0 1 3034.dat
1 71 300 -264 270 1 0 0 0 1 0 0 0 1 3460.dat
1 71 300 -264 70 1 0 0 0 1 0 0 0 1 3710.dat
1 71 290 -264 290 1 0 0 0 1 0 0 0 1 3623.dat
1 71 350 -264 70 1 0 0 0 1 0 0 0 1 3024.dat
1 71 390 -264 160 0 0 1 0 1 0 -1 0 0 3460.dat
1 71 390 -264 250 1 0 0 0 1 0 0 0 1 3024.dat
1 71 410 -264 180 0 0 1 0 1 0 -1 0 0 3666.dat
1 71 210 -264 120 0 0 1 0 1 0 -1 0 0 3023.dat
1 71 230 -264 250 1 0 0 0 1 0 0 0 1 3623.dat
1 71 230 -264 130 1 0 0 0 1 0 0 0 1 3024.dat
1 71 280 -264 210 1 0 0 0 1 0 0 0 1 3666.dat
1 71 310 -264 160 0 0 1 0 1 0 -1 0 0 3710.dat
1 71 310 -264 240 0 0 1 0 1 0 -1 0 0 3023.dat
1 71 350 -264 250 1 0 0 0 1 0 0 0 1 3623.dat
1 71 360 -264 210 1 0 0 0 1 0 0 0 1 3023.dat
1 71 360 -272 90 0 0 1 0 1 0 -1 0 0 3021.dat
1 71 310 -272 80 1 0 0 0 1 0 0 0 1 3021.dat
1 71 260 -272 210 1 0 0 0 1 0 0 0 1 3460.dat
1 71 270 -272 100 0 0 1 0 1 0 -1 0 0 3023.dat
1 71 310 -272 110 1 0 0 0 1 0 0 0 1 3623.dat
1 71 250 -272 100 0 0 1 0 1 0 -1 0 0 3023.dat
1 71 380 -272 210 1 0 0 0 1 0 0 0 1 3710.dat
1 71 410 -272 140 0 0 1 0 1 0 -1 0 0 3710.dat
1 71 200 -272 160 0 0 1 0 1 0 -1 0 0 3020.dat
1 71 280 -272 290 1 0 0 0 1 0 0 0 1 3710.dat
1 71 390 -272 180 0 0 1 0 1 0 -1 0 0 3023.dat
1 71 310 -272 260 0 0 1 0 1 0 -1 0 0 3023.dat
1 71 390 -272 140 0 0 1 0 1 0 -1 0 0 3023.dat
1 71 230 -272 100 0 0 1 0 1 0 -1 0 0 3023.dat
1 71 260 -272 270 1 0 0 0 1 0 0 0 1 3710.dat
1 71 390 -272 100 0 0 1 0 1 0 -1 0 0 3023.dat
1 71 410 -272 230 1 0 0 0 1 0 0 0 1 3024.dat
1 71 190 -272 230 1 0 0 0 1 0 0 0 1 3024.dat
1 71 220 -272 250 1 0 0 0 1 0 0 0 1 3023.dat
1 71 360 -272 260 1 0 0 0 1 0 0 0 1 3022.dat
1 71 330 -272 280 0 0 1 0 1 0 -1 0 0 3023.dat
1 71 310 -272 190 1 0 0 0 1 0 0 0 1 3024.dat
1 71 390 -272 250 1 0 0 0 1 0 0 0 1 3024.dat
1 71 310 -272 170 1 0 0 0 1 0 0 0 1 3024.dat
1 71 210 -272 230 1 0 0 0 1 0 0 0 1 3024.dat
1 71 270 -272 70 1 0 0 0 1 0 0 0 1 3024.dat
1 71 310 -272 140 0 0 1 0 1 0 -1 0 0 3023.dat
1 71 410 -272 190 1 0 0 0 1 0 0 0 1 3024.dat
1 71 390 -272 230 1 0 0 0 1 0 0 0 1 3024.dat
1 71 210 -272 110 1 0 0 0 1 0 0 0 1 3024.dat
1 71 310 -272 230 1 0 0 0 1 0 0 0 1 3024.dat
1 71 200 -280 180 0 0 1 0 1 0 -1 0 0 3795.dat
1 71 210 -280 250 1 0 0 0 1 0 0 0 1 3623.dat
1 71 280 -280 100 1 0 0 0 1 0 0 0 1 3034.dat
1 71 280 -280 270 1 0 0 0 1 0 0 0 1 3460.dat
1 71 300 -280 210 1 0 0 0 1 0 0 0 1 3460.dat
1 71 300 -280 70 1 0 0 0 1 0 0 0 1 3666.dat
1 71 300 -280 290 1 0 0 0 1 0 0 0 1 3666.dat
1 71 310 -280 160 0 0 1 0 1 0 -1 0 0 3710.dat
1 71 310 -280 240 0 0 1 0 1 0 -1 0 0 3023.dat
1 71 370 -280 90 0 0 1 0 1 0 -1 0 0 3623.dat
1 71 380 -280 260 1 0 0 0 1 0 0 0 1 3022.dat
1 71 390 -280 120 0 0 1 0 1 0 -1 0 0 3710.dat
1 71 400 -280 210 0 0 1 0 1 0 -1 0 0 3021.dat
1 71 410 -280 130 0 0 1 0 1 0 -1 0 0 3623.dat
1 71 420 -280 170 1 0 0 0 1 0 0 0 1 3023.dat
1 71 410 -280 250 1 0 0 0 1 0 0 0 1 3024.dat
1 71 190 -288 180 1 0 0 0 1 0 0 0 1 3021.dat
1 71 240 -288 210 1 0 0 0 1 0 0 0 1 3460.dat
1 71 260 -288 110 1 0 0 0 1 0 0 0 1 3460.dat
1 71 200 -288 140 1 0 0 0 1 0 0 0 1 3022.dat
1 71 200 -288 240 1 0 0 0 1 0 0 0 1 3022.dat
1 71 260 -288 90 1 0 0 0 1 0 0 0 1 3666.dat
1 71 260 -288 270 1 0 0 0 1 0 0 0 1 3666.dat
1 71 300 -288 290 1 0 0 0 1 0 0 0 1 3460.dat
1 71 280 -288 70 1 0 0 0 1 0 0 0 1 3710.dat
1 71 320 -288 50 1 0 0 0 1 0 0 0 1 3023.dat
1 71 310 -288 150 0 0 1 0 1 0 -1 0 0 3623.dat
1 71 310 -288 190 1 0 0 0 1 0 0 0 1 3024.dat
1 71 310 -288 230 1 0 0 0 1 0 0 0 1 3024.dat
1 71 310 -288 250 1 0 0 0 1 0 0 0 1 3024.dat
1 71 350 -288 70 1 0 0 0 1 0 0 0 1 3623.dat
1 71 360 -288 210 1 0 0 0 1 0 0 0 1 3710.dat
1 71 360 -288 270 1 0 0 0 1 0 0 0 1 3710.dat
1 71 370 -288 100 1 0 0 0 1 0 0 0 1 3021.dat
1 71 400 -288 240 1 0 0 0 1 0 0 0 1 3022.dat
1 71 440 -288 120 1 0 0 0 1 0 0 0 1 3020.dat
1 71 420 -288 170 0 0 1 0 1 0 -1 0 0 3021.dat
1 71 410 -288 210 1 0 0 0 1 0 0 0 1 3024.dat
1 71 460 -288 150 1 0 0 0 1 0 0 0 1 3023.dat
1 71 180 -296 180 0 0 1 0 1 0 -1 0 0 3020.dat
1 71 240 -296 110 1 0 0 0 1 0 0 0 1 3666.dat
1 71 200 -296 130 1 0 0 0 1 0 0 0 1 3023.dat
1 71 200 -296 230 1 0 0 0 1 0 0 0 1 3023.dat
1 71 200 -296 250 1 0 0 0 1 0 0 0 1 3023.dat
1 71 240 -296 90 1 0 0 0 1 0 0 0 1 3710.dat
1 71 210 -296 180 0 0 1 0 1 0 -1 0 0 3710.dat
1 71 280 -296 270 1 0 0 0 1 0 0 0 1 3460.dat
1 71 300 -296 210 1 0 0 0 1 0 0 0 1 3460.dat
1 71 280 -296 290 1 0 0 0 1 0 0 0 1 3666.dat
1 71 300 -296 70 1 0 0 0 1 0 0 0 1 3666.dat
1 71 300 -296 90 1 0 0 0 1 0 0 0 1 3023.dat
1 71 330 -296 50 1 0 0 0 1 0 0 0 1 3623.dat
1 71 380 -296 110 1 0 0 0 1 0 0 0 1 3460.dat
1 71 310 -296 160 0 0 1 0 1 0 -1 0 0 3710.dat
1 71 310 -296 240 0 0 1 0 1 0 -1 0 0 3023.dat
1 71 360 -296 290 1 0 0 0 1 0 0 0 1 3023.dat
1 71 370 -296 80 0 0 1 0 1 0 -1 0 0 3023.dat
1 71 380 -296 270 1 0 0 0 1 0 0 0 1 3023.dat
1 71 420 -296 90 1 0 0 0 1 0 0 0 1 3710.dat
1 71 400 -296 230 0 0 1 0 1 0 -1 0 0 3021.dat
1 71 440 -296 140 1 0 0 0 1 0 0 0 1 3020.dat
1 71 430 -296 180 1 0 0 0 1 0 0 0 1 3021.dat
1 71 430 -296 210 1 0 0 0 1 0 0 0 1 3024.dat
1 71 470 -296 110 1 0 0 0 1 0 0 0 1 3024.dat
1 71 470 -296 170 1 0 0 0 1 0 0 0 1 3024.dat
1 71 190 -304 160 1 0 0 0 1 0 0 0 1 3021.dat
1 71 190 -304 200 1 0 0 0 1 0 0 0 1 3021.dat
1 71 260 -304 110 1 0 0 0 1 0 0 0 1 3460.dat
1 71 190 -304 130 1 0 0 0 1 0 0 0 1 3024.dat
1 71 200 -304 240 1 0 0 0 1 0 0 0 1 3022.dat
1 71 230 -304 90 1 0 0 0 1 0 0 0 1 3623.dat
1 71 210 -304 130 1 0 0 0 1 0 0 0 1 3024.dat
1 71 260 -304 270 1 0 0 0 1 0 0 0 1 3666.dat
1 71 300 -304 70 1 0 0 0 1 0 0 0 1 3460.dat
1 71 280 -304 210 1 0 0 0 1 0 0 0 1 3666.dat
1 71 300 -304 290 1 0 0 0 1 0 0 0 1 3460.dat
1 71 270 -304 90 1 0 0 0 1 0 0 0 1 3024.dat
1 71 320 -304 50 1 0 0 0 1 0 0 0 1 3710.dat
1 71 310 -304 90 1 0 0 0 1 0 0 0 1 3024.dat
1 71 310 -304 150 0 0 1 0 1 0 -1 0 0 3623.dat
1 71 310 -304 190 1 0 0 0 1 0 0 0 1 3024.dat
1 71 310 -304 230 1 0 0 0 1 0 0 0 1 3024.dat
1 71 310 -304 250 1 0 0 0 1 0 0 0 1 3024.dat
1 71 360 -304 270 1 0 0 0 1 0 0 0 1 3710.dat
1 71 400 -304 110 1 0 0 0 1 0 0 0 1 3666.dat
1 71 400 -304 210 1 0 0 0 1 0 0 0 1 3666.dat
1 71 400 -304 90 1 0 0 0 1 0 0 0 1 3710.dat
1 71 400 -304 250 1 0 0 0 1 0 0 0 1 3023.dat
1 71 410 -304 160 0 0 1 0 1 0 -1 0 0 3710.dat
1 71 420 -304 230 1 0 0 0 1 0 0 0 1 3023.dat
1 71 440 -304 190 1 0 0 0 1 0 0 0 1 3023.dat
1 71 450 -304 90 1 0 0 0 1 0 0 0 1 3024.dat
1 71 460 -304 150 0 0 1 0 1 0 -1 0 0 3021.dat
1 71 470 -304 110 1 0 0 0 1 0 0 0 1 3024.dat
1 71 190 -312 230 1 0 0 0 1 0 0 0 1 3623.dat
1 71 410 -312 140 0 0 1 0 1 0 -1 0 0 3460.dat
1 71 440 -312 140 1 0 0 0 1 0 0 0 1 3022.dat
1 71 180 -312 180 0 0 1 0 1 0 -1 0 0 3020.dat
1 71 240 -312 110 1 0 0 0 1 0 0 0 1 3666.dat
1 71 200 -312 130 1 0 0 0 1 0 0 0 1 3023.dat
1 71 200 -312 250 1 0 0 0 1 0 0 0 1 3023.dat
1 71 240 -312 90 1 0 0 0 1 0 0 0 1 3710.dat
1 71 210 -312 180 0 0 1 0 1 0 -1 0 0 3710.dat
1 71 280 -312 270 1 0 0 0 1 0 0 0 1 3460.dat
1 71 280 -312 70 1 0 0 0 1 0 0 0 1 3666.dat
1 71 300 -312 210 1 0 0 0 1 0 0 0 1 3460.dat
1 71 280 -312 290 1 0 0 0 1 0 0 0 1 3666.dat
1 71 310 -312 50 1 0 0 0 1 0 0 0 1 3623.dat
1 71 310 -312 140 0 0 1 0 1 0 -1 0 0 3666.dat
1 71 310 -312 240 0 0 1 0 1 0 -1 0 0 3023.dat
1 71 360 -312 110 1 0 0 0 1 0 0 0 1 3710.dat
1 71 350 -312 60 0 0 1 0 1 0 -1 0 0 3023.dat
1 71 360 -312 290 1 0 0 0 1 0 0 0 1 3023.dat
1 71 370 -312 80 0 0 1 0 1 0 -1 0 0 3023.dat
1 71 380 -312 270 1 0 0 0 1 0 0 0 1 3023.dat
1 71 390 -312 90 1 0 0 0 1 0 0 0 1 3024.dat
1 71 390 -312 210 1 0 0 0 1 0 0 0 1 3024.dat
1 71 390 -312 250 1 0 0 0 1 0 0 0 1 3024.dat
1 71 410 -312 240 0 0 1 0 1 0 -1 0 0 3023.dat
1 71 440 -312 100 1 0 0 0 1 0 0 0 1 3022.dat
1 71 440 -312 200 1 0 0 0 1 0 0 0 1 3022.dat
1 71 430 -312 230 1 0 0 0 1 0 0 0 1 3024.dat
1 71 460 -312 170 1 0 0 0 1 0 0 0 1 3023.dat
1 71 470 -312 150 1 0 0 0 1 0 0 0 1 3024.dat
1 71 190 -320 160 1 0 0 0 1 0 0 0 1 3021.dat
1 71 190 -320 200 1 0 0 0 1 0 0 0 1 3021.dat
1 71 180 -320 230 1 0 0 0 1 0 0 0 1 3023.dat
1 71 260 -320 110 1 0 0 0 1 0 0 0 1 3460.dat
1 71 190 -320 130 1 0 0 0 1 0 0 0 1 3024.dat
1 71 190 -320 250 1 0 0 0 1 0 0 0 1 3024.dat
1 71 230 -320 90 1 0 0 0 1 0 0 0 1 3623.dat
1 71 210 -320 130 1 0 0 0 1 0 0 0 1 3024.dat
1 71 210 -320 250 0 0 1 0 1 0 -1 0 0 3623.dat
1 71 300 -320 70 1 0 0 0 1 0 0 0 1 3460.dat
1 71 280 -320 210 1 0 0 0 1 0 0 0 1 3666.dat
1 71 250 -320 280 1 0 0 0 1 0 0 0 1 3021.dat
1 71 270 -320 90 1 0 0 0 1 0 0 0 1 3024.dat
1 71 320 -320 50 1 0 0 0 1 0 0 0 1 3710.dat
1 71 320 -320 290 1 0 0 0 1 0 0 0 1 3710.dat
1 71 310 -320 90 1 0 0 0 1 0 0 0 1 3024.dat
1 71 310 -320 160 0 0 1 0 1 0 -1 0 0 3710.dat
1 71 310 -320 250 0 0 1 0 1 0 -1 0 0 3623.dat
1 71 360 -320 270 1 0 0 0 1 0 0 0 1 3710.dat
1 71 380 -320 110 1 0 0 0 1 0 0 0 1 3710.dat
1 71 400 -320 210 1 0 0 0 1 0 0 0 1 3666.dat
1 71 400 -320 90 1 0 0 0 1 0 0 0 1 3710.dat
1 71 370 -320 290 1 0 0 0 1 0 0 0 1 3024.dat
1 71 400 -320 70 1 0 0 0 1 0 0 0 1 3023.dat
1 71 400 -320 250 1 0 0 0 1 0 0 0 1 3023.dat
1 71 420 -320 150 0 0 1 0 1 0 -1 0 0 3021.dat
1 71 410 -320 190 1 0 0 0 1 0 0 0 1 3024.dat
1 71 420 -320 230 1 0 0 0 1 0 0 0 1 3023.dat
1 71 430 -320 110 1 0 0 0 1 0 0 0 1 3024.dat
1 71 450 -320 90 1 0 0 0 1 0 0 0 1 3024.dat
1 71 460 -320 180 1 0 0 0 1 0 0 0 1 3022.dat
1 71 180 -328 180 0 0 1 0 1 0 -1 0 0 3020.dat
1 71 190 -328 230 1 0 0 0 1 0 0 0 1 3623.dat
1 71 240 -328 110 1 0 0 0 1 0 0 0 1 3666.dat
1 71 200 -328 130 1 0 0 0 1 0 0 0 1 3023.dat
1 71 200 -328 250 1 0 0 0 1 0 0 0 1 3023.dat
1 71 220 -328 90 1 0 0 0 1 0 0 0 1 3023.dat
1 71 210 -328 180 0 0 1 0 1 0 -1 0 0 3710.dat
1 71 240 -328 270 1 0 0 0 1 0 0 0 1 3710.dat
1 71 280 -328 70 1 0 0 0 1 0 0 0 1 3666.dat
1 71 300 -328 210 1 0 0 0 1 0 0 0 1 3460.dat
1 71 300 -328 290 1 0 0 0 1 0 0 0 1 3460.dat
1 71 250 -328 90 1 0 0 0 1 0 0 0 1 3024.dat
1 71 300 -328 50 1 0 0 0 1 0 0 0 1 3710.dat
1 71 310 -328 140 0 0 1 0 1 0 -1 0 0 3666.dat
1 71 310 -328 240 0 0 1 0 1 0 -1 0 0 3023.dat
1 71 340 -328 270 1 0 0 0 1 0 0 0 1 3710.dat
1 71 380 -328 110 1 0 0 0 1 0 0 0 1 3666.dat
1 71 350 -328 60 0 0 1 0 1 0 -1 0 0 3023.dat
1 71 380 -328 80 1 0 0 0 1 0 0 0 1 3022.dat
1 71 420 -328 210 1 0 0 0 1 0 0 0 1 3710.dat
1 71 390 -328 260 0 0 1 0 1 0 -1 0 0 3023.dat
1 71 430 -328 90 1 0 0 0 1 0 0 0 1 3623.dat
1 71 410 -328 160 0 0 1 0 1 0 -1 0 0 3710.dat
1 71 410 -328 240 0 0 1 0 1 0 -1 0 0 3023.dat
1 71 430 -328 140 0 0 1 0 1 0 -1 0 0 3023.dat
1 71 430 -328 230 1 0 0 0 1 0 0 0 1 3024.dat
1 71 450 -328 110 1 0 0 0 1 0 0 0 1 3024.dat
1 71 450 -328 170 0 0 1 0 1 0 -1 0 0 3623.dat
1 71 470 -328 180 0 0 1 0 1 0 -1 0 0 3023.dat
1 71 190 -336 160 1 0 0 0 1 0 0 0 1 3021.dat
1 71 190 -336 200 1 0 0 0 1 0 0 0 1 3021.dat
1 71 180 -336 230 1 0 0 0 1 0 0 0 1 3023.dat
1 71 260 -336 110 1 0 0 0 1 0 0 0 1 3460.dat
1 71 190 -336 130 1 0 0 0 1 0 0 0 1 3024.dat
1 71 190 -336 250 1 0 0 0 1 0 0 0 1 3024.dat
1 71 230 -336 90 1 0 0 0 1 0 0 0 1 3623.dat
1 71 210 -336 130 1 0 0 0 1 0 0 0 1 3024.dat
1 71 210 -336 250 0 0 1 0 1 0 -1 0 0 3623.dat
1 71 300 -336 70 1 0 0 0 1 0 0 0 1 3460.dat
1 71 280 -336 210 1 0 0 0 1 0 0 0 1 3666.dat
1 71 250 -336 280 1 0 0 0 1 0 0 0 1 3021.dat
1 71 290 -336 50 1 0 0 0 1 0 0 0 1 3623.dat
1 71 320 -336 290 1 0 0 0 1 0 0 0 1 3710.dat
1 71 310 -336 90 1 0 0 0 1 0 0 0 1 3024.dat
1 71 310 -336 160 0 0 1 0 1 0 -1 0 0 3710.dat
1 71 310 -336 250 0 0 1 0 1 0 -1 0 0 3623.dat
1 71 340 -336 50 1 0 0 0 1 0 0 0 1 3023.dat
1 71 360 -336 270 1 0 0 0 1 0 0 0 1 3710.dat
1 71 400 -336 110 1 0 0 0 1 0 0 0 1 3666.dat
1 71 380 -336 210 1 0 0 0 1 0 0 0 1 3710.dat
1 71 400 -336 90 1 0 0 0 1 0 0 0 1 3710.dat
1 71 370 -336 290 1 0 0 0 1 0 0 0 1 3024.dat
1 71 390 -336 70 1 0 0 0 1 0 0 0 1 3024.dat
1 71 400 -336 240 1 0 0 0 1 0 0 0 1 3022.dat
1 71 430 -336 130 1 0 0 0 1 0 0 0 1 3623.dat
1 71 410 -336 170 0 0 1 0 1 0 -1 0 0 3623.dat
1 71 450 -336 190 1 0 0 0 1 0 0 0 1 3623.dat
1 71 450 -336 90 1 0 0 0 1 0 0 0 1 3024.dat
1 71 460 -336 160 1 0 0 0 1 0 0 0 1 3022.dat
1 71 490 -336 170 1 0 0 0 1 0 0 0 1 3024.dat
1 71 180 -344 180 0 0 1 0 1 0 -1 0 0 3020.dat
1 71 190 -344 230 1 0 0 0 1 0 0 0 1 3623.dat
1 71 240 -344 110 1 0 0 0 1 0 0 0 1 3666.dat
1 71 200 -344 130 1 0 0 0 1 0 0 0 1 3023.dat
1 71 200 -344 250 1 0 0 0 1 0 0 0 1 3023.dat
1 71 240 -344 90 1 0 0 0 1 0 0 0 1 3710.dat
1 71 210 -344 180 0 0 1 0 1 0 -1 0 0 3710.dat
1 71 240 -344 270 1 0 0 0 1 0 0 0 1 3710.dat
1 71 280 -344 70 1 0 0 0 1 0 0 0 1 3666.dat
1 71 300 -344 210 1 0 0 0 1 0 0 0 1 3460.dat
1 71 300 -344 290 1 0 0 0 1 0 0 0 1 3460.dat
1 71 320 -344 50 1 0 0 0 1 0 0 0 1 3710.dat
1 71 310 -344 140 0 0 1 0 1 0 -1 0 0 3666.dat
1 71 310 -344 240 0 0 1 0 1 0 -1 0 0 3023.dat
1 71 340 -344 270 1 0 0 0 1 0 0 0 1 3710.dat
1 71 400 -344 110 1 0 0 0 1 0 0 0 1 3460.dat
1 71 360 -344 70 1 0 0 0 1 0 0 0 1 3023.dat
1 71 420 -344 90 1 0 0 0 1 0 0 0 1 3666.dat
1 71 400 -344 230 0 0 1 0 1 0 -1 0 0 3021.dat
1 71 390 -344 270 1 0 0 0 1 0 0 0 1 3024.dat
1 71 410 -344 160 0 0 1 0 1 0 -1 0 0 3710.dat
1 71 440 -344 190 1 0 0 0 1 0 0 0 1 3023.dat
1 71 460 -344 130 1 0 0 0 1 0 0 0 1 3023.dat
1 71 470 -344 170 1 0 0 0 1 0 0 0 1 3623.dat
1 71 480 -344 150 1 0 0 0 1 0 0 0 1 3023.dat
1 71 470 -344 190 1 0 0 0 1 0 0 0 1 3024.dat
1 71 190 -352 160 1 0 0 0 1 0 0 0 1 3021.dat
1 71 190 -352 200 1 0 0 0 1 0 0 0 1 3021.dat
1 71 180 -352 230 1 0 0 0 1 0 0 0 1 3023.dat
1 71 260 -352 110 1 0 0 0 1 0 0 0 1 3460.dat
1 71 190 -352 130 1 0 0 0 1 0 0 0 1 3024.dat
1 71 190 -352 250 1 0 0 0 1 0 0 0 1 3024.dat
1 71 230 -352 90 1 0 0 0 1 0 0 0 1 3623.dat
1 71 210 -352 130 1 0 0 0 1 0 0 0 1 3024.dat
1 71 210 -352 250 0 0 1 0 1 0 -1 0 0 3623.dat
1 71 300 -352 70 1 0 0 0 1 0 0 0 1 3460.dat
1 71 280 -352 210 1 0 0 0 1 0 0 0 1 3666.dat
1 71 300 -352 280 1 0 0 0 1 0 0 0 1 3034.dat
1 71 270 -352 90 1 0 0 0 1 0 0 0 1 3024.dat
1 71 310 -352 50 1 0 0 0 1 0 0 0 1 3623.dat
1 71 310 -352 90 1 0 0 0 1 0 0 0 1 3024.dat
1 71 310 -352 160 0 0 1 0 1 0 -1 0 0 3710.dat
1 71 310 -352 230 1 0 0 0 1 0 0 0 1 3024.dat
1 71 310 -352 250 1 0 0 0 1 0 0 0 1 3024.dat
1 71 370 -352 100 1 0 0 0 1 0 0 0 1 3021.dat
1 71 380 -352 210 1 0 0 0 1 0 0 0 1 3710.dat
1 71 400 -352 240 1 0 0 0 1 0 0 0 1 3022.dat
1 71 390 -352 270 1 0 0 0 1 0 0 0 1 3024.dat
1 71 440 -352 110 1 0 0 0 1 0 0 0 1 3710.dat
1 71 410 -352 150 0 0 1 0 1 0 -1 0 0 3623.dat
1 71 420 -352 190 1 0 0 0 1 0 0 0 1 3023.dat
1 71 450 -352 90 1 0 0 0 1 0 0 0 1 3623.dat
1 71 460 -352 170 1 0 0 0 1 0 0 0 1 3710.dat
1 71 460 -352 140 1 0 0 0 1 0 0 0 1 3022.dat
1 71 490 -352 150 1 0 0 0 1 0 0 0 1 3024.dat
1 71 180 -360 180 0 0 1 0 1 0 -1 0 0 3020.dat
1 71 240 -360 110 1 0 0 0 1 0 0 0 1 3666.dat
1 71 200 -360 130 1 0 0 0 1 0 0 0 1 3023.dat
1 71 200 -360 240 1 0 0 0 1 0 0 0 1 3022.dat
1 71 280 -360 90 1 0 0 0 1 0 0 0 1 3460.dat
1 71 210 -360 180 0 0 1 0 1 0 -1 0 0 3710.dat
1 71 280 -360 270 1 0 0 0 1 0 0 0 1 3460.dat
1 71 280 -360 70 1 0 0 0 1 0 0 0 1 3666.dat
1 71 300 -360 210 1 0 0 0 1 0 0 0 1 3460.dat
1 71 280 -360 290 1 0 0 0 1 0 0 0 1 3666.dat
1 71 310 -360 50 1 0 0 0 1 0 0 0 1 3024.dat
1 71 380 -360 110 1 0 0 0 1 0 0 0 1 3460.dat
1 71 310 -360 150 0 0 1 0 1 0 -1 0 0 3623.dat
1 71 310 -360 190 1 0 0 0 1 0 0 0 1 3024.dat
1 71 310 -360 240 0 0 1 0 1 0 -1 0 0 3023.dat
1 71 360 -360 70 1 0 0 0 1 0 0 0 1 3023.dat
1 71 350 -360 290 1 0 0 0 1 0 0 0 1 3024.dat
1 71 380 -360 90 1 0 0 0 1 0 0 0 1 3023.dat
1 71 380 -360 260 1 0 0 0 1 0 0 0 1 3022.dat
1 71 400 -360 220 1 0 0 0 1 0 0 0 1 3022.dat
1 71 410 -360 160 0 0 1 0 1 0 -1 0 0 3710.dat
1 71 410 -360 250 1 0 0 0 1 0 0 0 1 3024.dat
1 71 430 -360 130 1 0 0 0 1 0 0 0 1 3024.dat
1 71 450 -360 170 1 0 0 0 1 0 0 0 1 3623.dat
1 71 430 -360 200 0 0 1 0 1 0 -1 0 0 3023.dat
1 71 460 -360 90 1 0 0 0 1 0 0 0 1 3023.dat
1 71 470 -360 150 1 0 0 0 1 0 0 0 1 3623.dat
1 71 480 -360 120 1 0 0 0 1 0 0 0 1 3022.dat
1 71 490 -360 170 1 0 0 0 1 0 0 0 1 3024.dat
1 71 190 -368 180 1 0 0 0 1 0 0 0 1 3021.dat
1 71 240 -368 210 1 0 0 0 1 0 0 0 1 3460.dat
1 71 260 -368 110 1 0 0 0 1 0 0 0 1 3460.dat
1 71 200 -368 140 1 0 0 0 1 0 0 0 1 3022.dat
1 71 200 -368 230 1 0 0 0 1 0 0 0 1 3023.dat
1 71 200 -368 250 1 0 0 0 1 0 0 0 1 3023.dat
1 71 260 -368 90 1 0 0 0 1 0 0 0 1 3666.dat
1 71 260 -368 270 1 0 0 0 1 0 0 0 1 3666.dat
1 71 300 -368 70 1 0 0 0 1 0 0 0 1 3460.dat
1 71 260 -368 290 1 0 0 0 1 0 0 0 1 3710.dat
1 71 310 -368 160 0 0 1 0 1 0 -1 0 0 3710.dat
1 71 310 -368 230 1 0 0 0 1 0 0 0 1 3024.dat
1 71 310 -368 250 1 0 0 0 1 0 0 0 1 3024.dat
1 71 330 -368 290 1 0 0 0 1 0 0 0 1 3623.dat
1 71 360 -368 90 1 0 0 0 1 0 0 0 1 3710.dat
1 71 380 -368 210 1 0 0 0 1 0 0 0 1 3666.dat
1 71 360 -368 270 1 0 0 0 1 0 0 0 1 3710.dat
1 71 380 -368 110 1 0 0 0 1 0 0 0 1 3710.dat
1 71 380 -368 250 1 0 0 0 1 0 0 0 1 3023.dat
1 71 400 -368 230 1 0 0 0 1 0 0 0 1 3023.dat
1 71 440 -368 140 1 0 0 0 1 0 0 0 1 3020.dat
1 71 420 -368 180 1 0 0 0 1 0 0 0 1 3022.dat
1 71 460 -368 100 1 0 0 0 1 0 0 0 1 3022.dat
1 71 480 -368 170 1 0 0 0 1 0 0 0 1 3023.dat
1 71 490 -368 130 0 0 1 0 1 0 -1 0 0 3623.dat
1 71 230 -376 260 0 0 1 0 1 0 -1 0 0 3023.dat
1 71 190 -376 170 1 0 0 0 1 0 0 0 1 3623.dat
1 71 200 -376 130 1 0 0 0 1 0 0 0 1 3023.dat
1 71 200 -376 150 1 0 0 0 1 0 0 0 1 3023.dat
1 71 200 -376 220 0 0 1 0 1 0 -1 0 0 3020.dat
1 71 280 -376 100 1 0 0 0 1 0 0 0 1 3034.dat
1 71 210 -376 270 1 0 0 0 1 0 0 0 1 3024.dat
1 71 300 -376 210 1 0 0 0 1 0 0 0 1 3460.dat
1 71 300 -376 70 1 0 0 0 1 0 0 0 1 3666.dat
1 71 300 -376 280 1 0 0 0 1 0 0 0 1 3795.dat
1 71 310 -376 150 0 0 1 0 1 0 -1 0 0 3623.dat
1 71 310 -376 190 1 0 0 0 1 0 0 0 1 3024.dat
1 71 310 -376 240 0 0 1 0 1 0 -1 0 0 3023.dat
1 71 370 -376 90 0 0 1 0 1 0 -1 0 0 3623.dat
1 71 370 -376 260 0 0 1 0 1 0 -1 0 0 3023.dat
1 71 390 -376 100 0 0 1 0 1 0 -1 0 0 3023.dat
1 71 400 -376 220 1 0 0 0 1 0 0 0 1 3022.dat
1 71 390 -376 250 1 0 0 0 1 0 0 0 1 3024.dat
1 71 410 -376 140 0 0 1 0 1 0 -1 0 0 3710.dat
1 71 420 -376 190 1 0 0 0 1 0 0 0 1 3023.dat
1 71 460 -376 130 1 0 0 0 1 0 0 0 1 3710.dat
1 71 430 -376 160 0 0 1 0 1 0 -1 0 0 3023.dat
1 71 470 -376 110 1 0 0 0 1 0 0 0 1 3623.dat
1 71 470 -376 90 1 0 0 0 1 0 0 0 1 3024.dat
1 71 480 -376 150 1 0 0 0 1 0 0 0 1 3023.dat
1 71 360 -384 260 1 0 0 0 1 0 0 0 1 3022.dat
1 71 400 -384 180 0 0 1 0 1 0 -1 0 0 3795.dat
1 71 200 -384 180 0 0 1 0 1 0 -1 0 0 3795.dat
1 71 280 -384 110 1 0 0 0 1 0 0 0 1 3460.dat
1 71 220 -384 260 1 0 0 0 1 0 0 0 1 3022.dat
1 71 300 -384 90 1 0 0 0 1 0 0 0 1 3460.dat
1 71 280 -384 210 1 0 0 0 1 0 0 0 1 3666.dat
1 71 280 -384 70 1 0 0 0 1 0 0 0 1 3710.dat
1 71 280 -384 280 1 0 0 0 1 0 0 0 1 3020.dat
1 71 310 -384 160 0 0 1 0 1 0 -1 0 0 3710.dat
1 71 310 -384 230 1 0 0 0 1 0 0 0 1 3024.dat
1 71 310 -384 250 1 0 0 0 1 0 0 0 1 3024.dat
1 71 340 -384 70 1 0 0 0 1 0 0 0 1 3023.dat
1 71 330 -384 280 0 0 1 0 1 0 -1 0 0 3023.dat
1 71 360 -384 210 1 0 0 0 1 0 0 0 1 3023.dat
1 71 390 -384 110 1 0 0 0 1 0 0 0 1 3623.dat
1 71 390 -384 90 1 0 0 0 1 0 0 0 1 3024.dat
1 71 390 -384 250 1 0 0 0 1 0 0 0 1 3024.dat
1 71 470 -384 130 0 0 1 0 1 0 -1 0 0 3623.dat
1 71 490 -384 140 0 0 1 0 1 0 -1 0 0 3023.dat
1 71 200 -392 160 0 0 1 0 1 0 -1 0 0 3020.dat
1 71 260 -392 210 1 0 0 0 1 0 0 0 1 3460.dat
1 71 200 -392 230 1 0 0 0 1 0 0 0 1 3023.dat
1 71 260 -392 110 1 0 0 0 1 0 0 0 1 3666.dat
1 71 220 -392 250 1 0 0 0 1 0 0 0 1 3023.dat
1 71 280 -392 90 1 0 0 0 1 0 0 0 1 3666.dat
1 71 300 -392 270 1 0 0 0 1 0 0 0 1 3460.dat
1 71 280 -392 290 1 0 0 0 1 0 0 0 1 3710.dat
1 71 300 -392 70 1 0 0 0 1 0 0 0 1 3710.dat
1 71 310 -392 150 0 0 1 0 1 0 -1 0 0 3623.dat
1 71 310 -392 190 1 0 0 0 1 0 0 0 1 3024.dat
1 71 310 -392 240 0 0 1 0 1 0 -1 0 0 3023.dat
1 71 360 -392 110 1 0 0 0 1 0 0 0 1 3710.dat
1 71 330 -392 290 1 0 0 0 1 0 0 0 1 3024.dat
1 71 370 -392 90 1 0 0 0 1 0 0 0 1 3623.dat
1 71 380 -392 210 1 0 0 0 1 0 0 0 1 3710.dat
1 71 370 -392 250 1 0 0 0 1 0 0 0 1 3623.dat
1 71 400 -392 160 0 0 1 0 1 0 -1 0 0 3020.dat
1 71 400 -392 230 1 0 0 0 1 0 0 0 1 3023.dat
1 71 300 -400 290 1 0 0 0 1 0 0 0 1 3023.dat
1 71 200 -400 190 0 0 1 0 1 0 -1 0 0 3021.dat
1 71 300 -400 100 1 0 0 0 1 0 0 0 1 3795.dat
1 71 320 -400 270 1 0 0 0 1 0 0 0 1 3710.dat
1 71 340 -400 210 1 0 0 0 1 0 0 0 1 3666.dat
1 71 230 -400 120 0 0 1 0 1 0 -1 0 0 3023.dat
1 71 310 -400 180 0 0 1 0 1 0 -1 0 0 3023.dat
1 71 380 -400 250 1 0 0 0 1 0 0 0 1 3023.dat
1 71 230 -400 90 1 0 0 0 1 0 0 0 1 3024.dat
1 71 410 -400 160 0 0 1 0 1 0 -1 0 0 3710.dat
1 71 330 -400 70 1 0 0 0 1 0 0 0 1 3024.dat
1 71 340 -400 250 1 0 0 0 1 0 0 0 1 3023.dat
1 71 390 -400 160 0 0 1 0 1 0 -1 0 0 3710.dat
1 71 250 -400 270 1 0 0 0 1 0 0 0 1 3623.dat
1 71 200 -400 150 1 0 0 0 1 0 0 0 1 3023.dat
1 71 380 -400 230 1 0 0 0 1 0 0 0 1 3023.dat
1 71 390 -400 110 1 0 0 0 1 0 0 0 1 3024.dat
1 71 300 -400 70 1 0 0 0 1 0 0 0 1 3023.dat
1 71 240 -400 250 1 0 0 0 1 0 0 0 1 3710.dat
1 71 310 -400 150 1 0 0 0 1 0 0 0 1 3024.dat
1 71 260 -400 210 1 0 0 0 1 0 0 0 1 3023.dat
1 71 310 -400 130 1 0 0 0 1 0 0 0 1 3024.dat
1 71 410 -400 210 1 0 0 0 1 0 0 0 1 3024.dat
1 71 210 -400 130 1 0 0 0 1 0 0 0 1 3024.dat
1 71 310 -400 250 1 0 0 0 1 0 0 0 1 3024.dat
1 71 370 -400 270 1 0 0 0 1 0 0 0 1 3024.dat
1 71 210 -400 110 1 0 0 0 1 0 0 0 1 3024.dat
1 71 230 -400 220 0 0 1 0 1 0 -1 0 0 3023.dat
1 71 210 -400 230 1 0 0 0 1 0 0 0 1 3024.dat
1 71 370 -400 100 0 0 1 0 1 0 -1 0 0 3023.dat
1 71 200 -408 180 1 0 0 0 1 0 0 0 1 3022.dat
1 71 220 -408 140 1 0 0 0 1 0 0 0 1 3022.dat
1 71 280 -408 210 1 0 0 0 1 0 0 0 1 3460.dat
1 71 220 -408 230 1 0 0 0 1 0 0 0 1 3023.dat
1 71 300 -408 110 1 0 0 0 1 0 0 0 1 3460.dat
1 71 300 -408 250 1 0 0 0 1 0 0 0 1 3460.dat
1 71 300 -408 90 1 0 0 0 1 0 0 0 1 3666.dat
1 71 300 -408 270 1 0 0 0 1 0 0 0 1 3666.dat
1 71 310 -408 70 1 0 0 0 1 0 0 0 1 3623.dat
1 71 310 -408 160 0 0 1 0 1 0 -1 0 0 3710.dat
1 71 370 -408 90 1 0 0 0 1 0 0 0 1 3024.dat
1 71 380 -408 130 1 0 0 0 1 0 0 0 1 3023.dat
1 71 380 -408 220 1 0 0 0 1 0 0 0 1 3022.dat
1 71 390 -408 110 1 0 0 0 1 0 0 0 1 3024.dat
1 71 400 -408 170 0 0 1 0 1 0 -1 0 0 3021.dat
1 71 390 -408 250 1 0 0 0 1 0 0 0 1 3024.dat
1 71 410 -408 210 1 0 0 0 1 0 0 0 1 3024.dat
1 71 220 -416 180 0 0 1 0 1 0 -1 0 0 3795.dat
1 71 280 -416 110 1 0 0 0 1 0 0 0 1 3666.dat
1 71 280 -416 250 1 0 0 0 1 0 0 0 1 3666.dat
1 71 280 -416 90 1 0 0 0 1 0 0 0 1 3710.dat
1 71 320 -416 210 1 0 0 0 1 0 0 0 1 3460.dat
1 71 280 -416 270 1 0 0 0 1 0 0 0 1 3710.dat
1 71 310 -416 150 0 0 1 0 1 0 -1 0 0 3623.dat
1 71 310 -416 190 1 0 0 0 1 0 0 0 1 3024.dat
1 71 350 -416 90 1 0 0 0 1 0 0 0 1 3623.dat
1 71 340 -416 270 1 0 0 0 1 0 0 0 1 3023.dat
1 71 360 -416 110 1 0 0 0 1 0 0 0 1 3023.dat
1 71 360 -416 250 1 0 0 0 1 0 0 0 1 3023.dat
1 71 380 -416 140 1 0 0 0 1 0 0 0 1 3022.dat
1 71 380 -416 230 1 0 0 0 1 0 0 0 1 3023.dat
1 71 400 -416 180 1 0 0 0 1 0 0 0 1 3022.dat
1 71 220 -424 180 0 0 1 0 1 0 -1 0 0 3020.dat
1 71 240 -424 130 1 0 0 0 1 0 0 0 1 3023.dat
1 71 250 -424 230 1 0 0 0 1 0 0 0 1 3623.dat
1 71 300 -424 110 1 0 0 0 1 0 0 0 1 3666.dat
1 71 300 -424 210 1 0 0 0 1 0 0 0 1 3666.dat
1 71 300 -424 250 1 0 0 0 1 0 0 0 1 3666.dat
1 71 300 -424 90 1 0 0 0 1 0 0 0 1 3710.dat
1 71 300 -424 270 1 0 0 0 1 0 0 0 1 3023.dat
1 71 310 -424 160 0 0 1 0 1 0 -1 0 0 3710.dat
1 71 340 -424 230 1 0 0 0 1 0 0 0 1 3710.dat
1 71 350 -424 90 1 0 0 0 1 0 0 0 1 3024.dat
1 71 370 -424 160 0 0 1 0 1 0 -1 0 0 3666.dat
1 71 370 -424 250 1 0 0 0 1 0 0 0 1 3024.dat
1 71 390 -424 180 0 0 1 0 1 0 -1 0 0 3666.dat
1 71 240 -432 180 0 0 1 0 1 0 -1 0 0 3795.dat
1 71 280 -432 110 1 0 0 0 1 0 0 0 1 3710.dat
1 71 290 -432 130 1 0 0 0 1 0 0 0 1 3623.dat
1 71 320 -432 220 1 0 0 0 1 0 0 0 1 3795.dat
1 71 300 -432 250 1 0 0 0 1 0 0 0 1 3710.dat
1 71 310 -432 170 0 0 1 0 1 0 -1 0 0 3623.dat
1 71 330 -432 100 0 0 1 0 1 0 -1 0 0 3023.dat
1 71 350 -432 130 0 0 1 0 1 0 -1 0 0 3623.dat
1 71 350 -432 250 1 0 0 0 1 0 0 0 1 3024.dat
1 71 370 -432 160 0 0 1 0 1 0 -1 0 0 3710.dat
1 71 390 -432 190 0 0 1 0 1 0 -1 0 0 3623.dat
1 71 310 -440 250 1 0 0 0 1 0 0 0 1 3024.dat
1 71 350 -440 230 1 0 0 0 1 0 0 0 1 3024.dat
1 71 310 -440 220 1 0 0 0 1 0 0 0 1 3021.dat
1 71 360 -440 190 0 0 1 0 1 0 -1 0 0 3021.dat
1 71 350 -440 140 0 0 1 0 1 0 -1 0 0 3023.dat
1 71 250 -440 210 1 0 0 0 1 0 0 0 1 3623.dat
1 71 250 -440 190 1 0 0 0 1 0 0 0 1 3024.dat
1 71 320 -440 130 0 0 1 0 1 0 -1 0 0 3021.dat
1 71 290 -440 120 0 0 1 0 1 0 -1 0 0 3023.dat
1 71 260 -440 160 1 0 0 0 1 0 0 0 1 3022.dat
1 71 270 -440 130 1 0 0 0 1 0 0 0 1 3024.dat
1 71 370 -440 150 1 0 0 0 1 0 0 0 1 3024.dat
1 71 270 -440 230 1 0 0 0 1 0 0 0 1 3024.dat
1 71 250 -440 230 1 0 0 0 1 0 0 0 1 3024.dat
1 71 230 -440 190 1 0 0 0 1 0 0 0 1 3024.dat
1 71 310 -440 190 1 0 0 0 1 0 0 0 1 3024.dat
1 71 250 -440 130 1 0 0 0 1 0 0 0 1 3024.dat
1 71 230 -440 170 1 0 0 0 1 0 0 0 1 3024.dat
1 71 310 -440 170 1 0 0 0 1 0 0 0 1 3024.dat
1 71 280 -448 180 1 0 0 0 1 0 0 0 1 3031.dat
1 71 300 -448 130 1 0 0 0 1 0 0 0 1 3710.dat
1 71 310 -448 230 1 0 0 0 1 0 0 0 1 3623.dat
1 71 340 -448 180 0 0 1 0 1 0 -1 0 0 3020.dat
1 71 300 -456 190 1 0 0 0 1 0 0 0 1 3710.dat
1 71 300 -456 160 1 0 0 0 1 0 0 0 1 3022.dat
1 71 310 -456 210 1 0 0 0 1 0 0 0 1 3024.dat
1 71 330 -456 170 1 0 0 0 1 0 0 0 1 3024.dat
