0 BrickForgerAI Refined - turret
0 Name: BrickForgerAI Refined - turret.ldr
0 Author: BrickForgerAI
0 !LDRAW_ORG Unofficial_Model
0 BFC CERTIFY CCW
0 // Generated by BrickForgerAI (core/brickforge). Do not hand-edit.

1 71 40 -24 10 1 0 0 0 1 0 0 0 1 3010.dat
1 71 40 -24 70 1 0 0 0 1 0 0 0 1 3010.dat
1 71 10 -24 40 0 0 1 0 1 0 -1 0 0 3004.dat
1 71 70 -24 40 0 0 1 0 1 0 -1 0 0 3004.dat
1 71 10 -48 40 0 0 1 0 1 0 -1 0 0 3010.dat
1 71 70 -48 40 0 0 1 0 1 0 -1 0 0 3010.dat
1 71 40 -48 10 1 0 0 0 1 0 0 0 1 3004.dat
1 71 40 -48 70 1 0 0 0 1 0 0 0 1 3004.dat
1 71 40 -72 10 1 0 0 0 1 0 0 0 1 3010.dat
1 71 40 -72 70 1 0 0 0 1 0 0 0 1 3010.dat
1 71 10 -72 40 0 0 1 0 1 0 -1 0 0 3004.dat
1 71 70 -72 40 0 0 1 0 1 0 -1 0 0 3004.dat
1 71 40 -80 40 1 0 0 0 1 0 0 0 1 3031.dat
1 72 10 -104 10 1 0 0 0 1 0 0 0 1 3005.dat
1 72 70 -104 10 1 0 0 0 1 0 0 0 1 3005.dat
1 72 10 -104 70 1 0 0 0 1 0 0 0 1 3005.dat
1 72 70 -104 70 1 0 0 0 1 0 0 0 1 3005.dat
1 4 30 -88 30 1 0 0 0 1 0 0 0 1 3024.dat
1 4 50 -88 30 1 0 0 0 1 0 0 0 1 3070b.dat
1 4 30 -88 50 1 0 0 0 1 0 0 0 1 3070b.dat
1 4 50 -88 50 1 0 0 0 1 0 0 0 1 3070b.dat
1 19 30 -112 30 1 0 0 0 1 0 0 0 1 3005.dat
1 14 10 -112 10 1 0 0 0 1 0 0 0 1 3070b.dat
1 14 70 -112 70 1 0 0 0 1 0 0 0 1 3070b.dat
